<?xml version="1.0" encoding="UTF-8"?>
<svg version="1.1" xmlns="http://www.w3.org/2000/svg" width="312" height="369">
<path d="M0 0 C1.19044922 0.05639648 2.38089844 0.11279297 3.60742188 0.17089844 C7.49139046 0.36914061 11.36963787 0.61605153 15.25 0.875 C16.5596875 0.95363281 17.869375 1.03226563 19.21875 1.11328125 C25.71094021 1.54039903 31.76294609 2.11621976 38 4 C38 6.31 38 8.62 38 11 C34.12782774 12.08989599 30.25406666 13.17394924 26.37890625 14.25317383 C24.43147821 14.79673592 22.48525068 15.34459337 20.5390625 15.89257812 C12.07055802 18.24734085 3.61783176 20.26058284 -5 22 C-4.88096313 23.90894043 -4.88096313 23.90894043 -4.75952148 25.85644531 C-4.77175211 31.59211888 -6.60937429 36.08437538 -8.84765625 41.296875 C-9.25047318 42.27035385 -9.6532901 43.2438327 -10.0683136 44.24681091 C-11.38530249 47.42076185 -12.72391188 50.58510567 -14.0625 53.75 C-14.99012442 55.97626997 -15.91605072 58.2032482 -16.84033203 60.4309082 C-18.69480595 64.89696392 -20.55620102 69.36002581 -22.42333984 73.82080078 C-25.51138976 81.21009842 -28.52364478 88.62887814 -31.51626587 96.05722046 C-32.98531014 99.70150899 -34.46148997 103.34290337 -35.9375 106.984375 C-36.24577225 107.7451384 -36.55404449 108.50590179 -36.87165833 109.28971863 C-41.69120907 121.17836575 -46.53454588 133.05735297 -51.375 144.9375 C-51.837995 146.07399994 -52.30098999 147.21049988 -52.77801514 148.38143921 C-54.13043548 151.70099726 -55.48317459 155.02042529 -56.8359375 158.33984375 C-57.26973724 159.40487122 -57.70353699 160.46989868 -58.15048218 161.56719971 C-60.27811531 166.7880937 -62.41212775 172.00621391 -64.55957031 177.21899414 C-64.96712555 178.20988541 -65.37468079 179.20077667 -65.79458618 180.22169495 C-66.55357083 182.065933 -67.31430539 183.90945241 -68.07723999 185.75205994 C-74.81657394 202.13839629 -80.29736831 217.68132153 -74.2421875 235.19140625 C-73.12733586 237.17621501 -73.12733586 237.17621501 -70.8996582 237.82617188 C-66.8087205 238.07141458 -63.90798287 236.40894568 -60.36328125 234.58984375 C-58.84021051 233.84054465 -57.31625162 233.0930487 -55.79150391 232.34716797 C-55.00342346 231.95793152 -54.21534302 231.56869507 -53.40338135 231.16766357 C-49.50967409 229.27593709 -45.56032577 227.51331474 -41.60546875 225.75390625 C-40.83010773 225.40806488 -40.0547467 225.06222351 -39.25588989 224.7059021 C-37.68980435 224.00816818 -36.12330686 223.31135813 -34.55639648 222.61547852 C-32.14204195 221.54229382 -29.73019 220.4636086 -27.31835938 219.38476562 C-25.76837616 218.6949821 -24.21825146 218.00551639 -22.66796875 217.31640625 C-21.95448776 216.9966835 -21.24100677 216.67696075 -20.50590515 216.34754944 C-12.26037106 212.69991165 -12.26037106 212.69991165 -8.375 213.625 C-5.30824705 215.40048855 -5.0372703 216.65393841 -4 220 C-3.77294922 222.86254883 -3.77294922 222.86254883 -3.8046875 225.95703125 C-3.80968262 226.95968018 -3.81467773 227.9623291 -3.81982422 228.99536133 C-3.83803223 230.25501709 -3.85624023 231.51467285 -3.875 232.8125 C-3.91625 236.834375 -3.9575 240.85625 -4 245 C11.84 246.98 27.68 248.96 44 251 C46.59912988 245.15195777 49.0463127 239.41454267 51.21484375 233.41796875 C51.50694229 232.61805511 51.79904083 231.81814148 52.09999084 230.99398804 C53.04886711 228.39292147 53.99320678 225.79023349 54.9375 223.1875 C55.60196699 221.36376106 56.26668408 219.54011323 56.93164062 217.71655273 C60.18230859 208.79417238 63.41319906 199.86472368 66.62890625 190.9296875 C66.91389984 190.13782547 67.19889343 189.34596344 67.49252319 188.53010559 C67.77278351 187.75132553 68.05304382 186.97254547 68.34179688 186.17016602 C68.89453011 184.63427693 69.44726447 183.09838826 70 181.5625 C70.27110596 180.80895233 70.54221191 180.05540466 70.8215332 179.27902222 C74.49396054 169.07834292 78.27282616 158.93072531 82.26904297 148.85205078 C97.02724729 114.47550058 97.02724729 114.47550058 95.75 78.1875 C94.37857845 74.88191837 94.37857845 74.88191837 91.84106445 74.15649414 C88.13110102 73.9521385 85.20499927 75.0165915 81.79296875 76.30859375 C81.10874344 76.55416519 80.42451813 76.79973663 79.71955872 77.05274963 C76.80646968 78.09860312 73.90406466 79.17277828 71.00073242 80.24536133 C68.87259649 81.02683682 66.73934643 81.7929637 64.60546875 82.55859375 C63.96248337 82.80234238 63.31949799 83.046091 62.6570282 83.29722595 C57.84564967 85.02040983 54.0348212 85.54603224 49 85 C47.01831055 83.54394531 47.01831055 83.54394531 46 81 C45.74296955 78.02471138 45.6503009 75.26663022 45.70703125 72.296875 C45.71127609 71.45908508 45.71552094 70.62129517 45.71989441 69.75811768 C45.73665592 67.08841498 45.77430289 64.41947363 45.8125 61.75 C45.82755013 59.93751092 45.84123797 58.12500998 45.85351562 56.3125 C45.88655111 51.87470769 45.93831557 47.43748283 46 43 C45.2152832 43.01015137 44.43056641 43.02030273 43.62207031 43.03076172 C35.62118925 43.08887663 27.72422623 42.75652855 19.75 42.125 C18.64398438 42.04636719 17.53796875 41.96773437 16.3984375 41.88671875 C10.10346999 41.4007652 4.07323666 40.77239355 -2 39 C-4 36 -4 36 -4.125 33.5 C-3 31 -3 31 0.59692383 29.47879028 C4.54616466 28.10197643 8.5377148 26.93551913 12.57421875 25.83935547 C13.28430084 25.64545227 13.99438293 25.45154907 14.72598267 25.25177002 C17.04542997 24.61960392 19.36636563 23.99312838 21.6875 23.3671875 C23.31604895 22.92564881 24.94454746 22.48392404 26.57299805 22.04202271 C29.97471842 21.11995021 33.37722086 20.20083444 36.78027344 19.28369141 C41.12602197 18.11212433 45.46942438 16.93210712 49.8122406 15.74972343 C53.17079615 14.83652737 56.53070577 13.92839635 59.89102173 13.02170181 C61.49253636 12.58881986 63.09359951 12.15426374 64.69418335 11.71795273 C66.9366759 11.10735881 69.18094744 10.50377619 71.42578125 9.90185547 C73.33484253 9.38581253 73.33484253 9.38581253 75.2824707 8.85934448 C82.99907011 7.07557451 90.60737593 6.80703588 98.5 6.8125 C99.60408203 6.81258057 100.70816406 6.81266113 101.84570312 6.81274414 C111.41810518 6.87565077 120.94886408 7.34143038 130.5 7.9375 C131.21148193 7.98097565 131.92296387 8.02445129 132.65600586 8.06924438 C144.62905186 8.81452593 144.62905186 8.81452593 147 10 C148.20700059 28.87666386 146.56078574 43.92370972 139.65673828 61.66894531 C137.68761101 66.76429269 135.85989979 71.90897111 134.02734375 77.0546875 C130.97626158 85.61170088 127.90634721 94.16147358 124.8125 102.703125 C120.2148709 115.40111807 115.63520403 128.10551223 111.0625 140.8125 C110.69899445 141.82254089 110.33548889 142.83258179 109.96096802 143.87322998 C108.09614566 149.05499428 106.23171009 154.23689748 104.36767578 159.41894531 C102.71064072 164.02536878 101.05260194 168.6314297 99.39404297 173.23730469 C97.18661237 179.36798188 94.98165998 185.49954573 92.77828979 191.63168335 C91.93316101 193.98257671 91.08724745 196.33318811 90.24050903 198.6835022 C89.06444754 201.94839238 87.89126066 205.21430199 86.71875 208.48046875 C86.19661171 209.92696304 86.19661171 209.92696304 85.66392517 211.40267944 C82.00753332 221.44348625 82.00753332 221.44348625 81 232 C80.835 232.763125 80.67 233.52625 80.5 234.3125 C79.16083244 241.51052566 79.5041802 249.42577171 83 256 C84.77935675 256.89248886 84.77935675 256.89248886 87 257 C89.47062819 256.10349334 89.47062819 256.10349334 92.0078125 254.60546875 C92.98645264 254.06647949 93.96509277 253.52749023 94.97338867 252.97216797 C96.01342041 252.38322754 97.05345215 251.79428711 98.125 251.1875 C99.19145752 250.59598145 100.25791504 250.00446289 101.35668945 249.39501953 C103.53351047 248.18605439 105.70743103 246.971852 107.87841797 245.75244141 C110.71562446 244.15964709 113.56027593 242.58169031 116.41015625 241.01171875 C119.41561294 239.35403923 122.41998592 237.69460309 125.41796875 236.0234375 C126.03937744 235.67724365 126.66078613 235.3310498 127.30102539 234.97436523 C128.81202454 234.10780429 130.28802244 233.18084692 131.7578125 232.24609375 C134.9317423 230.48218503 137.43831553 230.66399203 141 231 C146.38156937 236.38156937 144.91481561 247.40649024 144.94747925 254.65072632 C144.76521702 266.6137712 144.76521702 266.6137712 141.07910156 271.59667969 C135.97054292 275.87068205 129.99809258 278.35182152 123.85498047 280.80224609 C119.81801213 282.495881 116.28446874 284.7455268 112.625 287.125 C111.17245809 288.02469749 109.71650933 288.91891002 108.2578125 289.80859375 C107.45118164 290.30085449 106.64455078 290.79311523 105.81347656 291.30029297 C102.4463232 293.33449305 99.06454606 295.34309949 95.6796875 297.34765625 C95.02210449 297.73764801 94.36452148 298.12763977 93.68701172 298.52944946 C90.23582077 300.57452478 86.77929415 302.60968741 83.31347656 304.62988281 C76.68782952 308.50820902 70.20986634 312.46764862 63.9296875 316.88671875 C62.80898 317.65296791 61.68725428 318.41773021 60.56445312 319.1809082 C58.52516472 320.58377753 56.51673326 322.03332623 54.55273438 323.53979492 C45.23021563 329.84210592 37.0891805 327.60942797 26.68707275 325.65899658 C22.48739513 324.90838129 18.2790295 324.26756481 14.05810547 323.64990234 C13.25741701 323.53272669 12.45672855 323.41555103 11.63177681 323.2948246 C9.96021332 323.05075106 8.28859984 322.80701968 6.61693954 322.56361008 C2.25733248 321.92561359 -2.09975683 321.27089248 -6.45703125 320.6171875 C-7.34266817 320.48459723 -8.22830509 320.35200695 -9.1407795 320.21539879 C-13.64085332 319.54166314 -18.14065701 318.86616867 -22.64013672 318.18847656 C-40.21321962 315.54308591 -57.76041712 312.91025201 -75.42959595 310.98551941 C-84.89214994 309.94276974 -94.24894726 308.44603903 -103.625 306.8125 C-105.2407768 306.53647282 -106.85666259 306.26108284 -108.47265625 305.98632812 C-112.31638308 305.33145438 -116.15859259 304.66833874 -120 304 C-120.34817611 293.65379881 -120.66576577 283.30712622 -120.94604492 272.9588623 C-120.99343198 271.23845474 -121.04428848 269.51814347 -121.09570312 267.79785156 C-121.57845878 250.51148576 -117.81635575 236.65045737 -111.18310547 220.8359375 C-109.97920676 217.95015801 -108.80044924 215.05530633 -107.62890625 212.15625 C-102.12120957 198.53065006 -96.50594226 184.95001085 -90.875 171.375 C-90.51854401 170.51543701 -90.16208801 169.65587402 -89.79483032 168.77026367 C-86.0312454 159.69580115 -82.26208412 150.62370904 -78.47793579 141.55780029 C-76.93676051 137.86435139 -75.39820969 134.16981199 -73.85992432 130.47515869 C-73.13155017 128.72782176 -72.40189678 126.98101742 -71.6708374 125.23480225 C-58.98187115 96.48941663 -58.98187115 96.48941663 -61.05078125 65.91796875 C-62.18401893 63.62817575 -62.82730767 62.39441448 -65 61 C-70.24381659 61.47450326 -75.056487 62.78128525 -80.05859375 64.3203125 C-81.59421602 64.77796505 -83.13002937 65.23497682 -84.66601562 65.69140625 C-87.05531947 66.40674904 -89.44290639 67.12665798 -91.82739258 67.85791016 C-94.15050426 68.56774319 -96.47878978 69.25781395 -98.80859375 69.9453125 C-99.51092636 70.16607452 -100.21325897 70.38683655 -100.93687439 70.61428833 C-105.9957084 72.08562238 -109.85085881 72.31815278 -115 71 C-118.91093252 67.05510578 -118.47228676 62.00176129 -118.51171875 56.76171875 C-118.52966995 55.88095169 -118.54762115 55.00018463 -118.56611633 54.09272766 C-118.6201191 51.2910332 -118.65408266 48.48950813 -118.6875 45.6875 C-118.72068195 43.78317961 -118.75517243 41.87888154 -118.79101562 39.97460938 C-118.87583978 35.31652866 -118.94269874 30.6584973 -119 26 C-116.58490559 25.32713788 -114.16819644 24.66153988 -111.75 24 C-110.72712891 23.71382812 -110.72712891 23.71382812 -109.68359375 23.421875 C-106.29399088 22.50042956 -103.54221024 22 -100 22 C-99.67 20.68 -99.34 19.36 -99 18 C-99 18.99 -99 19.98 -99 21 C-98.16078506 20.79590515 -97.32157013 20.5918103 -96.45692444 20.38153076 C-88.47150455 18.43961716 -80.48593565 16.49831771 -72.50020695 14.55767441 C-68.39662392 13.56042459 -64.29309495 12.5629536 -60.18969727 11.56494141 C-56.21515 10.59827695 -52.24045062 9.6322401 -48.26565361 8.66660309 C-46.76409121 8.30170396 -45.26257987 7.93659458 -43.76112556 7.57125092 C-39.5541985 6.54767607 -35.34602588 5.52948997 -31.13650131 4.51665115 C-28.88205684 3.97147885 -26.62963316 3.41836097 -24.37710571 2.86532593 C-22.85848196 2.4973588 -21.33979682 2.12964491 -19.82104492 1.76220703 C-19.12688256 1.58981884 -18.4327202 1.41743065 -17.71752262 1.23981857 C-11.69116638 -0.20593533 -6.15063353 -0.39457643 0 0 Z " fill="#B09B5A" transform="translate(149,35)"/>
<path d="M0 0 C1.19044922 0.05639648 2.38089844 0.11279297 3.60742188 0.17089844 C7.49139046 0.36914061 11.36963787 0.61605153 15.25 0.875 C16.5596875 0.95363281 17.869375 1.03226563 19.21875 1.11328125 C25.71094021 1.54039903 31.76294609 2.11621976 38 4 C38 6.31 38 8.62 38 11 C34.12782774 12.08989599 30.25406666 13.17394924 26.37890625 14.25317383 C24.43147821 14.79673592 22.48525068 15.34459337 20.5390625 15.89257812 C12.07055802 18.24734085 3.61783176 20.26058284 -5 22 C-4.88096313 23.90894043 -4.88096313 23.90894043 -4.75952148 25.85644531 C-4.77175211 31.59211888 -6.60937429 36.08437538 -8.84765625 41.296875 C-9.25047318 42.27035385 -9.6532901 43.2438327 -10.0683136 44.24681091 C-11.38530249 47.42076185 -12.72391188 50.58510567 -14.0625 53.75 C-14.99012442 55.97626997 -15.91605072 58.2032482 -16.84033203 60.4309082 C-18.69480595 64.89696392 -20.55620102 69.36002581 -22.42333984 73.82080078 C-25.51138976 81.21009842 -28.52364478 88.62887814 -31.51626587 96.05722046 C-32.98531014 99.70150899 -34.46148997 103.34290337 -35.9375 106.984375 C-36.24577225 107.7451384 -36.55404449 108.50590179 -36.87165833 109.28971863 C-41.69120907 121.17836575 -46.53454588 133.05735297 -51.375 144.9375 C-51.837995 146.07399994 -52.30098999 147.21049988 -52.77801514 148.38143921 C-54.13043548 151.70099726 -55.48317459 155.02042529 -56.8359375 158.33984375 C-57.26973724 159.40487122 -57.70353699 160.46989868 -58.15048218 161.56719971 C-60.27811531 166.7880937 -62.41212775 172.00621391 -64.55957031 177.21899414 C-64.96712555 178.20988541 -65.37468079 179.20077667 -65.79458618 180.22169495 C-66.55357083 182.065933 -67.31430539 183.90945241 -68.07723999 185.75205994 C-74.81657394 202.13839629 -80.29736831 217.68132153 -74.2421875 235.19140625 C-73.12733586 237.17621501 -73.12733586 237.17621501 -70.8996582 237.82617188 C-66.8087205 238.07141458 -63.90798287 236.40894568 -60.36328125 234.58984375 C-58.84021051 233.84054465 -57.31625162 233.0930487 -55.79150391 232.34716797 C-55.00342346 231.95793152 -54.21534302 231.56869507 -53.40338135 231.16766357 C-49.50967409 229.27593709 -45.56032577 227.51331474 -41.60546875 225.75390625 C-40.83010773 225.40806488 -40.0547467 225.06222351 -39.25588989 224.7059021 C-37.68980435 224.00816818 -36.12330686 223.31135813 -34.55639648 222.61547852 C-32.14204195 221.54229382 -29.73019 220.4636086 -27.31835938 219.38476562 C-25.76837616 218.6949821 -24.21825146 218.00551639 -22.66796875 217.31640625 C-21.95448776 216.9966835 -21.24100677 216.67696075 -20.50590515 216.34754944 C-12.26037106 212.69991165 -12.26037106 212.69991165 -8.375 213.625 C-5.30824705 215.40048855 -5.0372703 216.65393841 -4 220 C-3.77294922 222.86254883 -3.77294922 222.86254883 -3.8046875 225.95703125 C-3.81113281 227.06884766 -3.81757813 228.18066406 -3.82421875 229.32617188 C-3.84935547 231.0519043 -3.84935547 231.0519043 -3.875 232.8125 C-3.88402344 233.98232422 -3.89304687 235.15214844 -3.90234375 236.35742188 C-3.92586268 239.23849053 -3.95873148 242.11913989 -4 245 C-13.10187254 249.94799782 -22.27956639 254.66979132 -31.64453125 259.1015625 C-39.7148284 262.94129603 -47.76460117 266.81925213 -55.7890625 270.75390625 C-56.76364914 271.23171036 -57.73823578 271.70951447 -58.74235535 272.20179749 C-62.69509762 274.14094048 -66.64688089 276.08203312 -70.59863281 278.02319336 C-81.32635681 283.29098882 -92.06229027 288.54148387 -102.8359375 293.71484375 C-103.73059723 294.1476918 -104.62525696 294.58053986 -105.54702759 295.02650452 C-106.77744278 295.61461159 -106.77744278 295.61461159 -108.03271484 296.21459961 C-108.75325043 296.56074814 -109.47378601 296.90689667 -110.21615601 297.26353455 C-112 298 -112 298 -114 298 C-114 298.66 -114 299.32 -114 300 C-113.20182861 300.04318359 -112.40365723 300.08636719 -111.58129883 300.13085938 C-102.32425427 300.70428715 -93.21829417 301.81788993 -84.04516602 303.15673828 C-81.64629263 303.50599954 -79.24613374 303.84521775 -76.84570312 304.18359375 C-75.31762437 304.40306202 -73.78962616 304.623092 -72.26171875 304.84375 C-71.54521652 304.94482056 -70.82871429 305.04589111 -70.09049988 305.15002441 C-65.11521179 305.88478821 -65.11521179 305.88478821 -64 307 C-63.95936168 308.66617115 -63.957279 310.33388095 -64 312 C-75.18559845 311.47034211 -86.03567463 309.85504101 -97.0625 308 C-98.73883971 307.72339664 -100.41527169 307.44735193 -102.09179688 307.171875 C-114.93724125 305.05110036 -114.93724125 305.05110036 -120 304 C-120.34817611 293.65379881 -120.66576577 283.30712622 -120.94604492 272.9588623 C-120.99343198 271.23845474 -121.04428848 269.51814347 -121.09570312 267.79785156 C-121.57845878 250.51148576 -117.81635575 236.65045737 -111.18310547 220.8359375 C-109.97920676 217.95015801 -108.80044924 215.05530633 -107.62890625 212.15625 C-102.12120957 198.53065006 -96.50594226 184.95001085 -90.875 171.375 C-90.51854401 170.51543701 -90.16208801 169.65587402 -89.79483032 168.77026367 C-86.0312454 159.69580115 -82.26208412 150.62370904 -78.47793579 141.55780029 C-76.93676051 137.86435139 -75.39820969 134.16981199 -73.85992432 130.47515869 C-73.13155017 128.72782176 -72.40189678 126.98101742 -71.6708374 125.23480225 C-58.98187115 96.48941663 -58.98187115 96.48941663 -61.05078125 65.91796875 C-62.18401893 63.62817575 -62.82730767 62.39441448 -65 61 C-70.24381659 61.47450326 -75.056487 62.78128525 -80.05859375 64.3203125 C-81.59421602 64.77796505 -83.13002937 65.23497682 -84.66601562 65.69140625 C-87.05531947 66.40674904 -89.44290639 67.12665798 -91.82739258 67.85791016 C-94.15050426 68.56774319 -96.47878978 69.25781395 -98.80859375 69.9453125 C-99.51092636 70.16607452 -100.21325897 70.38683655 -100.93687439 70.61428833 C-105.9957084 72.08562238 -109.85085881 72.31815278 -115 71 C-118.91093252 67.05510578 -118.47228676 62.00176129 -118.51171875 56.76171875 C-118.52966995 55.88095169 -118.54762115 55.00018463 -118.56611633 54.09272766 C-118.6201191 51.2910332 -118.65408266 48.48950813 -118.6875 45.6875 C-118.72068195 43.78317961 -118.75517243 41.87888154 -118.79101562 39.97460938 C-118.87583978 35.31652866 -118.94269874 30.6584973 -119 26 C-116.58490559 25.32713788 -114.16819644 24.66153988 -111.75 24 C-110.72712891 23.71382812 -110.72712891 23.71382812 -109.68359375 23.421875 C-106.29399088 22.50042956 -103.54221024 22 -100 22 C-99.67 20.68 -99.34 19.36 -99 18 C-99 18.99 -99 19.98 -99 21 C-98.16078506 20.79590515 -97.32157013 20.5918103 -96.45692444 20.38153076 C-88.47150455 18.43961716 -80.48593565 16.49831771 -72.50020695 14.55767441 C-68.39662392 13.56042459 -64.29309495 12.5629536 -60.18969727 11.56494141 C-56.21515 10.59827695 -52.24045062 9.6322401 -48.26565361 8.66660309 C-46.76409121 8.30170396 -45.26257987 7.93659458 -43.76112556 7.57125092 C-39.5541985 6.54767607 -35.34602588 5.52948997 -31.13650131 4.51665115 C-28.88205684 3.97147885 -26.62963316 3.41836097 -24.37710571 2.86532593 C-22.85848196 2.4973588 -21.33979682 2.12964491 -19.82104492 1.76220703 C-19.12688256 1.58981884 -18.4327202 1.41743065 -17.71752262 1.23981857 C-11.69116638 -0.20593533 -6.15063353 -0.39457643 0 0 Z " fill="#C3AA5D" transform="translate(149,35)"/>
<path d="M0 0 C5.26396327 1.08085012 10.58291337 1.68384137 15.91210938 2.34960938 C19.01778968 2.77702085 22.12102883 3.21963733 25.22460938 3.66210938 C24.78082847 7.73010101 24.27043002 11.5843829 23.20117188 15.53320312 C21.45055371 23.09269065 21.74853366 31.00459177 21.59960938 38.72460938 C21.56136018 40.36981078 21.5223046 42.01499364 21.48242188 43.66015625 C21.38717867 47.66065395 21.30287678 51.66124503 21.22460938 55.66210938 C19.90460938 55.66210938 18.58460938 55.66210938 17.22460938 55.66210938 C17.22460938 56.32210937 17.22460938 56.98210937 17.22460938 57.66210938 C18.54460937 57.66210938 19.86460937 57.66210938 21.22460938 57.66210938 C21.22460938 62.94210937 21.22460938 68.22210938 21.22460938 73.66210938 C9.30137654 73.01249876 -2.35325046 71.38316098 -14.15039062 69.59960938 C-16.06177695 69.31462077 -17.9732349 69.0301122 -19.88476562 68.74609375 C-24.51581707 68.05695438 -29.14585539 67.36135877 -33.77539062 66.66210938 C-33.77539062 68.31210937 -33.77539062 69.96210938 -33.77539062 71.66210938 C-49.94539063 69.35210937 -66.11539063 67.04210937 -82.77539062 64.66210938 C-83.10539062 63.01210938 -83.43539062 61.36210937 -83.77539062 59.66210938 C-99.94539063 57.35210937 -116.11539063 55.04210937 -132.77539062 52.66210938 C-132.77539062 52.00210938 -132.77539062 51.34210938 -132.77539062 50.66210938 C-120.05492889 44.45544048 -107.33381779 38.25010384 -94.61224365 32.04571533 C-91.89916011 30.72247493 -89.18614398 29.39909641 -86.47314453 28.07568359 C-85.62746414 27.66325912 -84.78178375 27.25083466 -83.91047668 26.82591248 C-82.23632731 26.00921397 -80.56240556 25.1920487 -78.88871765 24.37440491 C-74.80913776 22.3825081 -70.72538983 20.40027162 -66.6315918 18.43774414 C-59.25264123 14.89104857 -51.97209176 11.27488724 -44.83789062 7.25585938 C-29.0789412 -1.48856944 -17.80454773 -3.8452653 0 0 Z " fill="#A08E57" transform="translate(167.775390625,282.337890625)"/>
<path d="M0 0 C0.14953125 0.61101562 0.2990625 1.22203125 0.453125 1.8515625 C0.84005579 3.37164775 1.27765794 4.87925015 1.75 6.375 C2.09054934 9.95076806 0.77199112 11.95217528 -1 15 C2.09354597 15.99435406 3.90279155 15.87840996 7 15 C7.10957031 14.43410156 7.21914062 13.86820313 7.33203125 13.28515625 C7.49058594 12.55167969 7.64914063 11.81820312 7.8125 11.0625 C7.96332031 10.33160156 8.11414063 9.60070312 8.26953125 8.84765625 C8.51058594 8.23792969 8.75164062 7.62820312 9 7 C12 6 12 6 15 7 C15.33 6.34 15.66 5.68 16 5 C16.70164058 12.34456476 14.50388325 18.18404557 11.95625496 25.02233505 C11.20879397 27.02941037 10.47761533 29.04179602 9.75010681 31.05618286 C8.20174928 35.33436135 6.63326907 39.60500887 5.0625 43.875 C3.24402957 48.82155211 1.43420548 53.77099819 -0.35711861 58.72745132 C-1.07270855 60.69507173 -1.80212812 62.65716592 -2.53245544 64.61935425 C-5.03125808 71.51184033 -6.61841472 77.68805855 -7 85 C-7.2784375 86.2684375 -7.2784375 86.2684375 -7.5625 87.5625 C-8.83950381 94.67723553 -8.44669252 102.51816033 -5 109 C-3.22064325 109.89248886 -3.22064325 109.89248886 -1 110 C1.47062819 109.10349334 1.47062819 109.10349334 4.0078125 107.60546875 C5.47577271 106.79698486 5.47577271 106.79698486 6.97338867 105.97216797 C8.53343628 105.08875732 8.53343628 105.08875732 10.125 104.1875 C11.72468628 103.30022217 11.72468628 103.30022217 13.35668945 102.39501953 C15.53351047 101.18605439 17.70743103 99.971852 19.87841797 98.75244141 C22.71562446 97.15964709 25.56027593 95.58169031 28.41015625 94.01171875 C31.41561294 92.35403923 34.41998592 90.69460309 37.41796875 89.0234375 C38.03937744 88.67724365 38.66078613 88.3310498 39.30102539 87.97436523 C40.81202454 87.10780429 42.28802244 86.18084692 43.7578125 85.24609375 C46.9317423 83.48218503 49.43831553 83.66399203 53 84 C58.38156937 89.38156937 56.91481561 100.40649024 56.94747925 107.65072632 C56.76521702 119.6137712 56.76521702 119.6137712 53.07910156 124.59667969 C47.97054292 128.87068205 41.99809258 131.35182152 35.85498047 133.80224609 C31.81798537 135.49589223 28.28455497 137.7456255 24.625 140.125 C23.17372265 141.02333765 21.71907773 141.91624995 20.26171875 142.8046875 C19.45524902 143.29678711 18.6487793 143.78888672 17.81787109 144.29589844 C10.33967638 148.81832081 2.80879386 153.25350501 -4.71069336 157.70678711 C-11.3473831 161.63829192 -17.978387 165.57826089 -24.5859375 169.55859375 C-25.17408737 169.91271332 -25.76223724 170.26683289 -26.36820984 170.63168335 C-29.13023897 172.29532805 -31.8905142 173.96179523 -34.64868164 175.63183594 C-35.60895264 176.21094727 -36.56922363 176.79005859 -37.55859375 177.38671875 C-38.39704834 177.89420654 -39.23550293 178.40169434 -40.09936523 178.92456055 C-42 180 -42 180 -43 180 C-43.09356332 172.69691626 -43.16419493 165.3939662 -43.20724869 158.09039974 C-43.22793479 154.69733629 -43.25589349 151.30468917 -43.30175781 147.91186523 C-43.35085644 143.99191765 -43.37310134 140.07254517 -43.390625 136.15234375 C-43.41127014 134.96108383 -43.43191528 133.76982391 -43.45318604 132.54246521 C-43.45680227 118.65715062 -38.9298892 106.1815609 -34.140625 93.30078125 C-33.67321756 92.02859991 -33.20642276 90.75619334 -32.7401886 89.48358154 C-31.50491909 86.11651586 -30.2618722 82.7523739 -29.01726151 79.38875198 C-27.7252207 75.89241824 -26.44082214 72.39328074 -25.15600586 68.89428711 C-23.60104825 64.66087501 -22.04552537 60.42767596 -20.48667908 56.19569397 C-16.1605081 44.45077084 -11.87248681 32.692202 -7.60217285 20.92684937 C-6.57628547 18.10047964 -5.5495301 15.27442681 -4.52246094 12.44848633 C-3.01444161 8.29918407 -1.5070019 4.14967189 0 0 Z " fill="#AF9B5A" transform="translate(237,182)"/>
<path d="M0 0 C1 3 1 3 0.1015625 6.55859375 C-1.74970701 14.23591731 -1.47347951 22.20789865 -1.625 30.0625 C-1.66324919 31.7077014 -1.70230477 33.35288426 -1.7421875 34.99804688 C-1.83743071 38.99854457 -1.92173259 42.99913565 -2 47 C-3.32 47 -4.64 47 -6 47 C-6 47.66 -6 48.32 -6 49 C-4.68 49 -3.36 49 -2 49 C-2 54.28 -2 59.56 -2 65 C-13.92323283 64.35038938 -25.57785984 62.7210516 -37.375 60.9375 C-39.28638632 60.65251139 -41.19784428 60.36800282 -43.109375 60.08398438 C-47.74042644 59.394845 -52.37046476 58.69924939 -57 58 C-57 59.65 -57 61.3 -57 63 C-72.84 60.69 -88.68 58.38 -105 56 C-99.37989074 51.50391259 -99.37989074 51.50391259 -95.8046875 49.7734375 C-95.01682861 49.38696045 -94.22896973 49.0004834 -93.41723633 48.60229492 C-92.57829834 48.1972876 -91.73936035 47.79228027 -90.875 47.375 C-89.06298725 46.48472948 -87.25180754 45.59276169 -85.44140625 44.69921875 C-84.52762207 44.24853027 -83.61383789 43.7978418 -82.67236328 43.33349609 C-78.68699523 41.3448171 -74.74731241 39.27402733 -70.8125 37.1875 C-63.3925235 33.25743434 -55.95254615 29.36797681 -48.5 25.5 C-32.2901766 17.08140127 -16.13829487 8.55474274 0 0 Z " fill="#676764" transform="translate(191,291)"/>
<path d="M0 0 C1.10263184 -0.00064453 2.20526367 -0.00128906 3.34130859 -0.00195312 C17.75691203 0.08588603 32.12772212 1.14244556 46.5 2.1875 C45.5 4.1875 45.5 4.1875 42.68481445 5.22956848 C41.4237085 5.60087387 40.16260254 5.97217926 38.86328125 6.35473633 C38.16867798 6.56157547 37.47407471 6.76841461 36.75842285 6.98152161 C34.44524752 7.66830719 32.12895596 8.34390133 29.8125 9.01953125 C28.19535614 9.49726189 26.57841559 9.97568123 24.96166992 10.45475769 C20.68268052 11.72067717 16.4009751 12.97716063 12.11865234 14.23175049 C7.82744527 15.49068726 3.53883091 16.75838757 -0.75 18.02539062 C-7.8214573 20.11311148 -14.89335654 22.19935046 -21.97020435 24.26874065 C-25.72435144 25.36731397 -29.47397044 26.47883603 -33.21818542 27.61083984 C-33.98799492 27.84191028 -34.75780441 28.07298071 -35.55094147 28.31105328 C-37.01345793 28.75041259 -38.474866 29.19348559 -39.93491364 29.64098072 C-45.39116384 31.27363543 -49.87660457 31.70568691 -55.5 31.1875 C-56.90262778 31.0948365 -58.30548863 31.00567068 -59.70849609 30.91894531 C-63.84390529 30.65424245 -67.97437281 30.34335159 -72.10522461 30.015625 C-74.69134258 29.81219774 -77.27817245 29.62068687 -79.86523438 29.4296875 C-81.52870236 29.30020335 -83.19211604 29.17001919 -84.85546875 29.0390625 C-85.61917282 28.98376373 -86.38287689 28.92846497 -87.16972351 28.87149048 C-91.85224391 28.48613064 -96.02238411 27.61983477 -100.5 26.1875 C-100.5 27.8375 -100.5 29.4875 -100.5 31.1875 C-102.5 29.1875 -102.5 29.1875 -102.625 26.75 C-101.5 24.1875 -101.5 24.1875 -97.90307617 22.66238403 C-93.9535588 21.28855019 -89.9615576 20.12282154 -85.92578125 19.02685547 C-85.21569916 18.83295227 -84.50561707 18.63904907 -83.77401733 18.43927002 C-81.45457003 17.80710392 -79.13363437 17.18062838 -76.8125 16.5546875 C-75.18395105 16.11314881 -73.55545254 15.67142404 -71.92700195 15.22952271 C-68.52528158 14.30745021 -65.12277914 13.38833444 -61.71972656 12.47119141 C-57.37397803 11.29962433 -53.03057562 10.11960712 -48.6877594 8.93722343 C-45.32920385 8.02402737 -41.96929423 7.11589635 -38.60897827 6.20920181 C-37.00746364 5.77631986 -35.40640049 5.34176374 -33.80581665 4.90545273 C-31.5633241 4.29485881 -29.31905256 3.69127619 -27.07421875 3.08935547 C-25.16515747 2.57331253 -25.16515747 2.57331253 -23.2175293 2.04684448 C-15.50076506 0.26303641 -7.89273225 -0.00485781 0 0 Z " fill="#7F7453" transform="translate(247.5,41.8125)"/>
<path d="M0 0 C1.19044922 0.05639648 2.38089844 0.11279297 3.60742188 0.17089844 C7.49139046 0.36914061 11.36963787 0.61605153 15.25 0.875 C16.5596875 0.95363281 17.869375 1.03226563 19.21875 1.11328125 C25.71094021 1.54039903 31.76294609 2.11621976 38 4 C38 6.31 38 8.62 38 11 C37.34 11 36.68 11 36 11 C35.67 9.68 35.34 8.36 35 7 C33.99268326 7.26086899 32.98536652 7.52173798 31.94752502 7.79051208 C22.43064566 10.25427237 12.91209537 12.71148047 3.39189243 15.16236782 C-1.5018775 16.42244516 -6.39504059 17.68478243 -11.28686523 18.95239258 C-16.0122513 20.17678326 -20.73916701 21.39509596 -25.46718025 22.60930061 C-27.26613616 23.07241034 -29.06454089 23.53766684 -30.86236382 24.00515556 C-33.39043651 24.66213109 -35.92040361 25.31128108 -38.45092773 25.95874023 C-39.18533081 26.15151047 -39.91973389 26.3442807 -40.6763916 26.54289246 C-49.98218623 28.90231661 -59.18484715 29.19422513 -68.75 29.1875 C-69.95197021 29.18669434 -71.15394043 29.18588867 -72.39233398 29.18505859 C-81.64024156 29.12406367 -90.83726133 28.73039905 -100.0625 28.125 C-101.31063477 28.04660889 -102.55876953 27.96821777 -103.84472656 27.88745117 C-105.00069336 27.80342041 -106.15666016 27.71938965 -107.34765625 27.6328125 C-108.36867432 27.55949707 -109.38969238 27.48618164 -110.44165039 27.41064453 C-113 27 -113 27 -116 25 C-114.08487728 24.49411853 -112.16783078 23.99551609 -110.25 23.5 C-108.64898437 23.08234375 -108.64898437 23.08234375 -107.015625 22.65625 C-104 22 -104 22 -100 22 C-99.67 20.68 -99.34 19.36 -99 18 C-99 18.99 -99 19.98 -99 21 C-98.16078506 20.79590515 -97.32157013 20.5918103 -96.45692444 20.38153076 C-88.47150455 18.43961716 -80.48593565 16.49831771 -72.50020695 14.55767441 C-68.39662392 13.56042459 -64.29309495 12.5629536 -60.18969727 11.56494141 C-56.21515 10.59827695 -52.24045062 9.6322401 -48.26565361 8.66660309 C-46.76409121 8.30170396 -45.26257987 7.93659458 -43.76112556 7.57125092 C-39.5541985 6.54767607 -35.34602588 5.52948997 -31.13650131 4.51665115 C-28.88205684 3.97147885 -26.62963316 3.41836097 -24.37710571 2.86532593 C-22.85848196 2.4973588 -21.33979682 2.12964491 -19.82104492 1.76220703 C-19.12688256 1.58981884 -18.4327202 1.41743065 -17.71752262 1.23981857 C-11.69116638 -0.20593533 -6.15063353 -0.39457643 0 0 Z " fill="#7D7253" transform="translate(149,35)"/>
<path d="M0 0 C1.66611905 -0.042721 3.33382885 -0.04063832 5 0 C6.8433127 1.8433127 6.47482516 4.69892817 6.6875 7.1875 C6.84798828 8.87939453 6.84798828 8.87939453 7.01171875 10.60546875 C7.33988505 24.63542383 2.51394255 37.05523699 -2.25 50 C-2.98146912 52.01800015 -3.71183796 54.03639943 -4.44116211 56.05517578 C-6.60948511 62.04341787 -8.80282883 68.02229564 -11 74 C-11.58437241 75.59464403 -12.16853566 77.18936473 -12.75244141 78.78417969 C-15.46505566 86.1891072 -18.19416629 93.58788353 -20.9296875 100.984375 C-25.57342376 113.54421278 -30.20946019 126.10685525 -34.82083416 138.67861366 C-36.12551594 142.23504334 -37.43239238 145.79062876 -38.74490356 149.34417725 C-39.99100149 152.71803487 -41.23106491 156.09405338 -42.46693039 159.47167206 C-43.14411437 161.31778171 -43.82739468 163.16165161 -44.51089478 165.00543213 C-48.97116428 177.2315878 -51.44384322 188.0274095 -51.51171875 201.078125 C-51.52966995 202.37071228 -51.54762115 203.66329956 -51.56611633 204.99505615 C-51.61307992 208.38803166 -51.64323239 211.7809433 -51.66955566 215.1741333 C-51.69963635 218.65397769 -51.74606996 222.13360273 -51.79101562 225.61328125 C-51.87643575 232.40872798 -51.94404911 239.20424829 -52 246 C-64.66433419 244.29084711 -77.32341692 242.55408968 -89.96630859 240.69238281 C-92.18944612 240.36552477 -94.41307141 240.04211962 -96.63671875 239.71875 C-98.07294669 239.50801705 -99.50914586 239.29708781 -100.9453125 239.0859375 C-102.20875488 238.9007959 -103.47219727 238.7156543 -104.77392578 238.52490234 C-107.2385967 238.12388505 -109.5974568 237.66591003 -112 237 C-112 235.35 -112 233.7 -112 232 C-100.29434718 232.62608111 -88.77495481 234.36264086 -77.1875 236.0625 C-75.22336443 236.34739938 -73.25917207 236.63190757 -71.29492188 236.91601562 C-66.52928175 237.60617213 -61.76443969 238.30160652 -57 239 C-57 233.72 -57 228.44 -57 223 C-58.32 223 -59.64 223 -61 223 C-61 222.34 -61 221.68 -61 221 C-59.68 221 -58.36 221 -57 221 C-57.02094727 220.02353516 -57.04189453 219.04707031 -57.06347656 218.04101562 C-57.13717356 214.33593054 -57.18225828 210.63090641 -57.21972656 206.92529297 C-57.23955268 205.33696519 -57.26662221 203.74870741 -57.30175781 202.16064453 C-57.66343581 185.36389266 -53.8922112 171.52345097 -47.78106689 155.99975586 C-46.49093202 152.69663958 -45.26108628 149.3713732 -44.02734375 146.046875 C-43.52173317 144.68999072 -43.01603534 143.33313896 -42.51025391 141.97631836 C-41.98590337 140.5675825 -41.46165467 139.15880874 -40.9375 137.75 C-40.52621857 136.64496628 -40.52621857 136.64496628 -40.10662842 135.51760864 C-35.70546739 123.68382797 -31.39440597 111.81937561 -27.125 99.9375 C-23.14038623 88.84891415 -19.07421958 77.8059934 -14.73095703 66.85205078 C-1.7882967 34.42441723 -1.7882967 34.42441723 0 0 Z " fill="#FBF27D" transform="translate(246,117)"/>
<path d="M0 0 C1.65 0 3.3 0 5 0 C6.73000282 4.50765675 7.29714534 8.30363543 7.3125 13.125 C7.32925781 14.32382813 7.34601563 15.52265625 7.36328125 16.7578125 C6.74837991 27.83545516 2.19707931 37.88106619 -2.1479187 47.91177368 C-3.966027 52.11036829 -5.75359704 56.32200589 -7.546875 60.53125 C-7.91791855 61.39978104 -8.2889621 62.26831207 -8.67124939 63.16316223 C-12.51669197 72.17627892 -16.23429839 81.24022726 -19.9375 90.3125 C-21.25835843 93.54458037 -22.58007816 96.77630756 -23.90234375 100.0078125 C-24.23300339 100.81602448 -24.56366302 101.62423645 -24.90434265 102.4569397 C-27.42059793 108.60074548 -29.95772832 114.73572747 -32.50390625 120.8671875 C-32.88054916 121.77423935 -33.25719208 122.6812912 -33.64524841 123.61582947 C-35.4500954 127.96067501 -37.25700405 132.30465302 -39.06616211 136.64770508 C-40.71556419 140.61055033 -42.35640645 144.57683332 -43.98974609 148.54632568 C-44.68875735 150.24406321 -45.38973366 151.94099249 -46.09228516 153.63726807 C-47.19414683 156.30329793 -48.28569128 158.97335129 -49.375 161.64453125 C-49.70894775 162.44847824 -50.04289551 163.25242523 -50.38696289 164.08073425 C-53.86982624 172.68468132 -55.30909854 180.51494042 -55.23046875 189.78515625 C-55.23001053 190.68568222 -55.22955231 191.58620819 -55.2290802 192.51402283 C-55.22607968 194.40397472 -55.21826014 196.29392462 -55.20581055 198.18383789 C-55.18752738 201.05819573 -55.18530151 203.93223058 -55.18554688 206.80664062 C-55.18063118 208.65364859 -55.17480264 210.50065439 -55.16796875 212.34765625 C-55.16685593 213.19683121 -55.1657431 214.04600616 -55.16459656 214.9209137 C-55.12441866 220.02965866 -54.72886976 224.94226186 -54 230 C-53.08251732 230.12821388 -53.08251732 230.12821388 -52.14649963 230.25901794 C-45.8035765 231.14624588 -39.46149272 232.03929475 -33.11987305 232.93579102 C-30.75029356 233.26998125 -28.38050129 233.60266622 -26.01049805 233.93383789 C-22.61190166 234.40900215 -19.21409717 234.8895031 -15.81640625 235.37109375 C-14.74975235 235.51904892 -13.68309845 235.66700409 -12.5841217 235.81944275 C-11.60318039 235.95951248 -10.62223907 236.09958221 -9.61157227 236.24389648 C-8.30918358 236.42709694 -8.30918358 236.42709694 -6.98048401 236.61399841 C-5 237 -5 237 -4 238 C-3.95936168 239.66617115 -3.957279 241.33388095 -4 243 C-15.18559845 242.47034211 -26.03567463 240.85504101 -37.0625 239 C-38.73883971 238.72339664 -40.41527169 238.44735193 -42.09179688 238.171875 C-54.93724125 236.05110036 -54.93724125 236.05110036 -60 235 C-60.34817611 224.65379881 -60.66576577 214.30712622 -60.94604492 203.9588623 C-60.99343198 202.23845474 -61.04428848 200.51814347 -61.09570312 198.79785156 C-61.57845878 181.51148576 -57.81635575 167.65045737 -51.18310547 151.8359375 C-49.97920676 148.95015801 -48.80044924 146.05530633 -47.62890625 143.15625 C-42.12120957 129.53065006 -36.50594226 115.95001085 -30.875 102.375 C-30.51854401 101.51543701 -30.16208801 100.65587402 -29.79483032 99.77026367 C-26.0312454 90.69580115 -22.26208412 81.62370904 -18.47793579 72.55780029 C-16.93676051 68.86435139 -15.39820969 65.16981199 -13.85992432 61.47515869 C-13.13155017 59.72782176 -12.40189678 57.98101742 -11.6708374 56.23480225 C-2.30803533 35.32890273 -2.30803533 35.32890273 1.125 13 C1.12886719 12.30132812 1.13273437 11.60265625 1.13671875 10.8828125 C1.12963657 7.12925702 0.89787023 3.64848855 0 0 Z " fill="#FBEB7A" transform="translate(89,104)"/>
<path d="M0 0 C0 6.27 0 12.54 0 19 C-1.32 19 -2.64 19 -4 19 C-4 19.66 -4 20.32 -4 21 C-2.68 21 -1.36 21 0 21 C0 26.28 0 31.56 0 37 C-11.92323283 36.35038938 -23.57785984 34.7210516 -35.375 32.9375 C-37.28638632 32.65251139 -39.19784428 32.36800282 -41.109375 32.08398438 C-45.74042644 31.394845 -50.37046476 30.69924939 -55 30 C-51.8295658 27.48578082 -48.51484577 25.53713904 -44.96875 23.59375 C-44.091903 23.11143921 -44.091903 23.11143921 -43.19734192 22.61938477 C-41.29986266 21.57657862 -39.40003296 20.53814481 -37.5 19.5 C-36.19282125 18.78344246 -34.88577448 18.06664409 -33.57885742 17.34960938 C-31.6077928 16.2683501 -29.6365576 15.18741177 -27.66459656 14.10778809 C-23.67021576 11.92030922 -19.68494531 9.71734628 -15.70703125 7.5 C-14.78535156 6.98759766 -13.86367187 6.47519531 -12.9140625 5.94726562 C-11.21317039 5.00104862 -9.51387882 4.05194727 -7.81640625 3.09960938 C-7.06875 2.68517578 -6.32109375 2.27074219 -5.55078125 1.84375 C-4.90794189 1.48474609 -4.26510254 1.12574219 -3.6027832 0.75585938 C-2 0 -2 0 0 0 Z " fill="#A49257" transform="translate(189,319)"/>
<path d="M0 0 C21.2423699 2.46467386 42.65655114 2.24608855 64 2 C64 3.65 64 5.3 64 7 C61.20604076 8.39697962 58.67690962 8.3475955 55.5625 8.5625 C54.40878906 8.64628906 53.25507812 8.73007813 52.06640625 8.81640625 C41.9425459 9.3508522 31.91538112 8.76735217 21.8125 8.0625 C20.49830078 7.97548828 19.18410156 7.88847656 17.83007812 7.79882812 C11.52250337 7.36941683 5.26104843 6.88307036 -1 6 C-0.9278125 7.1859375 -0.855625 8.371875 -0.78125 9.59375 C-0.17069065 20.07991633 0.13039823 30.49569839 0 41 C-1.65 40.67 -3.3 40.34 -5 40 C-5.33 26.8 -5.66 13.6 -6 0 C-3.43822064 -1.28088968 -2.71858417 -0.73012036 0 0 Z " fill="#FCF67A" transform="translate(36,61)"/>
<path d="M0 0 C0 1.65 0 3.3 0 5 C-1.02134033 5.52319824 -2.04268066 6.04639648 -3.0949707 6.58544922 C-28.47849296 19.58287506 -28.47849296 19.58287506 -53.74316406 32.80908203 C-61.1411466 36.71295036 -68.56795425 40.56235595 -75.98583984 44.42822266 C-79.11247546 46.05865196 -82.23801131 47.69117332 -85.36328125 49.32421875 C-86.92030762 50.13753662 -86.92030762 50.13753662 -88.50878906 50.96728516 C-90.49401448 52.00433847 -92.47905103 53.04175346 -94.46386719 54.07958984 C-98.95713967 56.42596933 -103.45553638 58.75423345 -108 61 C-108.36328125 58.73828125 -108.36328125 58.73828125 -108 56 C-105.48046875 53.98046875 -105.48046875 53.98046875 -102.1875 52.1875 C-101.10855469 51.58292969 -100.02960938 50.97835937 -98.91796875 50.35546875 C-96 49 -96 49 -93 49 C-93 48.34 -93 47.68 -93 47 C-91.9378125 46.55269531 -90.875625 46.10539062 -89.78125 45.64453125 C-88.35401797 45.03420176 -86.92694303 44.42350486 -85.5 43.8125 C-84.80390625 43.52052734 -84.1078125 43.22855469 -83.390625 42.92773438 C-79.04811 41.05804042 -75.15472423 38.89379006 -71.1875 36.33178711 C-66.87363823 33.70543488 -62.28771393 31.58319234 -57.75 29.375 C-55.80542691 28.42829994 -53.86264311 27.47791362 -51.921875 26.5234375 C-51.07206055 26.11013184 -50.22224609 25.69682617 -49.34667969 25.27099609 C-46.986995 24.06760275 -46.986995 24.06760275 -44.98950195 22.48901367 C-42.82747948 20.87087954 -40.69414377 19.7888784 -38.24609375 18.65234375 C-37.31748535 18.21639893 -36.38887695 17.7804541 -35.43212891 17.33129883 C-34.44390137 16.87134521 -33.45567383 16.4113916 -32.4375 15.9375 C-23.72906919 11.83790898 -15.1566669 7.55245275 -6.67749023 2.99780273 C-1.08725764 0 -1.08725764 0 0 0 Z " fill="#B7A368" transform="translate(193,286)"/>
<path d="M0 0 C1.23580811 0.12060791 1.23580811 0.12060791 2.49658203 0.24365234 C5.67637725 0.55362821 8.8562358 0.86294526 12.03613281 1.171875 C14.03975992 1.36671111 16.04331902 1.56224628 18.046875 1.7578125 C29.69407142 2.88860827 41.34533449 3.94048495 53 5 C53.33 19.85 53.66 34.7 54 50 C52.35 50 50.7 50 49 50 C47.36054037 46.72108075 47.87969822 43.09386466 47.90234375 39.4921875 C47.9037587 38.65156769 47.90517365 37.81094788 47.90663147 36.94485474 C47.91223763 34.25486725 47.92479114 31.56496241 47.9375 28.875 C47.94251421 27.05338662 47.94707725 25.23177193 47.95117188 23.41015625 C47.96220906 18.94007223 47.9794778 14.47005014 48 10 C47.2152832 10.01015137 46.43056641 10.02030273 45.62207031 10.03076172 C37.62118925 10.08887663 29.72422623 9.75652855 21.75 9.125 C20.64398438 9.04636719 19.53796875 8.96773437 18.3984375 8.88671875 C12.0871736 8.39950717 6.14081443 7.54168126 0 6 C0 4.02 0 2.04 0 0 Z " fill="#FBF678" transform="translate(147,68)"/>
<path d="M0 0 C1.66611905 -0.042721 3.33382885 -0.04063832 5 0 C6.8433127 1.8433127 6.47482516 4.69892817 6.6875 7.1875 C6.79449219 8.31542969 6.90148437 9.44335938 7.01171875 10.60546875 C7.33532189 25.241476 2.08652483 38.23864614 -2.875 51.75 C-3.60405678 53.76910117 -4.33192945 55.7886303 -5.05859375 57.80859375 C-8.23377378 66.59878256 -11.48394216 75.33958347 -15 84 C-16.32 83.01 -17.64 82.02 -19 81 C-19.33 82.32 -19.66 83.64 -20 85 C-20.33 84.34 -20.66 83.68 -21 83 C-20.05448352 80.23897104 -19.04076913 77.57271591 -17.9375 74.875 C-17.27923772 73.22293905 -16.62169817 71.57058996 -15.96484375 69.91796875 C-15.63210449 69.08700684 -15.29936523 68.25604492 -14.95654297 67.39990234 C-1.82717365 34.71683839 -1.82717365 34.71683839 0 0 Z " fill="#FAED81" transform="translate(246,117)"/>
<path d="M0 0 C0.66 0.33 1.32 0.66 2 1 C2.59355614 3.64860427 2.74209269 6.29197322 3 9 C3.91748268 9.12821388 3.91748268 9.12821388 4.85350037 9.25901794 C11.1964235 10.14624588 17.53850728 11.03929475 23.88012695 11.93579102 C26.24970644 12.26998125 28.61949871 12.60266622 30.98950195 12.93383789 C34.38809834 13.40900215 37.78590283 13.8895031 41.18359375 14.37109375 C42.25024765 14.51904892 43.31690155 14.66700409 44.4158783 14.81944275 C45.39681961 14.95951248 46.37776093 15.09958221 47.38842773 15.24389648 C48.69081642 15.42709694 48.69081642 15.42709694 50.01951599 15.61399841 C52 16 52 16 53 17 C53.04063832 18.66617115 53.042721 20.33388095 53 22 C42.64106944 21.48952004 32.52835155 20.18641613 22.30053711 18.52587891 C19.77975625 18.11972424 17.25638388 17.73348794 14.73242188 17.34765625 C13.11959961 17.08973979 11.50696143 16.83066892 9.89453125 16.5703125 C8.76964043 16.40137985 8.76964043 16.40137985 7.62202454 16.22903442 C4.7172521 15.74165579 2.43647632 15.31673025 0.02709961 13.56835938 C-1.53320701 11.18580417 -1.32408908 9.18297629 -1.25 6.375 C-1.23453125 5.39273437 -1.2190625 4.41046875 -1.203125 3.3984375 C-1 1 -1 1 0 0 Z " fill="#FAEB87" transform="translate(32,325)"/>
<path d="M0 0 C10.53463178 0.6161082 20.88118769 2.02366458 31.3125 3.5625 C32.93939544 3.79922489 34.5663483 4.03555552 36.19335938 4.27148438 C40.12958122 4.84312529 44.0649936 5.42005387 48 6 C48.495 7.485 48.495 7.485 49 9 C52.54220546 10.82170566 56.07765636 11.45269624 60 12 C59.67 12.66 59.34 13.32 59 14 C39.2888825 11.24724049 19.6079047 8.42535481 0 5 C0 3.35 0 1.7 0 0 Z " fill="#F8EE86" transform="translate(134,349)"/>
<path d="M0 0 C0 1.65 0 3.3 0 5 C-7.06097655 7.90692151 -14.35429015 9.76843262 -21.73828125 11.64428711 C-23.89201409 12.19182545 -26.0437402 12.74677317 -28.1953125 13.30273438 C-38.7103578 16 -38.7103578 16 -41 16 C-41 15.01 -41 14.02 -41 13 C-42.32 13 -43.64 13 -45 13 C-45.33 13.66 -45.66 14.32 -46 15 C-47.98 15 -49.96 15 -52 15 C-52 14.34 -52 13.68 -52 13 C-44.75555174 11.1469356 -37.5106343 9.29571451 -30.26538086 7.44580078 C-27.7984743 6.81569621 -25.3316772 6.18516292 -22.86499023 5.55419922 C-19.32824644 4.64959942 -15.79111737 3.74652047 -12.25390625 2.84375 C-11.14350479 2.55939087 -10.03310333 2.27503174 -8.88905334 1.98205566 C-7.86807053 1.72178589 -6.84708771 1.46151611 -5.79516602 1.19335938 C-4.89137711 0.96241577 -3.9875882 0.73147217 -3.05641174 0.49353027 C-1 0 -1 0 0 0 Z " fill="#B4A269" transform="translate(185,41)"/>
<path d="M0 0 C2.04514127 3.06771191 2.24827274 3.65568048 2.22705078 7.10424805 C2.22682419 8.3351844 2.22682419 8.3351844 2.22659302 9.59098816 C2.21627045 10.47232925 2.20594788 11.35367035 2.1953125 12.26171875 C2.1924826 13.16751175 2.18965271 14.07330475 2.18673706 15.00654602 C2.17553964 17.90033158 2.15043589 20.79380794 2.125 23.6875 C2.11496963 25.64908407 2.10584388 27.610673 2.09765625 29.57226562 C2.07560173 34.3816296 2.04107489 39.19076237 2 44 C-1.96 43.67 -5.92 43.34 -10 43 C-9.67 41.68 -9.34 40.36 -9 39 C-7.02 39 -5.04 39 -3 39 C-3 33.72 -3 28.44 -3 23 C-4.32 23 -5.64 23 -7 23 C-7 22.34 -7 21.68 -7 21 C-5.68 20.67 -4.36 20.34 -3 20 C-2.95101562 18.80761719 -2.90203125 17.61523438 -2.8515625 16.38671875 C-2.77652396 14.82028932 -2.7009766 13.25388421 -2.625 11.6875 C-2.5940625 10.90181641 -2.563125 10.11613281 -2.53125 9.30664062 C-2.49257812 8.54931641 -2.45390625 7.79199219 -2.4140625 7.01171875 C-2.3826416 6.31522217 -2.3512207 5.61872559 -2.31884766 4.90112305 C-2 3 -2 3 0 0 Z " fill="#FDF27B" transform="translate(192,317)"/>
<path d="M0 0 C-0.66 1.65 -1.32 3.3 -2 5 C-6.62 5 -11.24 5 -16 5 C-10.06 5.99 -10.06 5.99 -4 7 C-8.76406352 10.88647287 -10.54216337 12.19558333 -16.6875 11.625 C-17.75871094 11.52574219 -18.82992187 11.42648437 -19.93359375 11.32421875 C-23.30825396 10.96740754 -26.64910071 10.53309761 -30 10 C-21.54656835 -1.34539511 -13.64393347 -3.0865959 0 0 Z " fill="#6A6B69" transform="translate(188,302)"/>
<path d="M0 0 C16.04882 1.70405702 32.04132378 3.58823864 48 6 C45.10181338 8.29158942 42.16859456 10.07862366 38.875 11.75 C38.00617188 12.19859375 37.13734375 12.6471875 36.2421875 13.109375 C35.50226563 13.40328125 34.76234375 13.6971875 34 14 C33.34 13.67 32.68 13.34 32 13 C32 12.34 32 11.68 32 11 C32.66 11 33.32 11 34 11 C34 10.01 34 9.02 34 8 C32.35 8.66 30.7 9.32 29 10 C28.67 9.34 28.34 8.68 28 8 C28.33 7.01 28.66 6.02 29 5 C27.62714844 5.01740234 27.62714844 5.01740234 26.2265625 5.03515625 C24.44378906 5.04869141 24.44378906 5.04869141 22.625 5.0625 C21.44164062 5.07410156 20.25828125 5.08570313 19.0390625 5.09765625 C16 5 16 5 14 4 C13.67 4.99 13.34 5.98 13 7 C12.34 6.67 11.68 6.34 11 6 C11.33 5.34 11.66 4.68 12 4 C9.03 3.505 9.03 3.505 6 3 C6.0309375 4.11375 6.0309375 4.11375 6.0625 5.25 C6.00671312 7.70462279 5.6930096 9.66109261 5 12 C4.01 12 3.02 12 2 12 C1.06576355 8.98968256 0.95550089 8.13349732 2 5 C1.34 4.34 0.68 3.68 0 3 C0 2.01 0 1.02 0 0 Z " fill="#97885D" transform="translate(144,280)"/>
<path d="M0 0 C-2.7796469 1.85309794 -5.58202315 3.50128708 -8.5 5.125 C-9.93859375 5.93324219 -9.93859375 5.93324219 -11.40625 6.7578125 C-14 8 -14 8 -17 8 C-17 8.66 -17 9.32 -17 10 C-17.66 10 -18.32 10 -19 10 C-19 10.66 -19 11.32 -19 12 C-20.2065625 12.3403125 -20.2065625 12.3403125 -21.4375 12.6875 C-26.66333431 14.61280738 -32.02651676 17.02651676 -36 21 C-39.5 22.5 -39.5 22.5 -43 24 C-43.66 24.66 -44.32 25.32 -45 26 C-46.52056618 26.59834554 -48.06612088 27.13506656 -49.625 27.625 C-50.85089844 28.01558594 -50.85089844 28.01558594 -52.1015625 28.4140625 C-52.72804687 28.60742188 -53.35453125 28.80078125 -54 29 C-54.66 28.34 -55.32 27.68 -56 27 C-55.30664551 26.6282666 -54.61329102 26.2565332 -53.89892578 25.87353516 C-36.74714007 16.67770051 -36.74714007 16.67770051 -19.6875 7.3125 C-18.61556396 6.71719482 -18.61556396 6.71719482 -17.52197266 6.10986328 C-16.85858887 5.73974121 -16.19520508 5.36961914 -15.51171875 4.98828125 C-14.90271729 4.64853271 -14.29371582 4.30878418 -13.66625977 3.95874023 C-12.17016174 3.09790845 -10.71096044 2.17369259 -9.2578125 1.2421875 C-6.1288186 -0.47930049 -3.50478693 -0.20616394 0 0 Z " fill="#958659" transform="translate(290,266)"/>
<path d="M0 0 C-3.48885495 2.91071455 -7.37391568 4.69774627 -11.484375 6.546875 C-12.58425751 7.04831024 -12.58425751 7.04831024 -13.70635986 7.55987549 C-16.05220072 8.62780415 -18.40108357 9.6888561 -20.75 10.75 C-22.28274314 11.44749698 -23.815297 12.14541005 -25.34765625 12.84375 C-29.14042876 14.56975978 -32.94021877 16.2796349 -36.74291992 17.98364258 C-39.01084033 19.00488137 -41.27213705 20.03986013 -43.53320312 21.07617188 C-44.96464015 21.72310694 -46.39627229 22.36961049 -47.828125 23.015625 C-48.47883972 23.31764832 -49.12955444 23.61967163 -49.79998779 23.93084717 C-53.34199638 25.51317374 -56.11213127 26.35344261 -60 26 C-57.10256727 23.68129566 -54.2415016 22.04780567 -50.87109375 20.50390625 C-49.84830322 20.03299561 -48.8255127 19.56208496 -47.77172852 19.0769043 C-46.67143311 18.57715088 -45.5711377 18.07739746 -44.4375 17.5625 C-43.30175537 17.04405518 -42.16601074 16.52561035 -40.99584961 15.99145508 C-38.58270497 14.8923484 -36.16864179 13.79556973 -33.75292969 12.70214844 C-30.5898235 11.26974776 -27.43297769 9.82404925 -24.27726746 8.3754425 C-21.20970775 6.97054933 -18.13575266 5.57989538 -15.0625 4.1875 C-13.90226318 3.65390869 -12.74202637 3.12031738 -11.54663086 2.57055664 C-9.93220093 1.84533813 -9.93220093 1.84533813 -8.28515625 1.10546875 C-6.86021851 0.45807739 -6.86021851 0.45807739 -5.40649414 -0.20239258 C-3 -1 -3 -1 0 0 Z " fill="#918355" transform="translate(139,249)"/>
<path d="M0 0 C1.19520602 3.58561805 0.42357556 5.65447154 -0.453125 9.23828125 C-1.48155808 14.43186832 -1.69003961 19.72251646 -2 25 C-4.97 24.67 -7.94 24.34 -11 24 C-8.49183541 21.49183541 -7.09162264 20.38589981 -4 19 C-4.185625 18.030625 -4.37125 17.06125 -4.5625 16.0625 C-4.706875 15.051875 -4.85125 14.04125 -5 13 C-4.67 12.67 -4.34 12.34 -4 12 C-4.71027344 11.87882812 -5.42054688 11.75765625 -6.15234375 11.6328125 C-7.53099609 11.38144531 -7.53099609 11.38144531 -8.9375 11.125 C-9.85402344 10.96257812 -10.77054688 10.80015625 -11.71484375 10.6328125 C-12.84599609 10.31957031 -12.84599609 10.31957031 -14 10 C-14.33 9.34 -14.66 8.68 -15 8 C-10.05 5.36 -5.1 2.72 0 0 Z " fill="#6E6C3E" transform="translate(191,291)"/>
<path d="M0 0 C0.66 0.33 1.32 0.66 2 1 C-0.475 2.485 -0.475 2.485 -3 4 C-0.79248152 4.33868777 1.41605911 4.67071689 3.625 5 C4.85476562 5.185625 6.08453125 5.37125 7.3515625 5.5625 C12.67536901 6.20090078 16.24316337 6.46043274 21 4 C21.99 4.33 22.98 4.66 24 5 C23.01 5.66 22.02 6.32 21 7 C25.95 7.99 25.95 7.99 31 9 C30.67 9.66 30.34 10.32 30 11 C23.25 11.125 23.25 11.125 21 10 C17.04437178 9.74202425 14.40340307 9.90559811 11 12 C11 11.01 11 10.02 11 9 C8.95928485 8.66089006 6.91737379 8.32897296 4.875 8 C3.73804688 7.814375 2.60109375 7.62875 1.4296875 7.4375 C-4.73677864 6.65088929 -8.58474576 6.72566023 -14 10 C-14.33 10.66 -14.66 11.32 -15 12 C-16.70703125 12.88671875 -16.70703125 12.88671875 -18.8125 13.6875 C-19.49957031 13.95949219 -20.18664062 14.23148437 -20.89453125 14.51171875 C-23.31142349 15.07222252 -24.64807224 14.66780857 -27 14 C-23.19670957 11.97767565 -19.38812416 9.96582669 -15.57421875 7.96362305 C-14.27680215 7.28062681 -12.98089248 6.59476017 -11.68652344 5.90600586 C-9.82873361 4.91807704 -7.96581835 3.94050361 -6.1015625 2.96484375 C-4.98088379 2.3730835 -3.86020508 1.78132324 -2.70556641 1.17163086 C-1.81272949 0.78499268 -0.91989258 0.39835449 0 0 Z " fill="#5D5E5B" transform="translate(149,313)"/>
<path d="M0 0 C-5.42812572 4.42820783 -7.90550718 5.11703867 -14.8125 4.625 C-15.88081055 4.55925781 -15.88081055 4.55925781 -16.97070312 4.4921875 C-20.72045157 4.24243552 -24.33733766 3.84910443 -28 3 C-20.25296372 -5.11594277 -10.07505905 -1.74405968 0 0 Z " fill="#6B6B68" transform="translate(173,315)"/>
<path d="M0 0 C7.26 0.33 14.52 0.66 22 1 C22 1.33 22 1.66 22 2 C20.46279297 2.05607422 20.46279297 2.05607422 18.89453125 2.11328125 C17.53381938 2.17897079 16.17314389 2.24541709 14.8125 2.3125 C14.13896484 2.33505859 13.46542969 2.35761719 12.77148438 2.38085938 C8.42953583 2.61384198 5.39613331 3.21543092 2 6 C1.4434446 10.37293525 1.83375253 13.20906693 4 17 C4 17.99 4 18.98 4 20 C3.34 20 2.68 20 2 20 C2.2165625 21.24716797 2.2165625 21.24716797 2.4375 22.51953125 C2.623125 23.60621094 2.80875 24.69289063 3 25.8125 C3.185625 26.89144531 3.37125 27.97039062 3.5625 29.08203125 C4.06525324 32.43521583 4 35.6047849 4 39 C2.35 39 0.7 39 -1 39 C-1.66 37.68 -2.32 36.36 -3 35 C-1.68 35 -0.36 35 1 35 C0.9278125 34.06542969 0.855625 33.13085938 0.78125 32.16796875 C0.02163476 21.41730303 -0.07926058 10.77943843 0 0 Z " fill="#C8B34F" transform="translate(35,67)"/>
<path d="M0 0 C0.33 0 0.66 0 1 0 C1.22245393 1.60226955 1.42746669 3.20696767 1.625 4.8125 C1.74101562 5.70582031 1.85703125 6.59914063 1.9765625 7.51953125 C2 10 2 10 0 13 C-0.60792177 20.13414078 -0.27666035 27.16374062 1.0625 34.1875 C2.6564232 43.08226021 1.66069646 52.0448845 1 61 C2.98 61.33 4.96 61.66 7 62 C7 62.33 7 62.66 7 63 C4.36 63 1.72 63 -1 63 C-2.75212731 10.93479153 -2.75212731 10.93479153 0 0 Z " fill="#F7EC94" transform="translate(30,276)"/>
<path d="M0 0 C0.33 1.32 0.66 2.64 1 4 C-7.261959 8.59225513 -7.261959 8.59225513 -12 8 C-12.33 8.99 -12.66 9.98 -13 11 C-14.65 11 -16.3 11 -18 11 C-18.33 9.68 -18.66 8.36 -19 7 C-16.69 5.68 -14.38 4.36 -12 3 C-12.66 2.01 -13.32 1.02 -14 0 C-9.02936879 -0.91297308 -4.97063121 -0.91297308 0 0 Z " fill="#686868" transform="translate(123,339)"/>
<path d="M0 0 C0.66 0.33 1.32 0.66 2 1 C2.103125 2.27875 2.20625 3.5575 2.3125 4.875 C2.47814856 7.03695671 2.47814856 7.03695671 3 9 C5.23197129 10.98922073 5.23197129 10.98922073 8 12 C8.6276123 12.33708984 9.25522461 12.67417969 9.90185547 13.02148438 C12.08298106 14.03870004 13.88255218 14.44336909 16.2578125 14.78125 C17.04800781 14.90113281 17.83820312 15.02101563 18.65234375 15.14453125 C20.30843592 15.38261085 21.9646881 15.61958 23.62109375 15.85546875 C24.40871094 15.97535156 25.19632813 16.09523438 26.0078125 16.21875 C26.72598145 16.32123047 27.44415039 16.42371094 28.18408203 16.52929688 C30 17 30 17 32 19 C24.54606981 18.62406265 17.23381306 17.84712946 9.875 16.625 C9.14095947 16.51115967 8.40691895 16.39731934 7.65063477 16.2800293 C4.83917293 15.78912874 2.45291189 15.28642649 0.0234375 13.75 C-1.44599681 11.2373795 -1.32617863 9.26217005 -1.25 6.375 C-1.23453125 5.39273437 -1.2190625 4.41046875 -1.203125 3.3984375 C-1 1 -1 1 0 0 Z " fill="#FCEB7C" transform="translate(32,325)"/>
<path d="M0 0 C1.65 0.33 3.3 0.66 5 1 C6.24810335 4.78213135 6.03501717 8.46799294 5.87890625 12.390625 C5.85529526 13.09523865 5.83168427 13.79985229 5.80735779 14.52581787 C5.73103023 16.7674328 5.64687421 19.00867496 5.5625 21.25 C5.5092483 22.7734195 5.45650812 24.29685698 5.40429688 25.8203125 C5.27545752 29.54710155 5.13959768 33.27359667 5 37 C0.05 39.475 0.05 39.475 -5 42 C-4.67 40.68 -4.34 39.36 -4 38 C-2.33927151 37.31867549 -0.672233 36.65257873 1 36 C2.46804363 34.14853436 2.46804363 34.14853436 3 32 C2.67 31.01 2.34 30.02 2 29 C1.3125 26 1.3125 26 1 23 C1.66 22.01 2.32 21.02 3 20 C3.52515279 15.24692222 3.03311925 10.64903664 2 6 C1.9629721 4.3337447 1.95240038 2.66598681 2 1 C1.34 0.67 0.68 0.34 0 0 Z " fill="#A29266" transform="translate(287,267)"/>
<path d="M0 0 C1.23580811 0.12060791 1.23580811 0.12060791 2.49658203 0.24365234 C19.32628729 1.88426191 36.15725997 3.49776191 53 5 C53 6.65 53 8.3 53 10 C52.505 8.02 52.505 8.02 52 6 C51.11199707 5.970271 51.11199707 5.970271 50.20605469 5.93994141 C36.39984119 5.45845304 22.72778374 4.54869849 9 3 C9 4.32 9 5.64 9 7 C6.03 6.67 3.06 6.34 0 6 C0 4.02 0 2.04 0 0 Z " fill="#FCF587" transform="translate(147,68)"/>
<path d="M0 0 C2.64 0.66 5.28 1.32 8 2 C8 2.66 8 3.32 8 4 C0.7256854 4.95916595 -6.41623171 5.19265627 -13.75 5.1875 C-14.95197021 5.18669434 -16.15394043 5.18588867 -17.39233398 5.18505859 C-26.64024156 5.12406367 -35.83726133 4.73039905 -45.0625 4.125 C-46.31063477 4.04660889 -47.55876953 3.96821777 -48.84472656 3.88745117 C-50.00069336 3.80342041 -51.15666016 3.71938965 -52.34765625 3.6328125 C-53.36867432 3.55949707 -54.38969238 3.48618164 -55.44165039 3.41064453 C-58 3 -58 3 -61 1 C-56.46083081 1.11796454 -51.92189358 1.24219113 -47.38305664 1.37231445 C-45.83785711 1.41571985 -44.29260786 1.45739071 -42.74731445 1.49731445 C-40.53060904 1.55488199 -38.3141552 1.61861424 -36.09765625 1.68359375 C-35.05545677 1.70866249 -35.05545677 1.70866249 -33.99220276 1.73423767 C-29.11387171 1.88612829 -29.11387171 1.88612829 -28 3 C-23.69417174 3.28106485 -19.37641053 3.23180744 -15.0625 3.25 C-13.84369141 3.270625 -12.62488281 3.29125 -11.36914062 3.3125 C-9.62600586 3.32023437 -9.62600586 3.32023437 -7.84765625 3.328125 C-6.2390271 3.34214355 -6.2390271 3.34214355 -4.59790039 3.35644531 C-3.74059326 3.23881836 -2.88328613 3.12119141 -2 3 C-1.34 2.01 -0.68 1.02 0 0 Z " fill="#827937" transform="translate(94,59)"/>
<path d="M0 0 C0.33 0 0.66 0 1 0 C1 4.29 1 8.58 1 13 C-8.68637712 12.3957694 -18.20314794 11.43526458 -27.8125 10.0625 C-29.07642578 9.89298828 -30.34035156 9.72347656 -31.64257812 9.54882812 C-32.83947266 9.37931641 -34.03636719 9.20980469 -35.26953125 9.03515625 C-36.34823486 8.8844165 -37.42693848 8.73367676 -38.53833008 8.57836914 C-39.35068115 8.38750732 -40.16303223 8.19664551 -41 8 C-41.33 7.34 -41.66 6.68 -42 6 C-35.84765625 5.90234375 -35.84765625 5.90234375 -34 6 C-33.67 6.33 -33.34 6.66 -33 7 C-31.21284356 7.20956883 -29.41956231 7.36811616 -27.625 7.5 C-24.47979491 7.73236344 -22.00372093 7.99875969 -19 9 C-17.66474283 9.07973476 -16.32587917 9.10771338 -14.98828125 9.09765625 C-14.23095703 9.09443359 -13.47363281 9.09121094 -12.69335938 9.08789062 C-11.90767578 9.07951172 -11.12199219 9.07113281 -10.3125 9.0625 C-9.51521484 9.05798828 -8.71792969 9.05347656 -7.89648438 9.04882812 C-5.93095743 9.0370585 -3.96546915 9.01912348 -2 9 C-1.855625 7.700625 -1.71125 6.40125 -1.5625 5.0625 C-1.125 1.125 -1.125 1.125 0 0 Z " fill="#A59645" transform="translate(188,343)"/>
<path d="M0 0 C1.15886719 0.08765625 2.31773437 0.1753125 3.51171875 0.265625 C4.43597656 0.42546875 5.36023438 0.5853125 6.3125 0.75 C6.6425 1.41 6.9725 2.07 7.3125 2.75 C2.36155476 5.98327036 -0.61103292 7.40105004 -6.6875 6.75 C-9.08066109 6.1973718 -11.34783566 5.51397203 -13.6875 4.75 C-12.6975 4.42 -11.7075 4.09 -10.6875 3.75 C-10.6875 3.09 -10.6875 2.43 -10.6875 1.75 C-7.05358945 -0.58288085 -4.22723923 -0.35976504 0 0 Z " fill="#6C6B6A" transform="translate(146.6875,335.25)"/>
<path d="M0 0 C0.66 0.33 1.32 0.66 2 1 C1.01 1.33 0.02 1.66 -1 2 C-1 2.99 -1 3.98 -1 5 C2.3 5.66 5.6 6.32 9 7 C9 7.33 9 7.66 9 8 C4.71 8 0.42 8 -4 8 C-1.03 8.495 -1.03 8.495 2 9 C2 9.33 2 9.66 2 10 C-0.29225435 9.88628503 -2.58382388 9.75869036 -4.875 9.625 C-6.15117188 9.55539062 -7.42734375 9.48578125 -8.7421875 9.4140625 C-12 9 -12 9 -14 7 C-13.67 6.34 -13.34 5.68 -13 5 C-13.99 4.67 -14.98 4.34 -16 4 C-15.43152344 4.04640625 -14.86304687 4.0928125 -14.27734375 4.140625 C-8.15642091 4.42674493 -5.13505828 3.24871034 0 0 Z " fill="#5E5E5E" transform="translate(124,342)"/>
<path d="M0 0 C0 0.66 0 1.32 0 2 C-6.60346055 6.03544811 -11.17947623 6.19117364 -18.69140625 4.578125 C-19.45324219 4.38734375 -20.21507812 4.1965625 -21 4 C-15.14677957 -2.12156292 -7.8395094 -1.95987735 0 0 Z " fill="#6A6B68" transform="translate(189,317)"/>
<path d="M0 0 C1.83647742 0.06392801 3.67070892 0.20055729 5.5 0.375 C6.5003125 0.46523438 7.500625 0.55546875 8.53125 0.6484375 C11 1 11 1 12 2 C12.04063832 3.66617115 12.042721 5.33388095 12 7 C9.72844502 6.91297874 7.45769257 6.80480478 5.1875 6.6875 C3.92292969 6.62949219 2.65835938 6.57148438 1.35546875 6.51171875 C-2 6 -2 6 -3.94921875 4.45703125 C-4.29597656 3.97621094 -4.64273438 3.49539063 -5 3 C-4.360625 2.690625 -3.72125 2.38125 -3.0625 2.0625 C-1.06389179 1.1654837 -1.06389179 1.1654837 0 0 Z " fill="#F4E386" transform="translate(73,340)"/>
<path d="M0 0 C0 0.66 0 1.32 0 2 C2.64 2.66 5.28 3.32 8 4 C8 5.32 8 6.64 8 8 C5.77057252 7.85820962 3.54146372 7.71140302 1.3125 7.5625 C0.07113281 7.48128906 -1.17023438 7.40007812 -2.44921875 7.31640625 C-5.38180337 7.05508683 -8.13441617 6.65201621 -11 6 C-3.8 0 -3.8 0 0 0 Z " fill="#605D56" transform="translate(97,341)"/>
<path d="M0 0 C0.07505712 3.94684991 0.12902215 7.89341427 0.16479492 11.84082031 C0.18701479 13.83152905 0.22516595 15.82203968 0.26367188 17.8125 C0.32124246 25.41181664 -0.21174733 31.89367547 -3 39 C-3.66 38.67 -4.32 38.34 -5 38 C-5.4140625 35.49609375 -5.4140625 35.49609375 -5.625 32.4375 C-5.69976562 31.42558594 -5.77453125 30.41367188 -5.8515625 29.37109375 C-5.92503906 28.19740234 -5.92503906 28.19740234 -6 27 C-4.02 27.99 -4.02 27.99 -2 29 C-2 20.42 -2 11.84 -2 3 C-3.32 2.34 -4.64 1.68 -6 1 C-3 0 -3 0 0 0 Z " fill="#A49365" transform="translate(296,45)"/>
<path d="M0 0 C2.31 0 4.62 0 7 0 C7 1.98 7 3.96 7 6 C7.33 5.01 7.66 4.02 8 3 C10.0625 2.3125 10.0625 2.3125 12 2 C11.67 3.98 11.34 5.96 11 8 C10.01 8 9.02 8 8 8 C8.33 9.65 8.66 11.3 9 13 C7.35 13 5.7 13 4 13 C3.67 11.35 3.34 9.7 3 8 C3.99 7.67 4.98 7.34 6 7 C3.60490662 4.10067643 1.68754757 3.49831724 -2 3 C-1.34 2.67 -0.68 2.34 0 2 C0 1.34 0 0.68 0 0 Z " fill="#C5935C" transform="translate(242,104)"/>
<path d="M0 0 C0.66 0 1.32 0 2 0 C2.33 3.96 2.66 7.92 3 12 C3.66 11.01 4.32 10.02 5 9 C5.18451025 18.41002278 5.18451025 18.41002278 4 23 C3.67 21.68 3.34 20.36 3 19 C2.01 19 1.02 19 0 19 C0 20.98 0 22.96 0 25 C-0.66 25.33 -1.32 25.66 -2 26 C-1.855625 24.87722656 -1.71125 23.75445312 -1.5625 22.59765625 C-0.61489846 15.02951241 0.27792773 7.64301253 0 0 Z " fill="#FAF598" transform="translate(247,123)"/>
<path d="M0 0 C1.65 0 3.3 0 5 0 C6.59138085 4.17737474 7.21278058 7.53160785 7 12 C6.01 12.33 5.02 12.66 4 13 C4 13.66 4 14.32 4 15 C3.34 15 2.68 15 2 15 C1.34 10.05 0.68 5.1 0 0 Z " fill="#FBEC83" transform="translate(89,104)"/>
<path d="M0 0 C1.59593073 4.78779219 0.1953234 9.21870642 -1 14 C-1 14.99 -1 15.98 -1 17 C-1.66 17 -2.32 17 -3 17 C-3 29.21 -3 41.42 -3 54 C-3.33 54 -3.66 54 -4 54 C-4.07489393 48.52314141 -4.12894902 43.04658955 -4.16479492 37.56933594 C-4.17975905 35.71121011 -4.20013773 33.85311883 -4.22631836 31.99511719 C-4.54079361 9.08158722 -4.54079361 9.08158722 0 0 Z " fill="#C7B34C" transform="translate(37,270)"/>
<path d="M0 0 C2 0.0625 2 0.0625 4 1 C5.90165575 4.73614026 6.23794966 7.79990822 6.1953125 11.95703125 C6.18564453 13.62475586 6.18564453 13.62475586 6.17578125 15.32617188 C6.15902344 16.47666016 6.14226562 17.62714844 6.125 18.8125 C6.11597656 19.98232422 6.10695312 21.15214844 6.09765625 22.35742188 C6.07413732 25.23849053 6.04126852 28.11913989 6 31 C5.34 31.33 4.68 31.66 4 32 C4 22.43 4 12.86 4 3 C1.03 2.505 1.03 2.505 -2 2 C-1.34 1.34 -0.68 0.68 0 0 Z " fill="#B4A46F" transform="translate(139,249)"/>
<path d="M0 0 C1.25127906 3.54667178 0.72285053 5.72253438 -0.4375 9.25 C-0.72496094 10.14203125 -1.01242188 11.0340625 -1.30859375 11.953125 C-1.53675781 12.62859375 -1.76492187 13.3040625 -2 14 C-1.34 14 -0.68 14 0 14 C0 14.66 0 15.32 0 16 C-0.8971875 16.2475 -0.8971875 16.2475 -1.8125 16.5 C-5.21289331 18.83169827 -5.96345039 22.11293897 -7 26 C-7.144375 27.27875 -7.28875 28.5575 -7.4375 29.875 C-7.623125 30.90625 -7.80875 31.9375 -8 33 C-10.03515625 34.1953125 -10.03515625 34.1953125 -12 35 C-10.11723886 28.12957337 -7.73740552 21.50219642 -5.20605469 14.8515625 C-3.33927338 9.93922728 -1.60842046 5.00397476 0 0 Z " fill="#F5EB92" transform="translate(241,157)"/>
<path d="M0 0 C1.5625 1.125 1.5625 1.125 3 3 C2.625 6 2.625 6 2 9 C2.33 9.99 2.66 10.98 3 12 C2.5625 14.1875 2.5625 14.1875 2 16 C1.34 16 0.68 16 0 16 C-0.268125 16.61875 -0.53625 17.2375 -0.8125 17.875 C-2 20 -2 20 -5 22 C-4.72285156 20.91460937 -4.44570312 19.82921875 -4.16015625 18.7109375 C-3.7941437 17.26565719 -3.4282654 15.82034288 -3.0625 14.375 C-2.88009766 13.66214844 -2.69769531 12.94929687 -2.50976562 12.21484375 C-1.48683201 8.16030687 -0.62042633 4.14052941 0 0 Z " fill="#AE9D4D" transform="translate(252,135)"/>
<path d="M0 0 C0.66 0 1.32 0 2 0 C1.99476318 1.21582764 1.98952637 2.43165527 1.98413086 3.68432617 C1.96600376 8.20368715 1.95453979 12.72304492 1.94506836 17.24243164 C1.94004578 19.19686423 1.93322651 21.15129306 1.92456055 23.10571289 C1.91240411 25.91814093 1.90675087 28.73051919 1.90234375 31.54296875 C1.89718246 32.41398727 1.89202118 33.2850058 1.88670349 34.18241882 C1.88632846 38.25625539 1.97178467 42.02589439 3 46 C0.525 46.495 0.525 46.495 -2 47 C-2.33 46.34 -2.66 45.68 -3 45 C-1.68 45 -0.36 45 1 45 C0.67 44.34 0.34 43.68 0 43 C-0.08918777 41.61090696 -0.11759541 40.21763093 -0.11352539 38.82568359 C-0.11341209 37.53457169 -0.11341209 37.53457169 -0.11329651 36.21737671 C-0.10813522 35.28712677 -0.10297394 34.35687683 -0.09765625 33.3984375 C-0.09553383 31.97103745 -0.09553383 31.97103745 -0.09336853 30.51480103 C-0.08776012 27.46816903 -0.07520619 24.42160987 -0.0625 21.375 C-0.05748608 19.31250106 -0.05292299 17.25000097 -0.04882812 15.1875 C-0.03778796 10.12497183 -0.02051767 5.06249827 0 0 Z " fill="#B7A44E" transform="translate(200,73)"/>
<path d="M0 0 C2.97 0.495 2.97 0.495 6 1 C3.03 8.92 3.03 8.92 0 17 C-0.66 17 -1.32 17 -2 17 C-1.85941524 14.54126232 -1.71277001 12.08314825 -1.5625 9.625 C-1.52318359 8.92632812 -1.48386719 8.22765625 -1.44335938 7.5078125 C-1.11328125 2.2265625 -1.11328125 2.2265625 0 0 Z " fill="#BC9E5C" transform="translate(131,81)"/>
<path d="M0 0 C1 2 1 2 0.10375977 4.98095703 C-0.35919451 6.24280927 -0.8305783 7.50158841 -1.30859375 8.7578125 C-1.67695091 9.75238968 -1.67695091 9.75238968 -2.05274963 10.76705933 C-2.84055246 12.88910156 -3.63887781 15.00700888 -4.4375 17.125 C-4.97270168 18.56093852 -5.50721585 19.99713349 -6.04101562 21.43359375 C-7.35271094 24.95875706 -8.67385818 28.48024726 -10 32 C-10.66 32 -11.32 32 -12 32 C-11.72736328 31.19949219 -11.72736328 31.19949219 -11.44921875 30.3828125 C-6.76263404 18.67833736 -6.76263404 18.67833736 -5.25 6.5 C-5 4 -5 4 -2.5 1.6875 C-1.675 1.130625 -0.85 0.57375 0 0 Z " fill="#A39362" transform="translate(273,135)"/>
<path d="M0 0 C14.0373272 -0.1044444 28.00332032 -0.18400916 42 1 C42 1.33 42 1.66 42 2 C36.72 2 31.44 2 26 2 C26 2.66 26 3.32 26 4 C24.02 4.99 24.02 4.99 22 6 C22 5.34 22 4.68 22 4 C21.34 3.67 20.68 3.34 20 3 C20.33 2.67 20.66 2.34 21 2 C14.07 1.67 7.14 1.34 0 1 C0 0.67 0 0.34 0 0 Z " fill="#6D674C" transform="translate(236,42)"/>
<path d="M0 0 C3 3.625 3 3.625 3 7 C2.34 7 1.68 7 1 7 C1.144375 7.83144531 1.28875 8.66289063 1.4375 9.51953125 C1.623125 10.60621094 1.80875 11.69289063 2 12.8125 C2.185625 13.89144531 2.37125 14.97039062 2.5625 16.08203125 C3.06525324 19.43521583 3 22.6047849 3 26 C1.35 26 -0.3 26 -2 26 C-2.66 24.68 -3.32 23.36 -4 22 C-2.68 22 -1.36 22 0 22 C-0.08378906 20.83082031 -0.16757812 19.66164063 -0.25390625 18.45703125 C-0.35711652 16.90887717 -0.4599619 15.36069874 -0.5625 13.8125 C-0.61857422 13.04357422 -0.67464844 12.27464844 -0.73242188 11.48242188 C-0.99141557 7.45938647 -1.06573607 3.93927628 0 0 Z " fill="#CCB357" transform="translate(36,80)"/>
<path d="M0 0 C6.6 0.33 13.2 0.66 20 1 C18.02 1.99 18.02 1.99 16 3 C15.67 3.33 15.34 3.66 15 4 C12.46950598 4.07313567 9.96695163 4.09247527 7.4375 4.0625 C6.72658203 4.05798828 6.01566406 4.05347656 5.28320312 4.04882812 C3.52209987 4.03700864 1.76103964 4.01907263 0 4 C0 2.68 0 1.36 0 0 Z " fill="#FEFA6E" transform="translate(156,71)"/>
<path d="M0 0 C0.66 0.33 1.32 0.66 2 1 C-0.475 2.485 -0.475 2.485 -3 4 C-2.67 4.66 -2.34 5.32 -2 6 C-3.2375 6.28875 -4.475 6.5775 -5.75 6.875 C-8.71156344 7.61932214 -11.40246951 8.33758049 -14 10 C-14.33 10.66 -14.66 11.32 -15 12 C-16.70703125 12.88671875 -16.70703125 12.88671875 -18.8125 13.6875 C-19.49957031 13.95949219 -20.18664062 14.23148437 -20.89453125 14.51171875 C-23.31142349 15.07222252 -24.64807224 14.66780857 -27 14 C-23.19670957 11.97767565 -19.38812416 9.96582669 -15.57421875 7.96362305 C-14.27680215 7.28062681 -12.98089248 6.59476017 -11.68652344 5.90600586 C-9.82873361 4.91807704 -7.96581835 3.94050361 -6.1015625 2.96484375 C-4.98088379 2.3730835 -3.86020508 1.78132324 -2.70556641 1.17163086 C-1.81272949 0.78499268 -0.91989258 0.39835449 0 0 Z " fill="#5F5843" transform="translate(149,313)"/>
<path d="M0 0 C-1.32 1.32 -2.64 2.64 -4 4 C-3.01 5.32 -2.02 6.64 -1 8 C-5.82360189 8.19294408 -9.49646738 7.75747614 -14 6 C-5.00826446 -1.66942149 -5.00826446 -1.66942149 0 0 Z " fill="#5E5E4E" transform="translate(190,294)"/>
<path d="M0 0 C0.99 0.33 1.98 0.66 3 1 C0.36 7.6 -2.28 14.2 -5 21 C-7.625 15.75 -7.625 15.75 -7 12 C-5.78126065 10.49261186 -4.55611257 8.98736781 -3.24609375 7.55859375 C-1.41727527 5.27113741 -0.7335535 2.80084064 0 0 Z " fill="#B9A45F" transform="translate(93,183)"/>
<path d="M0 0 C3.36932864 4.49243819 3.37007917 6.95052266 3.1875 12.25 C3.17396484 12.99507812 3.16042969 13.74015625 3.14648438 14.5078125 C3.11127204 16.33885416 3.05746851 18.16952169 3 20 C1.68 20 0.36 20 -1 20 C-0.67 13.4 -0.34 6.8 0 0 Z " fill="#FDED70" transform="translate(33,82)"/>
<path d="M0 0 C2.23980981 3.35971471 1.97999134 4.79420666 1.88671875 8.67578125 C2.15467451 14.17349425 3.65976838 19.39172205 7.1875 23.625 C7.785625 24.07875 8.38375 24.5325 9 25 C7.68 25 6.36 25 5 25 C5 24.34 5 23.68 5 23 C2.525 22.01 2.525 22.01 0 21 C-0.7938642 13.78194245 -1.07875823 7.19172157 0 0 Z " fill="#A99A66" transform="translate(227,270)"/>
<path d="M0 0 C0.99 0 1.98 0 3 0 C2.56744475 5.40694067 1.41778487 8.75366122 -2 13 C-2.66 13 -3.32 13 -4 13 C-3.67 10.03 -3.34 7.06 -3 4 C-2.34 4 -1.68 4 -1 4 C-0.67 2.68 -0.34 1.36 0 0 Z " fill="#FBEA6C" transform="translate(91,130)"/>
<path d="M0 0 C0.66 0.33 1.32 0.66 2 1 C1.67 1.66 1.34 2.32 1 3 C-0.7325 3.4640625 -0.7325 3.4640625 -2.5 3.9375 C-3.655 4.288125 -4.81 4.63875 -6 5 C-6.33 5.99 -6.66 6.98 -7 8 C-8.63631892 9.04892238 -10.30485863 10.04906703 -12 11 C-12.66 11.66 -13.32 12.32 -14 13 C-15.32 12.01 -16.64 11.02 -18 10 C-15.04894616 8.2995208 -12.08809878 6.61688907 -9.125 4.9375 C-8.28324219 4.45216797 -7.44148437 3.96683594 -6.57421875 3.46679688 C-5.76855469 3.01240234 -4.96289062 2.55800781 -4.1328125 2.08984375 C-3.38918457 1.66566162 -2.64555664 1.24147949 -1.87939453 0.80444336 C-1.25919434 0.53897705 -0.63899414 0.27351074 0 0 Z " fill="#9E9067" transform="translate(163,332)"/>
<path d="M0 0 C0.66 0.66 1.32 1.32 2 2 C1.63671875 4.30078125 1.63671875 4.30078125 1 7 C0.52119254 14.24892219 1.28906625 20.95767447 3 28 C1.68 28.33 0.36 28.66 -1 29 C-0.98259766 28.05640625 -0.98259766 28.05640625 -0.96484375 27.09375 C-0.92138178 22.97107159 -0.97652328 19.14790336 -1.625 15.0625 C-2.39536881 9.92319025 -1.11483872 5.01216747 0 0 Z " fill="#BEAC6F" transform="translate(71,241)"/>
<path d="M0 0 C0.22429687 0.91652344 0.22429687 0.91652344 0.453125 1.8515625 C0.84005579 3.37164775 1.27765794 4.87925015 1.75 6.375 C2.09054934 9.95076806 0.77199112 11.95217528 -1 15 C-1.66 15 -2.32 15 -3 15 C-3 15.99 -3 16.98 -3 18 C-3.99 18.33 -4.98 18.66 -6 19 C-4.12275039 12.62267685 -2.14328358 6.29304541 0 0 Z " fill="#AF9F49" transform="translate(237,182)"/>
<path d="M0 0 C6.875 0.875 6.875 0.875 8 2 C8.04063832 3.66617115 8.042721 5.33388095 8 7 C5.36 6.67 2.72 6.34 0 6 C0 4.02 0 2.04 0 0 Z " fill="#E6CC71" transform="translate(147,68)"/>
<path d="M0 0 C1.20660476 3.4750217 0.77252804 5.54688811 -0.375 9 C-1.54782732 12.54871101 -1.54782732 12.54871101 -2.44140625 16.171875 C-3.33448146 19.09466661 -5.59433076 20.27285286 -8 22 C-5.60309494 14.55697903 -2.84737559 7.28162848 0 0 Z " fill="#C6AE53" transform="translate(71,187)"/>
<path d="M0 0 C0.33 0.66 0.66 1.32 1 2 C2.98 1.67 4.96 1.34 7 1 C7.33 1.99 7.66 2.98 8 4 C10.31 4.33 12.62 4.66 15 5 C15 5.33 15 5.66 15 6 C8.63440427 5.50873071 2.30735307 5.00344253 -4 4 C-4 3.34 -4 2.68 -4 2 C-2.68 1.34 -1.36 0.68 0 0 Z " fill="#A49345" transform="translate(39,331)"/>
<path d="M0 0 C-9.6958351 5.01508712 -20.43298039 2.85267017 -31 2 C-31 1.67 -31 1.34 -31 1 C-27.33346352 0.8303866 -23.66675358 0.66484797 -20 0.5 C-18.97003906 0.45230469 -17.94007813 0.40460938 -16.87890625 0.35546875 C-11.24556714 0.10430076 -5.63886083 -0.05421982 0 0 Z " fill="#847B39" transform="translate(209,70)"/>
<path d="M0 0 C0.33 0.66 0.66 1.32 1 2 C-0.98 3.32 -2.96 4.64 -5 6 C-2.525 6.99 -2.525 6.99 0 8 C0 8.33 0 8.66 0 9 C-4.95 9 -9.9 9 -15 9 C-11.76963876 6.57722907 -8.78383006 4.70562325 -5.25 2.8125 C-4.26515625 2.28269531 -3.2803125 1.75289063 -2.265625 1.20703125 C-1.51796875 0.80871094 -0.7703125 0.41039062 0 0 Z " fill="#5C5949" transform="translate(116,330)"/>
<path d="M0 0 C0 0.66 0 1.32 0 2 C-0.99 2 -1.98 2 -3 2 C-3.35771484 2.93779297 -3.35771484 2.93779297 -3.72265625 3.89453125 C-5.34384475 6.56676551 -6.47543358 6.84605913 -9.4375 7.6875 C-10.21996094 7.91824219 -11.00242188 8.14898437 -11.80859375 8.38671875 C-12.89333984 8.69029297 -12.89333984 8.69029297 -14 9 C-14.99 9.33 -15.98 9.66 -17 10 C-17 10.66 -17 11.32 -17 12 C-18.65 12 -20.3 12 -22 12 C-18.23501682 8.95450313 -14.084659 6.67337316 -9.875 4.3125 C-9.14667969 3.89677734 -8.41835937 3.48105469 -7.66796875 3.05273438 C-6.62189453 2.46395508 -6.62189453 2.46395508 -5.5546875 1.86328125 C-4.92030762 1.50532471 -4.28592773 1.14736816 -3.63232422 0.77856445 C-2 0 -2 0 0 0 Z " fill="#9B9068" transform="translate(187,320)"/>
<path d="M0 0 C0.99 0 1.98 0 3 0 C3.19118486 4.77962147 2.98834962 8.60470084 1 13 C0.01 13.33 -0.98 13.66 -2 14 C-2.25328119 8.93437617 -1.33583899 4.84241633 0 0 Z " fill="#FBF27B" transform="translate(247,142)"/>
<path d="M0 0 C0.33 0 0.66 0 1 0 C1.60670868 7.52318764 0.15741968 12.65048631 -4 19 C-4.66 19.33 -5.32 19.66 -6 20 C-4.63125844 13.04223041 -2.5466871 6.61396893 0 0 Z " fill="#B2A148" transform="translate(203,275)"/>
<path d="M0 0 C0.33 0 0.66 0 1 0 C1.6319296 6.00333124 -0.62455877 10.63404795 -3 16 C-3.33 16 -3.66 16 -4 16 C-5.44667651 7.99970458 -5.44667651 7.99970458 -3.6875 4.0625 C-2 2 -2 2 0 0 Z " fill="#B7A467" transform="translate(143,60)"/>
<path d="M0 0 C0.928125 0.2784375 0.928125 0.2784375 1.875 0.5625 C4.04160178 1.23686176 4.04160178 1.23686176 6 0 C6 0.66 6 1.32 6 2 C9.65079826 3.61064629 13.0507432 4.44894091 17 5 C16.67 5.66 16.34 6.32 16 7 C11.38 6.34 6.76 5.68 2 5 C2 4.34 2 3.68 2 3 C1.01 2.67 0.02 2.34 -1 2 C-0.67 1.34 -0.34 0.68 0 0 Z " fill="#EDE57F" transform="translate(177,356)"/>
<path d="M0 0 C0 1.65 0 3.3 0 5 C-2.97 5 -5.94 5 -9 5 C-9.33 4.01 -9.66 3.02 -10 2 C-8.7090864 1.66376204 -7.41723903 1.33110751 -6.125 1 C-5.40570313 0.814375 -4.68640625 0.62875 -3.9453125 0.4375 C-2 0 -2 0 0 0 Z " fill="#696A64" transform="translate(128,327)"/>
<path d="M0 0 C0.66 0 1.32 0 2 0 C1.27991594 4.60853797 -0.31295939 8.67237409 -2 13 C-2.33 12.34 -2.66 11.68 -3 11 C-3.66 10.67 -4.32 10.34 -5 10 C-4.34 10 -3.68 10 -3 10 C-3.33 7.69 -3.66 5.38 -4 3 C-3.01 2.67 -2.02 2.34 -1 2 C-0.67 1.34 -0.34 0.68 0 0 Z " fill="#B7A361" transform="translate(125,105)"/>
<path d="M0 0 C0.33 0.66 0.66 1.32 1 2 C3.31 2 5.62 2 8 2 C1.73633032 5.65380731 -4.07054013 6.44363747 -11 5 C-11 4.67 -11 4.34 -11 4 C-6.545 3.505 -6.545 3.505 -2 3 C-2 2.34 -2 1.68 -2 1 C-1.34 0.67 -0.68 0.34 0 0 Z " fill="#857549" transform="translate(110,56)"/>
<path d="M0 0 C2.20887757 0.11498267 4.41710787 0.24243505 6.625 0.375 C8.46964844 0.47941406 8.46964844 0.47941406 10.3515625 0.5859375 C13.83653855 0.9814487 16.73049601 1.76261849 20 3 C20 3.33 20 3.66 20 4 C6.3667426 3.22095672 6.3667426 3.22095672 0 1 C0 0.67 0 0.34 0 0 Z " fill="#D1C984" transform="translate(44,340)"/>
<path d="M0 0 C0.66 0 1.32 0 2 0 C0.33846988 5.85659906 -1.47041916 11.4590134 -4 17 C-4.33 17 -4.66 17 -5 17 C-5.33 14.03 -5.66 11.06 -6 8 C-5.01 8 -4.02 8 -3 8 C-2.67 6.68 -2.34 5.36 -2 4 C-1.34 4 -0.68 4 0 4 C0 2.68 0 1.36 0 0 Z " fill="#B8A066" transform="translate(111,140)"/>
<path d="M0 0 C2.0625 0.4375 2.0625 0.4375 4 1 C3.67 1.99 3.34 2.98 3 4 C3.66 4.66 4.32 5.32 5 6 C-1.52307692 6.36923077 -1.52307692 6.36923077 -3.9375 4.5 C-4.4634375 3.7575 -4.4634375 3.7575 -5 3 C-4.360625 2.690625 -3.72125 2.38125 -3.0625 2.0625 C-1.06389179 1.1654837 -1.06389179 1.1654837 0 0 Z " fill="#DCD178" transform="translate(73,340)"/>
<path d="M0 0 C0.66 0.33 1.32 0.66 2 1 C0.35 2.32 -1.3 3.64 -3 5 C-2.01 5.66 -1.02 6.32 0 7 C-3.63 7 -7.26 7 -11 7 C-7.54143152 4.05004453 -4.19978515 1.77324262 0 0 Z " fill="#5F594B" transform="translate(162,306)"/>
<path d="M0 0 C0.93423645 3.01031744 1.04449911 3.86650268 0 7 C0.99 6.67 1.98 6.34 3 6 C2.34 8.31 1.68 10.62 1 13 C0.67 12.01 0.34 11.02 0 10 C-1.32 10.99 -2.64 11.98 -4 13 C-3.27991594 8.39146203 -1.68704061 4.32762591 0 0 Z " fill="#F7E580" transform="translate(87,136)"/>
<path d="M0 0 C-1.32 2.97 -2.64 5.94 -4 9 C-4.99 8.34 -5.98 7.68 -7 7 C-6.67 6.01 -6.34 5.02 -6 4 C-5.34 3.67 -4.68 3.34 -4 3 C-4.99 3 -5.98 3 -7 3 C-7 2.34 -7 1.68 -7 1 C-3.375 -1.125 -3.375 -1.125 0 0 Z " fill="#BAA160" transform="translate(121,123)"/>
<path d="M0 0 C-2.0978523 1.20005531 -4.2020249 2.38502983 -6.3125 3.5625 C-6.90740234 3.90474609 -7.50230469 4.24699219 -8.11523438 4.59960938 C-9.70282559 5.47766262 -11.34993931 6.24586268 -13 7 C-13.99 6.67 -14.98 6.34 -16 6 C-14.74449542 3.48899084 -13.68080384 3.15408425 -11.1875 1.9375 C-10.15689453 1.42509766 -10.15689453 1.42509766 -9.10546875 0.90234375 C-5.51085009 -0.63820711 -3.79827224 -1.26609075 0 0 Z " fill="#B9A776" transform="translate(103,338)"/>
<path d="M0 0 C1.27617187 0.02320313 2.55234375 0.04640625 3.8671875 0.0703125 C5.78917969 0.09738281 5.78917969 0.09738281 7.75 0.125 C9.23113281 0.15980469 9.23113281 0.15980469 10.7421875 0.1953125 C10.4121875 0.8553125 10.0821875 1.5153125 9.7421875 2.1953125 C6.87109375 2.8984375 6.87109375 2.8984375 3.3046875 3.4453125 C1.54318359 3.73148438 1.54318359 3.73148438 -0.25390625 4.0234375 C-1.74083984 4.10851563 -1.74083984 4.10851563 -3.2578125 4.1953125 C-3.9178125 3.5353125 -4.5778125 2.8753125 -5.2578125 2.1953125 C-3.2578125 0.1953125 -3.2578125 0.1953125 0 0 Z " fill="#756B4C" transform="translate(283.2578125,43.8046875)"/>
<path d="M0 0 C0.33 0.99 0.66 1.98 1 3 C1.66 3.33 2.32 3.66 3 4 C-2.61 3.34 -8.22 2.68 -14 2 C-14 1.67 -14 1.34 -14 1 C-4.58997722 -0.14806378 -4.58997722 -0.14806378 0 0 Z " fill="#A49343" transform="translate(70,336)"/>
<path d="M0 0 C1.66611905 -0.042721 3.33382885 -0.04063832 5 0 C6 1 6 1 6.0625 3.5625 C6.041875 4.366875 6.02125 5.17125 6 6 C4.35 6 2.7 6 1 6 C0.67 4.02 0.34 2.04 0 0 Z " fill="#F5DC83" transform="translate(246,117)"/>
<path d="M0 0 C0.66 0.66 1.32 1.32 2 2 C1.72285156 2.66386719 1.44570312 3.32773438 1.16015625 4.01171875 C0.61681641 5.33623047 0.61681641 5.33623047 0.0625 6.6875 C-0.29714844 7.55761719 -0.65679687 8.42773438 -1.02734375 9.32421875 C-1.9570312 11.88179265 -2.54162625 14.3221323 -3 17 C-3.66 17 -4.32 17 -5 17 C-4.35083537 10.99522721 -2.14204997 5.599219 0 0 Z " fill="#B49E4D" transform="translate(218,234)"/>
<path d="M0 0 C0.33 0 0.66 0 1 0 C1 6.27 1 12.54 1 19 C-0.32 18.67 -1.64 18.34 -3 18 C-2.68289062 17.31550781 -2.36578125 16.63101562 -2.0390625 15.92578125 C-0.85883043 12.60249621 -0.58802755 9.70245465 -0.375 6.1875 C-0.30023438 5.02605469 -0.22546875 3.86460937 -0.1484375 2.66796875 C-0.09945312 1.78753906 -0.05046875 0.90710938 0 0 Z " fill="#A39343" transform="translate(188,319)"/>
<path d="M0 0 C-1.95245185 1.19714555 -3.91214997 2.38248074 -5.875 3.5625 C-6.96554687 4.22378906 -8.05609375 4.88507813 -9.1796875 5.56640625 C-10.57574219 6.27603516 -10.57574219 6.27603516 -12 7 C-12.66 6.67 -13.32 6.34 -14 6 C-13.67 5.34 -13.34 4.68 -13 4 C-10.4375 3.375 -10.4375 3.375 -8 3 C-7.67 2.01 -7.34 1.02 -7 0 C-3.86650268 -1.04449911 -3.01031744 -0.93423645 0 0 Z " fill="#A09164" transform="translate(274,315)"/>
<path d="M0 0 C4.875 1.75 4.875 1.75 6 4 C4.02 4.99 2.04 5.98 0 7 C-0.93423645 3.98968256 -1.04449911 3.13349732 0 0 Z " fill="#A5915A" transform="translate(276,306)"/>
<path d="M0 0 C1.65 0 3.3 0 5 0 C5 1.65 5 3.3 5 5 C3.35 5.33 1.7 5.66 0 6 C0 4.02 0 2.04 0 0 Z " fill="#FCE474" transform="translate(95,63)"/>
<path d="M0 0 C-3.63 1.98 -7.26 3.96 -11 6 C-10.67 4.68 -10.34 3.36 -10 2 C-9.34 2 -8.68 2 -8 2 C-8 1.34 -8 0.68 -8 0 C-4.71303767 -0.79953138 -3.28976808 -1.09658936 0 0 Z " fill="#A89466" transform="translate(217,349)"/>
<path d="M0 0 C0 1.65 0 3.3 0 5 C-1.65 5.33 -3.3 5.66 -5 6 C-5 4.35 -5 2.7 -5 1 C-3 0 -3 0 0 0 Z " fill="#DAC064" transform="translate(105,62)"/>
<path d="M0 0 C0 1.98 0 3.96 0 6 C-2.64 5.67 -5.28 5.34 -8 5 C-5.93424534 2.72766987 -3.29882018 0 0 0 Z " fill="#6C6C5B" transform="translate(188,310)"/>
<path d="M0 0 C0.66 0 1.32 0 2 0 C1.67 1.32 1.34 2.64 1 4 C0.67 4 0.34 4 0 4 C-0.28875 5.11375 -0.5775 6.2275 -0.875 7.375 C-2 11 -2 11 -4 13 C-4 11.02 -4 9.04 -4 7 C-3.34 7 -2.68 7 -2 7 C-1.855625 6.21625 -1.71125 5.4325 -1.5625 4.625 C-1 2 -1 2 0 0 Z " fill="#FAF26D" transform="translate(35,268)"/>
<path d="M0 0 C0.66 0.66 1.32 1.32 2 2 C6.01858853 4.67905902 8.25305716 4.32182663 13 4 C11.375 5.5625 11.375 5.5625 9 7 C5.12273569 6.76261647 3.25923117 6.17282078 0 4 C0 2.68 0 1.36 0 0 Z " fill="#BDAA70" transform="translate(74,270)"/>
<path d="M0 0 C0.33 1.32 0.66 2.64 1 4 C1.66 4 2.32 4 3 4 C3 3.34 3 2.68 3 2 C3.66 2.33 4.32 2.66 5 3 C4.34 4.98 3.68 6.96 3 9 C2.34 8.01 1.68 7.02 1 6 C0.34 6 -0.32 6 -1 6 C-1 6.99 -1 7.98 -1 9 C-1.66 9 -2.32 9 -3 9 C-2.01 6.03 -1.02 3.06 0 0 Z " fill="#F9F082" transform="translate(214,231)"/>
<path d="M0 0 C0 1.32 0 2.64 0 4 C-1.65 4 -3.3 4 -5 4 C-5.66 2.68 -6.32 1.36 -7 0 C-3.98968256 -0.93423645 -3.13349732 -1.04449911 0 0 Z " fill="#D07E45" transform="translate(39,102)"/>
<path d="M0 0 C0.99 0.33 1.98 0.66 3 1 C3 2.98 3 4.96 3 7 C2.01 7.33 1.02 7.66 0 8 C-0.79953138 4.71303767 -1.09658936 3.28976808 0 0 Z " fill="#F8E987" transform="translate(242,190)"/>
<path d="M0 0 C1 2 1 2 0.22265625 4.3828125 C-0.16019531 5.28773438 -0.54304688 6.19265625 -0.9375 7.125 C-1.31777344 8.03507813 -1.69804688 8.94515625 -2.08984375 9.8828125 C-2.39019531 10.58148438 -2.69054687 11.28015625 -3 12 C-4.1700097 8.08263419 -3.69584017 5.02040985 -3 1 C-2.01 0.67 -1.02 0.34 0 0 Z " fill="#B79E65" transform="translate(102,165)"/>
<path d="M0 0 C-5.08940744 2.05362055 -9.54520815 3.43179252 -15 4 C-10.86492484 0.20951444 -5.37957111 -1.79319037 0 0 Z " fill="#847649" transform="translate(247,59)"/>
<path d="M0 0 C0.66 0 1.32 0 2 0 C1.67 2.64 1.34 5.28 1 8 C0.01 7.67 -0.98 7.34 -2 7 C-1.125 1.125 -1.125 1.125 0 0 Z " fill="#FAE768" transform="translate(85,146)"/>
<path d="M0 0 C1.65 0 3.3 0 5 0 C5.33 1.65 5.66 3.3 6 5 C4.35 5 2.7 5 1 5 C0.67 3.35 0.34 1.7 0 0 Z " fill="#D9B367" transform="translate(245,112)"/>
<path d="M0 0 C1.66611905 -0.042721 3.33382885 -0.04063832 5 0 C6 1 6 1 6.0625 3.5625 C6.041875 4.366875 6.02125 5.17125 6 6 C3.5625 5.25 3.5625 5.25 1 4 C0.1875 1.875 0.1875 1.875 0 0 Z " fill="#F8D871" transform="translate(89,104)"/>
<path d="M0 0 C2.97 0.33 5.94 0.66 9 1 C6.31158141 3.25245881 4.35358125 4.88213958 1 6 C0.67 4.02 0.34 2.04 0 0 Z " fill="#706D58" transform="translate(134,342)"/>
<path d="M0 0 C1.32 0 2.64 0 4 0 C4 1.65 4 3.3 4 5 C2.68 5.33 1.36 5.66 0 6 C0 4.02 0 2.04 0 0 Z " fill="#F9EB78" transform="translate(85,175)"/>
<path d="M0 0 C2.875 0.25 2.875 0.25 6 1 C7.375 3.0625 7.375 3.0625 8 5 C5.6875 5.3125 5.6875 5.3125 3 5 C1.1875 2.5 1.1875 2.5 0 0 Z " fill="#9D2E0B" transform="translate(241,107)"/>
<path d="M0 0 C0.99 0 1.98 0 3 0 C3.33 2.31 3.66 4.62 4 7 C2.35 7 0.7 7 -1 7 C-1 5.68 -1 4.36 -1 3 C-0.34 2.67 0.32 2.34 1 2 C0.67 1.34 0.34 0.68 0 0 Z " fill="#DAAD62" transform="translate(90,97)"/>
<path d="M0 0 C0.99 0.33 1.98 0.66 3 1 C-0.12488567 3.52394612 -3.31314387 5.39701907 -7 7 C-7.66 6.67 -8.32 6.34 -9 6 C-6.11861791 3.75892504 -3.25320657 1.66831106 0 0 Z " fill="#BAA561" transform="translate(120,289)"/>
<path d="M0 0 C0.66 0.33 1.32 0.66 2 1 C1.75 4.375 1.75 4.375 1 8 C-0.98 8.99 -0.98 8.99 -3 10 C-2.01 6.7 -1.02 3.4 0 0 Z " fill="#C6AE51" transform="translate(83,158)"/>
<path d="M0 0 C2.875 0.25 2.875 0.25 6 1 C7.375 3.0625 7.375 3.0625 8 5 C6.68 5.33 5.36 5.66 4 6 C2.68 4.02 1.36 2.04 0 0 Z " fill="#C7220E" transform="translate(84,95)"/>
<path d="M0 0 C-6.4 4.06153846 -6.4 4.06153846 -9.4375 3.75 C-9.953125 3.5025 -10.46875 3.255 -11 3 C-10.01 3 -9.02 3 -8 3 C-8 2.01 -8 1.02 -8 0 C-4.71303767 -0.79953138 -3.28976808 -1.09658936 0 0 Z " fill="#726B5B" transform="translate(154,338)"/>
<path d="M0 0 C0 0.66 0 1.32 0 2 C-3.33333333 3.66666667 -6.66666667 5.33333333 -10 7 C-10.66 6.34 -11.32 5.68 -12 5 C-10.37750059 4.16180842 -8.75191503 3.3295884 -7.125 2.5 C-6.22007812 2.0359375 -5.31515625 1.571875 -4.3828125 1.09375 C-2 0 -2 0 0 0 Z " fill="#5F5946" transform="translate(176,300)"/>
<path d="M0 0 C0.99 0 1.98 0 3 0 C3 2.31 3 4.62 3 7 C2.01 7 1.02 7 0 7 C0 4.69 0 2.38 0 0 Z " fill="#FCF16E" transform="translate(209,246)"/>
<path d="M0 0 C1.98 0 3.96 0 6 0 C6.33 0.99 6.66 1.98 7 3 C4.36 3 1.72 3 -1 3 C-0.67 2.01 -0.34 1.02 0 0 Z " fill="#D0A064" transform="translate(81,92)"/>
<path d="M0 0 C-8.01162791 4.31395349 -8.01162791 4.31395349 -12.375 3.625 C-12.91125 3.41875 -13.4475 3.2125 -14 3 C-9.07495384 1.00335967 -5.35631283 -0.11902917 0 0 Z " fill="#817346" transform="translate(290,46)"/>
<path d="M0 0 C3.96 0 7.92 0 12 0 C10.68 1.32 9.36 2.64 8 4 C5.36 3.01 2.72 2.02 0 1 C0 0.67 0 0.34 0 0 Z " fill="#6D6550" transform="translate(137,35)"/>
<path d="M0 0 C3.3 0 6.6 0 10 0 C10.33 0.99 10.66 1.98 11 3 C9.54077307 2.88590407 8.08259402 2.75834456 6.625 2.625 C5.40683594 2.52058594 5.40683594 2.52058594 4.1640625 2.4140625 C2 2 2 2 0 0 Z " fill="#E7DF85" transform="translate(136,353)"/>
<path d="M0 0 C0 0.99 0 1.98 0 3 C-3.3 2.67 -6.6 2.34 -10 2 C-5.86678317 -0.75547789 -4.77928863 -1.13193678 0 0 Z " fill="#E6E07A" transform="translate(44,338)"/>
<path d="M0 0 C0 0.66 0 1.32 0 2 C-2.97 3.32 -5.94 4.64 -9 6 C-9 5.34 -9 4.68 -9 4 C-5.69649386 0.88002198 -4.67590167 0 0 0 Z " fill="#706D50" transform="translate(189,317)"/>
<path d="M0 0 C1.65 0 3.3 0 5 0 C5 1.32 5 2.64 5 4 C3.35 4 1.7 4 0 4 C0 2.68 0 1.36 0 0 Z " fill="#FDF065" transform="translate(156,71)"/>
<path d="M0 0 C3.36720387 1.39332574 4.9859524 2.9789286 7 6 C3.62537285 5.45276317 1.91765 4.9451 -1 3 C-0.67 2.01 -0.34 1.02 0 0 Z " fill="#F6EC9C" transform="translate(76,341)"/>
<path d="M0 0 C0.99 0.33 1.98 0.66 3 1 C2.67 2.65 2.34 4.3 2 6 C0.35 5.67 -1.3 5.34 -3 5 C-1.68 4.67 -0.36 4.34 1 4 C0.67 2.68 0.34 1.36 0 0 Z " fill="#C35F34" transform="translate(200,114)"/>
<path d="M0 0 C0.66 0 1.32 0 2 0 C2.33 1.32 2.66 2.64 3 4 C2.01 4.33 1.02 4.66 0 5 C0 5.66 0 6.32 0 7 C-0.66 7 -1.32 7 -2 7 C-2 5.68 -2 4.36 -2 3 C-1.34 3 -0.68 3 0 3 C0 2.01 0 1.02 0 0 Z " fill="#EFE66E" transform="translate(93,112)"/>
<path d="M0 0 C-5.47574739 2.9334361 -8.80040487 3.07300685 -15 2 C-15 1.67 -15 1.34 -15 1 C-9.91913204 0.15318867 -5.15171623 -0.09038099 0 0 Z " fill="#857A48" transform="translate(209,70)"/>
<path d="M0 0 C0 0.66 0 1.32 0 2 C2.97 2.495 2.97 2.495 6 3 C6 3.33 6 3.66 6 4 C3.03 4 0.06 4 -3 4 C-3.33 3.01 -3.66 2.02 -4 1 C-2 0 -2 0 0 0 Z " fill="#595751" transform="translate(122,328)"/>
<path d="M0 0 C0.66 0 1.32 0 2 0 C2 1.98 2 3.96 2 6 C1.01 5.67 0.02 5.34 -1 5 C-1.33 4.01 -1.66 3.02 -2 2 C-1.34 1.34 -0.68 0.68 0 0 Z " fill="#6D6D63" transform="translate(187,295)"/>
<path d="M0 0 C0.33 0 0.66 0 1 0 C0.67 2.64 0.34 5.28 0 8 C-0.99 8.33 -1.98 8.66 -3 9 C-2.01 6.03 -1.02 3.06 0 0 Z " fill="#F7ED81" transform="translate(42,246)"/>
<path d="M0 0 C-0.25561323 2.3431213 -0.59270772 4.67843403 -1 7 C-1.99 7.495 -1.99 7.495 -3 8 C-3 5.69 -3 3.38 -3 1 C-1 0 -1 0 0 0 Z " fill="#F7E46C" transform="translate(70,184)"/>
<path d="M0 0 C0 2.31 0 4.62 0 7 C-0.66 7 -1.32 7 -2 7 C-2.33 5.02 -2.66 3.04 -3 1 C-1 0 -1 0 0 0 Z " fill="#FEF96E" transform="translate(96,116)"/>
<path d="M0 0 C4.875 1.75 4.875 1.75 6 4 C3.69 4 1.38 4 -1 4 C-1 1 -1 1 0 0 Z " fill="#BAA062" transform="translate(207,113)"/>
<path d="M0 0 C0.99 0.33 1.98 0.66 3 1 C3 2.65 3 4.3 3 6 C2.01 6 1.02 6 0 6 C0 4.02 0 2.04 0 0 Z " fill="#B29E60" transform="translate(147,68)"/>
<path d="M0 0 C-1 1.5625 -1 1.5625 -3 3 C-5.76614782 2.96726452 -8.26030547 2.49404328 -11 2 C-11 1.67 -11 1.34 -11 1 C-7.26562152 0.12132271 -3.83225427 -0.08912219 0 0 Z " fill="#706753" transform="translate(106,44)"/>
</svg>
