<?xml version="1.0" encoding="UTF-8"?>
<!DOCTYPE svg PUBLIC "-//W3C//DTD SVG 1.1//EN" "http://www.w3.org/Graphics/SVG/1.1/DTD/svg11.dtd">
<svg xmlns="http://www.w3.org/2000/svg" version="1.1" width="195px" height="259px" style="shape-rendering:geometricPrecision; text-rendering:geometricPrecision; image-rendering:optimizeQuality; fill-rule:evenodd; clip-rule:evenodd" xmlns:xlink="http://www.w3.org/1999/xlink">
<g><path style="opacity:1" fill="#b08c7a" d="M 108.5,-0.5 C 110.833,-0.5 113.167,-0.5 115.5,-0.5C 116.794,1.32837 117.794,3.32837 118.5,5.5C 117.5,5.5 116.5,5.5 115.5,5.5C 115.5,6.5 115.5,7.5 115.5,8.5C 114.167,7.83333 112.833,7.16667 111.5,6.5C 111.5,5.16667 111.5,3.83333 111.5,2.5C 110.5,2.5 109.5,2.5 108.5,2.5C 108.5,1.5 108.5,0.5 108.5,-0.5 Z"/></g>
<g><path style="opacity:1" fill="#cb7f45" d="M 94.5,5.5 C 94.5,6.5 94.5,7.5 94.5,8.5C 92.1667,8.5 89.8333,8.5 87.5,8.5C 87.5,7.5 87.5,6.5 87.5,5.5C 89.4105,3.71616 91.7438,2.71616 94.5,2.5C 94.5,3.5 94.5,4.5 94.5,5.5 Z"/></g>
<g><path style="opacity:1" fill="#ac8777" d="M 72.5,-0.5 C 74.8333,-0.5 77.1667,-0.5 79.5,-0.5C 79.5,0.5 79.5,1.5 79.5,2.5C 78.5,2.5 77.5,2.5 76.5,2.5C 76.6747,4.6208 76.3414,6.6208 75.5,8.5C 74.5,8.5 73.5,8.5 72.5,8.5C 71.5,8.5 70.5,8.5 69.5,8.5C 69.5,6.5 69.5,4.5 69.5,2.5C 70.5,2.5 71.5,2.5 72.5,2.5C 72.5,1.5 72.5,0.5 72.5,-0.5 Z"/></g>
<g><path style="opacity:0.988" fill="#746848" d="M 94.5,5.5 C 96.1788,5.28519 97.1788,5.95186 97.5,7.5C 96.609,8.10978 95.609,8.44312 94.5,8.5C 94.5,7.5 94.5,6.5 94.5,5.5 Z"/></g>
<g><path style="opacity:1" fill="#747c4a" d="M 87.5,5.5 C 87.5,6.5 87.5,7.5 87.5,8.5C 85.5,8.5 83.5,8.5 81.5,8.5C 81.5,8.16667 81.5,7.83333 81.5,7.5C 82.9179,5.69206 84.9179,5.02539 87.5,5.5 Z"/></g>
<g><path style="opacity:1" fill="#724444" d="M 97.5,7.5 C 97.5,7.83333 97.5,8.16667 97.5,8.5C 97.5,9.5 97.5,10.5 97.5,11.5C 96.5,11.5 95.5,11.5 94.5,11.5C 94.5,12.5 94.5,13.5 94.5,14.5C 95.5,14.5 96.5,14.5 97.5,14.5C 97.5,15.1667 97.5,15.8333 97.5,16.5C 96.8501,16.1961 96.1835,15.8627 95.5,15.5C 94.1585,17.0049 92.4918,17.6715 90.5,17.5C 90.5,16.5 90.5,15.5 90.5,14.5C 89.5,14.5 88.5,14.5 87.5,14.5C 87.7148,12.8212 87.0481,11.8212 85.5,11.5C 84.1667,11.5 82.8333,11.5 81.5,11.5C 81.5,10.5 81.5,9.5 81.5,8.5C 83.5,8.5 85.5,8.5 87.5,8.5C 89.8333,8.5 92.1667,8.5 94.5,8.5C 95.609,8.44312 96.609,8.10978 97.5,7.5 Z"/></g>
<g><path style="opacity:1" fill="#9ca763" d="M 81.5,7.5 C 81.5,7.83333 81.5,8.16667 81.5,8.5C 81.5,9.5 81.5,10.5 81.5,11.5C 81.5,12.5 81.5,13.5 81.5,14.5C 80.5,14.5 79.5,14.5 78.5,14.5C 78.5,12.5 78.5,10.5 78.5,8.5C 79.609,8.44312 80.609,8.10978 81.5,7.5 Z"/></g>
<g><path style="opacity:1" fill="#877164" d="M 118.5,5.5 C 119.5,5.5 120.5,5.5 121.5,5.5C 121.5,7.5 121.5,9.5 121.5,11.5C 121.5,12.5 121.5,13.5 121.5,14.5C 119.5,14.5 117.5,14.5 115.5,14.5C 115.5,13.5 115.5,12.5 115.5,11.5C 116.5,11.5 117.5,11.5 118.5,11.5C 118.5,10.5 118.5,9.5 118.5,8.5C 117.5,8.5 116.5,8.5 115.5,8.5C 115.5,7.5 115.5,6.5 115.5,5.5C 116.5,5.5 117.5,5.5 118.5,5.5 Z"/></g>
<g><path style="opacity:1" fill="#512c44" d="M 97.5,8.5 C 101.833,8.5 106.167,8.5 110.5,8.5C 110.5,8.83333 110.5,9.16667 110.5,9.5C 107.813,9.33591 105.146,9.50258 102.5,10C 102.833,10.3333 103.167,10.6667 103.5,11C 102.552,11.4828 101.552,11.6495 100.5,11.5C 100.5,12.5 100.5,13.5 100.5,14.5C 99.5,14.5 98.5,14.5 97.5,14.5C 96.5,14.5 95.5,14.5 94.5,14.5C 94.5,13.5 94.5,12.5 94.5,11.5C 95.5,11.5 96.5,11.5 97.5,11.5C 97.5,10.5 97.5,9.5 97.5,8.5 Z"/></g>
<g><path style="opacity:1" fill="#8f7940" d="M 81.5,11.5 C 82.8333,11.5 84.1667,11.5 85.5,11.5C 85.5,12.8333 85.5,14.1667 85.5,15.5C 84.1667,15.5 82.8333,15.5 81.5,15.5C 81.5,15.1667 81.5,14.8333 81.5,14.5C 81.5,13.5 81.5,12.5 81.5,11.5 Z"/></g>
<g><path style="opacity:1" fill="#5f4e3e" d="M 72.5,8.5 C 73.5,8.5 74.5,8.5 75.5,8.5C 76.5,8.5 77.5,8.5 78.5,8.5C 78.5,10.5 78.5,12.5 78.5,14.5C 79.5,14.5 80.5,14.5 81.5,14.5C 81.5,14.8333 81.5,15.1667 81.5,15.5C 81.5,16.1667 81.5,16.8333 81.5,17.5C 81.5,18.5 81.5,19.5 81.5,20.5C 78.9716,21.0114 76.4716,21.6781 74,22.5C 72.3009,22.6134 71.1342,21.9468 70.5,20.5C 72.0481,20.1788 72.7148,19.1788 72.5,17.5C 71.5,17.5 70.5,17.5 69.5,17.5C 69.5,16.5 69.5,15.5 69.5,14.5C 71.5,14.5 73.5,14.5 75.5,14.5C 75.5,13.5 75.5,12.5 75.5,11.5C 74.5,11.5 73.5,11.5 72.5,11.5C 72.5,10.5 72.5,9.5 72.5,8.5 Z"/></g>
<g><path style="opacity:1" fill="#604e3e" d="M 111.5,6.5 C 112.833,7.16667 114.167,7.83333 115.5,8.5C 116.5,8.5 117.5,8.5 118.5,8.5C 118.5,9.5 118.5,10.5 118.5,11.5C 117.5,11.5 116.5,11.5 115.5,11.5C 115.5,12.5 115.5,13.5 115.5,14.5C 117.5,14.5 119.5,14.5 121.5,14.5C 121.5,13.5 121.5,12.5 121.5,11.5C 122.5,11.5 123.5,11.5 124.5,11.5C 124.5,14.5 124.5,17.5 124.5,20.5C 123.5,20.5 122.5,20.5 121.5,20.5C 121.5,21.5 121.5,22.5 121.5,23.5C 120.5,23.5 119.5,23.5 118.5,23.5C 118.737,24.791 118.404,25.791 117.5,26.5C 117.5,24.8333 117.5,23.1667 117.5,21.5C 115.708,21.634 114.042,21.3007 112.5,20.5C 112.5,19.5 112.5,18.5 112.5,17.5C 111.5,17.5 110.5,17.5 109.5,17.5C 109.955,15.6334 110.622,13.8001 111.5,12C 111.472,10.9302 111.139,10.0968 110.5,9.5C 110.5,9.16667 110.5,8.83333 110.5,8.5C 111.338,8.15829 111.672,7.49162 111.5,6.5 Z"/></g>
<g><path style="opacity:1" fill="#92776d" d="M 69.5,8.5 C 70.5,8.5 71.5,8.5 72.5,8.5C 72.5,9.5 72.5,10.5 72.5,11.5C 73.5,11.5 74.5,11.5 75.5,11.5C 75.5,12.5 75.5,13.5 75.5,14.5C 73.5,14.5 71.5,14.5 69.5,14.5C 69.5,15.5 69.5,16.5 69.5,17.5C 70.5,17.5 71.5,17.5 72.5,17.5C 72.7148,19.1788 72.0481,20.1788 70.5,20.5C 68.8007,20.4729 67.4674,19.8062 66.5,18.5C 66.5,15.1667 66.5,11.8333 66.5,8.5C 67.5,8.5 68.5,8.5 69.5,8.5 Z"/></g>
<g><path style="opacity:1" fill="#321329" d="M 110.5,9.5 C 111.139,10.0968 111.472,10.9302 111.5,12C 110.622,13.8001 109.955,15.6334 109.5,17.5C 109.5,18.1667 109.5,18.8333 109.5,19.5C 107.402,20.9143 106.402,20.2476 106.5,17.5C 105.5,17.5 104.5,17.5 103.5,17.5C 102.167,17.5 100.833,17.5 99.5,17.5C 98.5084,17.6716 97.8417,17.3382 97.5,16.5C 97.5,15.8333 97.5,15.1667 97.5,14.5C 98.5,14.5 99.5,14.5 100.5,14.5C 100.5,13.5 100.5,12.5 100.5,11.5C 101.552,11.6495 102.552,11.4828 103.5,11C 103.167,10.6667 102.833,10.3333 102.5,10C 105.146,9.50258 107.813,9.33591 110.5,9.5 Z"/></g>
<g><path style="opacity:1" fill="#411618" d="M 81.5,17.5 C 82.5,17.5 83.5,17.5 84.5,17.5C 84.5,18.5 84.5,19.5 84.5,20.5C 83.5,20.5 82.5,20.5 81.5,20.5C 81.5,19.5 81.5,18.5 81.5,17.5 Z"/></g>
<g><path style="opacity:1" fill="#d17f6d" d="M 85.5,11.5 C 87.0481,11.8212 87.7148,12.8212 87.5,14.5C 88.5,14.5 89.5,14.5 90.5,14.5C 90.5,15.5 90.5,16.5 90.5,17.5C 89.5,17.5 88.5,17.5 87.5,17.5C 87.5,18.5 87.5,19.5 87.5,20.5C 86.5,20.5 85.5,20.5 84.5,20.5C 84.5,19.5 84.5,18.5 84.5,17.5C 83.5,17.5 82.5,17.5 81.5,17.5C 81.5,16.8333 81.5,16.1667 81.5,15.5C 82.8333,15.5 84.1667,15.5 85.5,15.5C 85.5,14.1667 85.5,12.8333 85.5,11.5 Z"/></g>
<g><path style="opacity:1" fill="#797742" d="M 103.5,17.5 C 104.5,17.5 105.5,17.5 106.5,17.5C 106.402,20.2476 107.402,20.9143 109.5,19.5C 109.5,20.8333 108.833,21.5 107.5,21.5C 104.821,21.4754 103.488,20.142 103.5,17.5 Z"/></g>
<g><path style="opacity:1" fill="#c99050" d="M 99.5,17.5 C 100.833,17.5 102.167,17.5 103.5,17.5C 103.488,20.142 104.821,21.4754 107.5,21.5C 107.5,22.1667 107.5,22.8333 107.5,23.5C 105.833,23.5 104.167,23.5 102.5,23.5C 102.5,24.5 102.5,25.5 102.5,26.5C 101.5,26.5 100.5,26.5 99.5,26.5C 99.0805,24.9064 98.4138,23.4064 97.5,22C 98.7073,20.6998 99.3739,19.1998 99.5,17.5 Z"/></g>
<g><path style="opacity:1" fill="#6f883d" d="M 112.5,20.5 C 114.042,21.3007 115.708,21.634 117.5,21.5C 117.5,23.1667 117.5,24.8333 117.5,26.5C 117.158,27.3382 116.492,27.6716 115.5,27.5C 115.5,27.1667 115.5,26.8333 115.5,26.5C 115.5,25.5 115.5,24.5 115.5,23.5C 114.5,23.5 113.5,23.5 112.5,23.5C 112.5,22.5 112.5,21.5 112.5,20.5 Z"/></g>
<g><path style="opacity:1" fill="#5d3d44" d="M 66.5,18.5 C 67.4674,19.8062 68.8007,20.4729 70.5,20.5C 71.1342,21.9468 72.3009,22.6134 74,22.5C 76.4716,21.6781 78.9716,21.0114 81.5,20.5C 81.5,20.8333 81.5,21.1667 81.5,21.5C 77.7854,23.6598 73.7854,24.9931 69.5,25.5C 68.2719,26.3065 67.2719,27.3065 66.5,28.5C 66.5,27.1667 66.5,25.8333 66.5,24.5C 65.5,24.5 64.5,24.5 63.5,24.5C 63.5,23.5 63.5,22.5 63.5,21.5C 62.5,21.5 61.5,21.5 60.5,21.5C 60.5,20.1667 60.5,18.8333 60.5,17.5C 61.5,17.5 62.5,17.5 63.5,17.5C 63.5,18.5 63.5,19.5 63.5,20.5C 65.1788,20.7148 66.1788,20.0481 66.5,18.5 Z"/></g>
<g><path style="opacity:1" fill="#706648" d="M 81.5,20.5 C 82.5,20.5 83.5,20.5 84.5,20.5C 85.5,20.5 86.5,20.5 87.5,20.5C 88.791,20.2627 89.791,20.596 90.5,21.5C 91.1515,22.0906 91.8182,22.7573 92.5,23.5C 93.1818,22.7573 93.8485,22.0906 94.5,21.5C 94.5,22.8333 95.1667,23.5 96.5,23.5C 95.8333,24.1667 95.1667,24.8333 94.5,25.5C 94.1667,25.5 93.8333,25.5 93.5,25.5C 93.44,24.9569 93.1067,24.6236 92.5,24.5C 91.6143,25.325 91.281,26.325 91.5,27.5C 90.1667,27.5 88.8333,27.5 87.5,27.5C 87.5,26.5 87.5,25.5 87.5,24.5C 85.5,24.5 83.5,24.5 81.5,24.5C 81.5,23.5 81.5,22.5 81.5,21.5C 81.5,21.1667 81.5,20.8333 81.5,20.5 Z"/></g>
<g><path style="opacity:1" fill="#6b8445" d="M 82.5,21.5 C 84.288,21.2148 85.9547,21.5481 87.5,22.5C 86.6667,22.8333 85.8333,23.1667 85,23.5C 83.6244,23.3158 82.7911,22.6491 82.5,21.5 Z"/></g>
<g><path style="opacity:1" fill="#230c06" d="M 90.5,21.5 C 90.3605,23.337 89.6939,23.6704 88.5,22.5C 88.9569,21.7025 89.6236,21.3691 90.5,21.5 Z"/></g>
<g><path style="opacity:1" fill="#a7a666" d="M 109.5,17.5 C 110.5,17.5 111.5,17.5 112.5,17.5C 112.5,18.5 112.5,19.5 112.5,20.5C 112.5,21.5 112.5,22.5 112.5,23.5C 113.5,23.5 114.5,23.5 115.5,23.5C 115.5,24.5 115.5,25.5 115.5,26.5C 113.801,26.4729 112.467,25.8062 111.5,24.5C 110.432,23.5655 109.099,23.2322 107.5,23.5C 107.5,22.8333 107.5,22.1667 107.5,21.5C 108.833,21.5 109.5,20.8333 109.5,19.5C 109.5,18.8333 109.5,18.1667 109.5,17.5 Z"/></g>
<g><path style="opacity:1" fill="#777f44" d="M 97.5,16.5 C 97.8417,17.3382 98.5084,17.6716 99.5,17.5C 99.3739,19.1998 98.7073,20.6998 97.5,22C 98.4138,23.4064 99.0805,24.9064 99.5,26.5C 99.5,26.8333 99.5,27.1667 99.5,27.5C 97.302,27.8799 95.6354,27.2132 94.5,25.5C 95.1667,24.8333 95.8333,24.1667 96.5,23.5C 95.1667,23.5 94.5,22.8333 94.5,21.5C 93.8485,22.0906 93.1818,22.7573 92.5,23.5C 91.8182,22.7573 91.1515,22.0906 90.5,21.5C 89.791,20.596 88.791,20.2627 87.5,20.5C 87.5,19.5 87.5,18.5 87.5,17.5C 88.5,17.5 89.5,17.5 90.5,17.5C 92.4918,17.6715 94.1585,17.0049 95.5,15.5C 96.1835,15.8627 96.8501,16.1961 97.5,16.5 Z"/></g>
<g><path style="opacity:1" fill="#260800" d="M 94.5,21.5 C 95.8333,21.5 96.5,22.1667 96.5,23.5C 96.5,22.1667 95.8333,21.5 94.5,21.5 Z"/></g>
<g><path style="opacity:1" fill="#d6886d" d="M 124.5,20.5 C 125.794,22.3284 126.794,24.3284 127.5,26.5C 127.158,27.3382 126.492,27.6716 125.5,27.5C 124.167,28.1667 122.833,28.8333 121.5,29.5C 120.5,26.8333 119.5,26.8333 118.5,29.5C 117.5,29.5 116.5,29.5 115.5,29.5C 115.5,28.8333 115.5,28.1667 115.5,27.5C 116.492,27.6716 117.158,27.3382 117.5,26.5C 118.404,25.791 118.737,24.791 118.5,23.5C 119.5,23.5 120.5,23.5 121.5,23.5C 121.5,22.5 121.5,21.5 121.5,20.5C 122.5,20.5 123.5,20.5 124.5,20.5 Z"/></g>
<g><path style="opacity:1" fill="#82583e" d="M 107.5,23.5 C 109.099,23.2322 110.432,23.5655 111.5,24.5C 108.833,24.5 106.167,24.5 103.5,24.5C 103.5,25.5 103.5,26.5 103.5,27.5C 102.167,27.5 100.833,27.5 99.5,27.5C 99.5,27.1667 99.5,26.8333 99.5,26.5C 100.5,26.5 101.5,26.5 102.5,26.5C 102.5,25.5 102.5,24.5 102.5,23.5C 104.167,23.5 105.833,23.5 107.5,23.5 Z"/></g>
<g><path style="opacity:1" fill="#60543c" d="M 111.5,24.5 C 112.467,25.8062 113.801,26.4729 115.5,26.5C 115.5,26.8333 115.5,27.1667 115.5,27.5C 114.167,27.5 112.833,27.5 111.5,27.5C 111.5,26.5 111.5,25.5 111.5,24.5 Z"/></g>
<g><path style="opacity:1" fill="#361128" d="M 81.5,21.5 C 81.5,22.5 81.5,23.5 81.5,24.5C 83.5,24.5 85.5,24.5 87.5,24.5C 87.5,25.5 87.5,26.5 87.5,27.5C 88.8333,27.5 90.1667,27.5 91.5,27.5C 91.281,26.325 91.6143,25.325 92.5,24.5C 93.1067,24.6236 93.44,24.9569 93.5,25.5C 93.5,26.8333 93.5,28.1667 93.5,29.5C 91.5,29.5 89.5,29.5 87.5,29.5C 87.5,30.5 87.5,31.5 87.5,32.5C 86.5,32.5 85.5,32.5 84.5,32.5C 84.5,33.8333 84.5,35.1667 84.5,36.5C 85.5,36.5 86.5,36.5 87.5,36.5C 87.5,38.1667 87.5,39.8333 87.5,41.5C 86.2223,41.2178 85.2223,40.5511 84.5,39.5C 83.5,39.5 82.5,39.5 81.5,39.5C 81.5,38.5 81.5,37.5 81.5,36.5C 82.0138,34.4884 82.1805,32.4884 82,30.5C 80.9887,29.6634 79.8221,29.33 78.5,29.5C 76.5,29.5 74.5,29.5 72.5,29.5C 72.5,28.5 72.5,27.5 72.5,26.5C 71.209,26.7373 70.209,26.404 69.5,25.5C 73.7854,24.9931 77.7854,23.6598 81.5,21.5 Z"/></g>
<g><path style="opacity:1" fill="#3d110e" d="M 121.5,29.5 C 120.5,29.5 119.5,29.5 118.5,29.5C 119.5,26.8333 120.5,26.8333 121.5,29.5 Z"/></g>
<g><path style="opacity:1" fill="#693a51" d="M 69.5,25.5 C 70.209,26.404 71.209,26.7373 72.5,26.5C 72.5,27.5 72.5,28.5 72.5,29.5C 74.5,29.5 76.5,29.5 78.5,29.5C 78.1788,31.0481 77.1788,31.7148 75.5,31.5C 75.5,32.8333 75.5,34.1667 75.5,35.5C 75.5,35.8333 75.5,36.1667 75.5,36.5C 73.5,36.1667 71.5,35.8333 69.5,35.5C 69.1788,33.9519 68.1788,33.2852 66.5,33.5C 66.6621,35.5273 66.4955,37.5273 66,39.5C 64.1825,36.2781 64.0158,32.9447 65.5,29.5C 66.1667,29.5 66.5,29.1667 66.5,28.5C 67.2719,27.3065 68.2719,26.3065 69.5,25.5 Z"/></g>
<g><path style="opacity:1" fill="#887547" d="M 125.5,27.5 C 124.85,29.4352 124.517,31.4352 124.5,33.5C 122.5,33.5 120.5,33.5 118.5,33.5C 118.5,32.5 118.5,31.5 118.5,30.5C 117.209,30.7373 116.209,30.404 115.5,29.5C 116.5,29.5 117.5,29.5 118.5,29.5C 119.5,29.5 120.5,29.5 121.5,29.5C 122.833,28.8333 124.167,28.1667 125.5,27.5 Z"/></g>
<g><path style="opacity:0.49" fill="#aba466" d="M 127.5,26.5 C 128.5,26.5 129.5,26.5 130.5,26.5C 130.483,28.5648 130.15,30.5648 129.5,32.5C 127.708,32.366 126.042,32.6993 124.5,33.5C 124.517,31.4352 124.85,29.4352 125.5,27.5C 126.492,27.6716 127.158,27.3382 127.5,26.5 Z"/></g>
<g><path style="opacity:1" fill="#784543" d="M 78.5,29.5 C 79.8221,29.33 80.9887,29.6634 82,30.5C 82.1805,32.4884 82.0138,34.4884 81.5,36.5C 79.7508,34.4686 77.7508,34.1353 75.5,35.5C 75.5,34.1667 75.5,32.8333 75.5,31.5C 77.1788,31.7148 78.1788,31.0481 78.5,29.5 Z"/></g>
<g><path style="opacity:1" fill="#3d1634" d="M 107.5,30.5 C 108.967,33.6543 108.634,36.6543 106.5,39.5C 103.785,41.123 100.785,41.7896 97.5,41.5C 98.0998,40.1001 99.0998,39.1001 100.5,38.5C 101.83,35.5603 101.663,32.5603 100,29.5C 98.0262,32.1183 96.1929,31.9517 94.5,29C 97.8168,28.5017 101.15,28.335 104.5,28.5C 104.5,29.5 104.5,30.5 104.5,31.5C 105.791,31.7373 106.791,31.404 107.5,30.5 Z"/></g>
<g><path style="opacity:1" fill="#623331" d="M 109.5,29.5 C 109.5,32.8333 109.5,36.1667 109.5,39.5C 108.5,39.5 107.5,39.5 106.5,39.5C 108.634,36.6543 108.967,33.6543 107.5,30.5C 105.775,30.1575 105.275,29.1575 106,27.5C 107.011,26.6634 108.178,26.33 109.5,26.5C 109.5,27.5 109.5,28.5 109.5,29.5 Z"/></g>
<g><path style="opacity:1" fill="#50233b" d="M 111.5,24.5 C 111.5,25.5 111.5,26.5 111.5,27.5C 112.833,27.5 114.167,27.5 115.5,27.5C 115.5,28.1667 115.5,28.8333 115.5,29.5C 116.209,30.404 117.209,30.7373 118.5,30.5C 118.5,31.5 118.5,32.5 118.5,33.5C 120.5,33.5 122.5,33.5 124.5,33.5C 124.5,34.5 124.5,35.5 124.5,36.5C 122.611,37.3799 120.611,37.3799 118.5,36.5C 118.5,37.5 118.5,38.5 118.5,39.5C 117.5,39.5 116.5,39.5 115.5,39.5C 115.975,36.9179 115.308,34.9179 113.5,33.5C 112.732,32.7375 112.232,31.7375 112,30.5C 111.329,29.7476 110.496,29.4142 109.5,29.5C 109.5,28.5 109.5,27.5 109.5,26.5C 108.178,26.33 107.011,26.6634 106,27.5C 105.275,29.1575 105.775,30.1575 107.5,30.5C 106.791,31.404 105.791,31.7373 104.5,31.5C 104.5,30.5 104.5,29.5 104.5,28.5C 101.15,28.335 97.8168,28.5017 94.5,29C 96.1929,31.9517 98.0262,32.1183 100,29.5C 101.663,32.5603 101.83,35.5603 100.5,38.5C 100.5,36.8333 100.5,35.1667 100.5,33.5C 97.2288,33.6458 94.8955,32.3125 93.5,29.5C 93.5,28.1667 93.5,26.8333 93.5,25.5C 93.8333,25.5 94.1667,25.5 94.5,25.5C 95.6354,27.2132 97.302,27.8799 99.5,27.5C 100.833,27.5 102.167,27.5 103.5,27.5C 103.5,26.5 103.5,25.5 103.5,24.5C 106.167,24.5 108.833,24.5 111.5,24.5 Z"/></g>
<g><path style="opacity:1" fill="#ce7f4d" d="M 129.5,32.5 C 130.404,33.209 130.737,34.209 130.5,35.5C 129.209,35.2627 128.209,35.596 127.5,36.5C 126.5,36.5 125.5,36.5 124.5,36.5C 124.5,35.5 124.5,34.5 124.5,33.5C 126.042,32.6993 127.708,32.366 129.5,32.5 Z"/></g>
<g><path style="opacity:1" fill="#8d5745" d="M 93.5,29.5 C 94.8955,32.3125 97.2288,33.6458 100.5,33.5C 100.5,35.1667 100.5,36.8333 100.5,38.5C 99.0998,39.1001 98.0998,40.1001 97.5,41.5C 96.5326,40.1938 95.1993,39.5271 93.5,39.5C 93.4103,36.654 92.2437,34.3206 90,32.5C 88.4905,33.0897 86.9905,33.7564 85.5,34.5C 86.325,35.3857 87.325,35.719 88.5,35.5C 88.8016,38.0593 88.4682,40.3926 87.5,42.5C 87.5,42.1667 87.5,41.8333 87.5,41.5C 87.5,39.8333 87.5,38.1667 87.5,36.5C 86.5,36.5 85.5,36.5 84.5,36.5C 84.5,35.1667 84.5,33.8333 84.5,32.5C 85.5,32.5 86.5,32.5 87.5,32.5C 87.5,31.5 87.5,30.5 87.5,29.5C 89.5,29.5 91.5,29.5 93.5,29.5 Z"/></g>
<g><path style="opacity:1" fill="#8d573f" d="M 109.5,29.5 C 110.496,29.4142 111.329,29.7476 112,30.5C 112.232,31.7375 112.732,32.7375 113.5,33.5C 112.64,37.4338 112.307,41.4338 112.5,45.5C 111.5,45.5 110.5,45.5 109.5,45.5C 109.5,47.5 109.5,49.5 109.5,51.5C 109.11,48.2033 108.11,45.2033 106.5,42.5C 106.5,41.5 106.5,40.5 106.5,39.5C 107.5,39.5 108.5,39.5 109.5,39.5C 109.5,36.1667 109.5,32.8333 109.5,29.5 Z"/></g>
<g><path style="opacity:0.89" fill="#635f2f" d="M 130.5,35.5 C 130.5,36.8333 130.5,38.1667 130.5,39.5C 129.5,39.5 128.5,39.5 127.5,39.5C 127.5,38.5 127.5,37.5 127.5,36.5C 128.209,35.596 129.209,35.2627 130.5,35.5 Z"/></g>
<g><path style="opacity:1" fill="#653343" d="M 113.5,33.5 C 115.308,34.9179 115.975,36.9179 115.5,39.5C 115.308,44.6507 115.308,49.6507 115.5,54.5C 114.5,54.5 113.5,54.5 112.5,54.5C 112.5,52.5 111.5,51.5 109.5,51.5C 109.5,49.5 109.5,47.5 109.5,45.5C 110.5,45.5 111.5,45.5 112.5,45.5C 112.307,41.4338 112.64,37.4338 113.5,33.5 Z"/></g>
<g><path style="opacity:1" fill="#6b3015" d="M 84.5,39.5 C 85.2223,40.5511 86.2223,41.2178 87.5,41.5C 87.5,41.8333 87.5,42.1667 87.5,42.5C 87.1788,44.0481 86.1788,44.7148 84.5,44.5C 84.7678,46.099 84.4345,47.4324 83.5,48.5C 81.3703,47.0359 80.037,45.0359 79.5,42.5C 81.1667,42.5 82.8333,42.5 84.5,42.5C 84.5,41.5 84.5,40.5 84.5,39.5 Z"/></g>
<g><path style="opacity:0.427" fill="#d17e41" d="M 27.5,44.5 C 25.672,45.2828 24.3387,46.6161 23.5,48.5C 22.448,48.3505 21.448,48.5172 20.5,49C 21.5981,49.7697 21.5981,50.603 20.5,51.5C 19.5,51.5 18.5,51.5 17.5,51.5C 17.5,50.5 17.5,49.5 17.5,48.5C 16.5,48.5 15.5,48.5 14.5,48.5C 14.5,47.1667 14.5,45.8333 14.5,44.5C 15.5,44.5 16.5,44.5 17.5,44.5C 17.5,42.5 17.5,40.5 17.5,38.5C 18.8333,38.5 20.1667,38.5 21.5,38.5C 22.1667,42.5 22.8333,42.5 23.5,38.5C 24.8333,38.5 26.1667,38.5 27.5,38.5C 27.5,40.5 27.5,42.5 27.5,44.5 Z"/></g>
<g><path style="opacity:1" fill="#3e1835" d="M 65.5,29.5 C 64.0158,32.9447 64.1825,36.2781 66,39.5C 66.4955,37.5273 66.6621,35.5273 66.5,33.5C 68.1788,33.2852 69.1788,33.9519 69.5,35.5C 68.8826,35.6107 68.3826,35.944 68,36.5C 67.1816,39.2272 67.3483,41.8938 68.5,44.5C 69.0512,42.5868 69.2179,40.5868 69,38.5C 71.5385,37.0691 73.3718,37.7358 74.5,40.5C 73.9537,42.1347 73.6204,43.8014 73.5,45.5C 69.1617,45.6219 68.8284,45.9553 72.5,46.5C 73.1667,48.1667 73.8333,49.8333 74.5,51.5C 73.5,51.5 72.5,51.5 71.5,51.5C 71.8432,53.4832 71.1765,54.8166 69.5,55.5C 68.6772,53.0128 67.6772,50.6794 66.5,48.5C 65.791,47.596 64.791,47.2627 63.5,47.5C 63.5,46.5 63.5,45.5 63.5,44.5C 62.8917,39.0557 63.5583,34.0557 65.5,29.5 Z"/></g>
<g><path style="opacity:1" fill="#bb815d" d="M 81.5,36.5 C 81.5,37.5 81.5,38.5 81.5,39.5C 82.5,39.5 83.5,39.5 84.5,39.5C 84.5,40.5 84.5,41.5 84.5,42.5C 82.8333,42.5 81.1667,42.5 79.5,42.5C 78.5386,44.2646 78.2053,46.2646 78.5,48.5C 77.5,48.5 76.5,48.5 75.5,48.5C 75.5,44.5 75.5,40.5 75.5,36.5C 75.5,36.1667 75.5,35.8333 75.5,35.5C 77.7508,34.1353 79.7508,34.4686 81.5,36.5 Z"/></g>
<g><path style="opacity:1" fill="#683218" d="M 106.5,39.5 C 106.5,40.5 106.5,41.5 106.5,42.5C 106.5,43.1667 106.5,43.8333 106.5,44.5C 105.167,44.5 103.833,44.5 102.5,44.5C 102.719,45.675 102.386,46.675 101.5,47.5C 100.476,46.1468 99.143,45.4802 97.5,45.5C 97.5,44.1667 97.5,42.8333 97.5,41.5C 100.785,41.7896 103.785,41.123 106.5,39.5 Z"/></g>
<g><path style="opacity:1" fill="#955527" d="M 79.5,42.5 C 80.037,45.0359 81.3703,47.0359 83.5,48.5C 81.8333,48.5 80.1667,48.5 78.5,48.5C 78.2053,46.2646 78.5386,44.2646 79.5,42.5 Z"/></g>
<g><path style="opacity:1" fill="#622e17" d="M 127.5,41.5 C 129.5,41.5 131.5,41.5 133.5,41.5C 133.5,42.5 133.5,43.5 133.5,44.5C 138.579,43.4998 142.745,44.8331 146,48.5C 146.483,49.448 146.649,50.448 146.5,51.5C 145.5,51.5 144.5,51.5 143.5,51.5C 143.5,52.5 143.5,53.5 143.5,54.5C 142.167,54.5 140.833,54.5 139.5,54.5C 139.5,53.5 139.5,52.5 139.5,51.5C 139.5,50.5 139.5,49.5 139.5,48.5C 136.5,48.5 133.5,48.5 130.5,48.5C 130.5,47.5 130.5,46.5 130.5,45.5C 129.5,45.5 128.5,45.5 127.5,45.5C 127.5,44.1667 127.5,42.8333 127.5,41.5 Z"/></g>
<g><path style="opacity:1" fill="#8e6535" d="M 27.5,44.5 C 28.5,44.5 29.5,44.5 30.5,44.5C 30.5,45.8333 30.5,47.1667 30.5,48.5C 29.5,48.5 28.5,48.5 27.5,48.5C 26.5,48.5 25.5,48.5 24.5,48.5C 24.5,49.5 24.5,50.5 24.5,51.5C 24.5,52.5 24.5,53.5 24.5,54.5C 22.901,54.7678 21.5676,54.4345 20.5,53.5C 21.5,53.5 22.5,53.5 23.5,53.5C 23.5,51.8333 23.5,50.1667 23.5,48.5C 24.3387,46.6161 25.672,45.2828 27.5,44.5 Z"/></g>
<g><path style="opacity:1" fill="#622e15" d="M 63.5,44.5 C 63.5,45.5 63.5,46.5 63.5,47.5C 64.791,47.2627 65.791,47.596 66.5,48.5C 64.5,48.5 62.5,48.5 60.5,48.5C 60.5,49.5 60.5,50.5 60.5,51.5C 58.396,51.2011 56.396,51.5344 54.5,52.5C 55.6016,53.1757 56.6016,53.8423 57.5,54.5C 54.1667,54.5 50.8333,54.5 47.5,54.5C 47.3505,53.448 47.5172,52.448 48,51.5C 50.2278,48.194 53.3945,46.694 57.5,47C 56.1667,46.3333 56.1667,45.6667 57.5,45C 59.4727,44.5045 61.4727,44.3379 63.5,44.5 Z"/></g>
<g><path style="opacity:1" fill="#899e5a" d="M 40.5,44.5 C 39.7659,45.7079 39.4326,47.0413 39.5,48.5C 38.5,48.5 37.5,48.5 36.5,48.5C 36.3253,50.6208 36.6586,52.6208 37.5,54.5C 37.1667,54.5 36.8333,54.5 36.5,54.5C 35.1667,54.5 33.8333,54.5 32.5,54.5C 32.5,52.1667 32.5,49.8333 32.5,47.5C 33.5,47.5 34.5,47.5 35.5,47.5C 35.5,46.5 35.5,45.5 35.5,44.5C 37.1667,44.5 38.8333,44.5 40.5,44.5 Z"/></g>
<g><path style="opacity:1" fill="#b97d5c" d="M 66.5,48.5 C 66.5,50.5 66.5,52.5 66.5,54.5C 63.5,54.5 60.5,54.5 57.5,54.5C 56.6016,53.8423 55.6016,53.1757 54.5,52.5C 56.396,51.5344 58.396,51.2011 60.5,51.5C 60.5,50.5 60.5,49.5 60.5,48.5C 62.5,48.5 64.5,48.5 66.5,48.5 Z"/></g>
<g><path style="opacity:1" fill="#9c4c15" d="M 23.5,48.5 C 23.5,50.1667 23.5,51.8333 23.5,53.5C 22.5,53.5 21.5,53.5 20.5,53.5C 20.5,52.8333 20.5,52.1667 20.5,51.5C 21.5981,50.603 21.5981,49.7697 20.5,49C 21.448,48.5172 22.448,48.3505 23.5,48.5 Z"/></g>
<g><path style="opacity:1" fill="#67803d" d="M 40.5,44.5 C 42.3435,46.2789 43.0102,48.6122 42.5,51.5C 41.5,51.5 40.5,51.5 39.5,51.5C 39.7148,53.1788 39.0481,54.1788 37.5,54.5C 36.6586,52.6208 36.3253,50.6208 36.5,48.5C 37.5,48.5 38.5,48.5 39.5,48.5C 39.4326,47.0413 39.7659,45.7079 40.5,44.5 Z"/></g>
<g><path style="opacity:1" fill="#c3836a" d="M 127.5,51.5 C 127.5,52.5 127.5,53.5 127.5,54.5C 126.5,54.5 125.5,54.5 124.5,54.5C 123.5,54.5 122.5,54.5 121.5,54.5C 121.5,53.5 121.5,52.5 121.5,51.5C 122.5,51.5 123.5,51.5 124.5,51.5C 124.5,50.5 124.5,49.5 124.5,48.5C 125.5,48.5 126.5,48.5 127.5,48.5C 127.5,49.5 127.5,50.5 127.5,51.5 Z"/></g>
<g><path style="opacity:1" fill="#985f3e" d="M 130.5,48.5 C 133.5,48.5 136.5,48.5 139.5,48.5C 139.5,49.5 139.5,50.5 139.5,51.5C 138.5,51.5 137.5,51.5 136.5,51.5C 136.5,52.5 136.5,53.5 136.5,54.5C 135.5,54.5 134.5,54.5 133.5,54.5C 132.5,54.5 131.5,54.5 130.5,54.5C 129.5,54.5 128.5,54.5 127.5,54.5C 127.5,53.5 127.5,52.5 127.5,51.5C 128.5,51.5 129.5,51.5 130.5,51.5C 130.5,50.5 130.5,49.5 130.5,48.5 Z"/></g>
<g><path style="opacity:1" fill="#e2ae7a" d="M 139.5,51.5 C 139.5,52.5 139.5,53.5 139.5,54.5C 138.5,54.5 137.5,54.5 136.5,54.5C 136.5,53.5 136.5,52.5 136.5,51.5C 137.5,51.5 138.5,51.5 139.5,51.5 Z"/></g>
<g><path style="opacity:1" fill="#35122a" d="M 124.5,36.5 C 125.5,36.5 126.5,36.5 127.5,36.5C 127.5,37.5 127.5,38.5 127.5,39.5C 127.5,40.1667 127.5,40.8333 127.5,41.5C 127.5,42.8333 127.5,44.1667 127.5,45.5C 128.5,45.5 129.5,45.5 130.5,45.5C 130.5,46.5 130.5,47.5 130.5,48.5C 130.5,49.5 130.5,50.5 130.5,51.5C 129.5,51.5 128.5,51.5 127.5,51.5C 127.5,50.5 127.5,49.5 127.5,48.5C 126.5,48.5 125.5,48.5 124.5,48.5C 124.5,49.5 124.5,50.5 124.5,51.5C 123.5,51.5 122.5,51.5 121.5,51.5C 121.5,52.5 121.5,53.5 121.5,54.5C 121.5,56.5 121.5,58.5 121.5,60.5C 122.5,60.5 123.5,60.5 124.5,60.5C 124.5,61.5 124.5,62.5 124.5,63.5C 122.167,63.5 119.833,63.5 117.5,63.5C 117.715,61.8212 117.048,60.8212 115.5,60.5C 115.5,58.5 115.5,56.5 115.5,54.5C 115.308,49.6507 115.308,44.6507 115.5,39.5C 116.5,39.5 117.5,39.5 118.5,39.5C 118.5,38.5 118.5,37.5 118.5,36.5C 120.611,37.3799 122.611,37.3799 124.5,36.5 Z"/></g>
<g><path style="opacity:1" fill="#300f26" d="M 69.5,35.5 C 71.5,35.8333 73.5,36.1667 75.5,36.5C 75.5,40.5 75.5,44.5 75.5,48.5C 76.5,48.5 77.5,48.5 78.5,48.5C 78.5,49.5 78.5,50.5 78.5,51.5C 77.5,51.5 76.5,51.5 75.5,51.5C 75.5,53.5 75.5,55.5 75.5,57.5C 76.5,57.5 77.5,57.5 78.5,57.5C 78.5,59.5 78.5,61.5 78.5,63.5C 79.5,63.5 80.5,63.5 81.5,63.5C 81.5,64.5 81.5,65.5 81.5,66.5C 79.9519,66.8212 79.2852,67.8212 79.5,69.5C 78.1667,69.5 76.8333,69.5 75.5,69.5C 75.5,66.5 75.5,63.5 75.5,60.5C 73.0582,60.1192 72.3915,60.7859 73.5,62.5C 71.2573,63.4742 68.924,63.8076 66.5,63.5C 66.5,62.5 66.5,61.5 66.5,60.5C 67.5,60.5 68.5,60.5 69.5,60.5C 69.5,59.5 69.5,58.5 69.5,57.5C 69.5,56.8333 69.5,56.1667 69.5,55.5C 71.1765,54.8166 71.8432,53.4832 71.5,51.5C 72.5,51.5 73.5,51.5 74.5,51.5C 73.8333,49.8333 73.1667,48.1667 72.5,46.5C 68.8284,45.9553 69.1617,45.6219 73.5,45.5C 73.6204,43.8014 73.9537,42.1347 74.5,40.5C 73.3718,37.7358 71.5385,37.0691 69,38.5C 69.2179,40.5868 69.0512,42.5868 68.5,44.5C 67.3483,41.8938 67.1816,39.2272 68,36.5C 68.3826,35.944 68.8826,35.6107 69.5,35.5 Z"/></g>
<g><path style="opacity:1" fill="#e1ac7d" d="M 130.5,54.5 C 131.5,54.5 132.5,54.5 133.5,54.5C 133.5,55.5 133.5,56.5 133.5,57.5C 132.5,57.5 131.5,57.5 130.5,57.5C 130.5,56.5 130.5,55.5 130.5,54.5 Z"/></g>
<g><path style="opacity:1" fill="#602f0c" d="M 124.5,54.5 C 125.5,54.5 126.5,54.5 127.5,54.5C 128.5,54.5 129.5,54.5 130.5,54.5C 130.5,55.5 130.5,56.5 130.5,57.5C 128.5,57.5 126.5,57.5 124.5,57.5C 124.5,56.5 124.5,55.5 124.5,54.5 Z"/></g>
<g><path style="opacity:0.894" fill="#603016" d="M 66.5,48.5 C 67.6772,50.6794 68.6772,53.0128 69.5,55.5C 69.5,56.1667 69.5,56.8333 69.5,57.5C 65.5,57.5 61.5,57.5 57.5,57.5C 57.5,56.5 57.5,55.5 57.5,54.5C 60.5,54.5 63.5,54.5 66.5,54.5C 66.5,52.5 66.5,50.5 66.5,48.5 Z"/></g>
<g><path style="opacity:1" fill="#804d3c" d="M 112.5,54.5 C 113.5,54.5 114.5,54.5 115.5,54.5C 115.5,56.5 115.5,58.5 115.5,60.5C 114.5,60.5 113.5,60.5 112.5,60.5C 112.5,58.5 112.5,56.5 112.5,54.5 Z"/></g>
<g><path style="opacity:1" fill="#677939" d="M 27.5,48.5 C 27.8212,50.0481 28.8212,50.7148 30.5,50.5C 30.1924,52.924 30.5258,55.2573 31.5,57.5C 32.3857,56.675 32.719,55.675 32.5,54.5C 33.8333,54.5 35.1667,54.5 36.5,54.5C 36.5,55.5 36.5,56.5 36.5,57.5C 35.5,57.5 34.5,57.5 33.5,57.5C 33.5,58.5 33.5,59.5 33.5,60.5C 33.5,61.5 33.5,62.5 33.5,63.5C 32.1667,63.5 30.8333,63.5 29.5,63.5C 29.5,62.5 29.5,61.5 29.5,60.5C 29.5,59.5 29.5,58.5 29.5,57.5C 28.5,57.5 27.5,57.5 26.5,57.5C 26.9746,54.9179 26.3079,52.9179 24.5,51.5C 24.5,50.5 24.5,49.5 24.5,48.5C 25.5,48.5 26.5,48.5 27.5,48.5 Z"/></g>
<g><path style="opacity:1" fill="#2b0914" d="M 112.5,60.5 C 113.5,60.5 114.5,60.5 115.5,60.5C 115.5,61.5 115.5,62.5 115.5,63.5C 114.5,63.5 113.5,63.5 112.5,63.5C 112.5,62.5 112.5,61.5 112.5,60.5 Z"/></g>
<g><path style="opacity:1" fill="#c2835c" d="M 97.5,41.5 C 97.5,42.8333 97.5,44.1667 97.5,45.5C 97.5,46.5 97.5,47.5 97.5,48.5C 99.5,48.5 101.5,48.5 103.5,48.5C 103.5,47.5 103.5,46.5 103.5,45.5C 104.791,45.7373 105.791,45.404 106.5,44.5C 106.5,43.8333 106.5,43.1667 106.5,42.5C 108.11,45.2033 109.11,48.2033 109.5,51.5C 111.5,51.5 112.5,52.5 112.5,54.5C 112.5,56.5 112.5,58.5 112.5,60.5C 112.5,61.5 112.5,62.5 112.5,63.5C 111.5,63.5 110.5,63.5 109.5,63.5C 108.5,63.5 107.5,63.5 106.5,63.5C 106.5,64.5 106.5,65.5 106.5,66.5C 103.752,67.0322 101.752,68.0322 100.5,69.5C 100.5,70.5 100.5,71.5 100.5,72.5C 97.5,72.5 94.5,72.5 91.5,72.5C 91.1667,72.5 90.8333,72.5 90.5,72.5C 88.3284,71.7945 86.3284,70.7945 84.5,69.5C 84.5,68.5 84.5,67.5 84.5,66.5C 83.5,66.5 82.5,66.5 81.5,66.5C 81.5,65.5 81.5,64.5 81.5,63.5C 80.5,63.5 79.5,63.5 78.5,63.5C 78.5,61.5 78.5,59.5 78.5,57.5C 77.5,57.5 76.5,57.5 75.5,57.5C 75.5,55.5 75.5,53.5 75.5,51.5C 76.5,51.5 77.5,51.5 78.5,51.5C 78.5,50.5 78.5,49.5 78.5,48.5C 80.1667,48.5 81.8333,48.5 83.5,48.5C 84.4345,47.4324 84.7678,46.099 84.5,44.5C 86.1788,44.7148 87.1788,44.0481 87.5,42.5C 88.4682,40.3926 88.8016,38.0593 88.5,35.5C 87.325,35.719 86.325,35.3857 85.5,34.5C 86.9905,33.7564 88.4905,33.0897 90,32.5C 92.2437,34.3206 93.4103,36.654 93.5,39.5C 95.1993,39.5271 96.5326,40.1938 97.5,41.5 Z"/></g>
<g><path style="opacity:1" fill="#6d330c" d="M 87.5,60.5 C 91.5,60.5 95.5,60.5 99.5,60.5C 99.5,61.5 99.5,62.5 99.5,63.5C 95.5,63.5 91.5,63.5 87.5,63.5C 87.5,62.5 87.5,61.5 87.5,60.5 Z"/></g>
<g><path style="opacity:1" fill="#773a14" d="M 100.5,57.5 C 101.5,57.5 102.5,57.5 103.5,57.5C 103.5,58.5 103.5,59.5 103.5,60.5C 102.5,60.5 101.5,60.5 100.5,60.5C 100.5,59.5 100.5,58.5 100.5,57.5 Z"/></g>
<g><path style="opacity:1" fill="#9a582c" d="M 106.5,44.5 C 105.791,45.404 104.791,45.7373 103.5,45.5C 103.5,46.5 103.5,47.5 103.5,48.5C 101.5,48.5 99.5,48.5 97.5,48.5C 97.5,47.5 97.5,46.5 97.5,45.5C 99.143,45.4802 100.476,46.1468 101.5,47.5C 102.386,46.675 102.719,45.675 102.5,44.5C 103.833,44.5 105.167,44.5 106.5,44.5 Z"/></g>
<g><path style="opacity:1" fill="#2d0d20" d="M 109.5,63.5 C 110.5,63.5 111.5,63.5 112.5,63.5C 112.5,64.5 112.5,65.5 112.5,66.5C 113.5,66.5 114.5,66.5 115.5,66.5C 115.5,67.5 115.5,68.5 115.5,69.5C 114.5,69.5 113.5,69.5 112.5,69.5C 111.5,69.5 110.5,69.5 109.5,69.5C 109.5,67.5 109.5,65.5 109.5,63.5 Z"/></g>
<g><path style="opacity:1" fill="#320b0f" d="M 81.5,66.5 C 82.5,66.5 83.5,66.5 84.5,66.5C 84.5,67.5 84.5,68.5 84.5,69.5C 83.5,69.5 82.5,69.5 81.5,69.5C 81.5,68.5 81.5,67.5 81.5,66.5 Z"/></g>
<g><path style="opacity:1" fill="#c3865d" d="M 29.5,60.5 C 29.5,61.5 29.5,62.5 29.5,63.5C 30.8333,63.5 32.1667,63.5 33.5,63.5C 33.5,62.5 33.5,61.5 33.5,60.5C 34.5,60.5 35.5,60.5 36.5,60.5C 36.5,61.5 36.5,62.5 36.5,63.5C 37.5,63.5 38.5,63.5 39.5,63.5C 39.5,64.5 39.5,65.5 39.5,66.5C 41.6382,66.703 43.3049,67.703 44.5,69.5C 45.4941,74.456 45.8275,79.456 45.5,84.5C 43.7028,85.7298 41.7028,86.3964 39.5,86.5C 39.5,82.8333 39.5,79.1667 39.5,75.5C 38.5,75.5 37.5,75.5 36.5,75.5C 36.5,76.5 36.5,77.5 36.5,78.5C 34.1667,78.5 31.8333,78.5 29.5,78.5C 29.5,79.5 29.5,80.5 29.5,81.5C 31.8333,81.5 34.1667,81.5 36.5,81.5C 36.5,82.5 36.5,83.5 36.5,84.5C 35.5,84.5 34.5,84.5 33.5,84.5C 33.5,85.5 33.5,86.5 33.5,87.5C 31.1667,87.5 28.8333,87.5 26.5,87.5C 26.5,86.5 26.5,85.5 26.5,84.5C 25.5,84.5 24.5,84.5 23.5,84.5C 23.3486,76.1468 24.3486,68.1468 26.5,60.5C 27.5,60.5 28.5,60.5 29.5,60.5 Z M 32.5,69.5 C 32.5,70.5 32.5,71.5 32.5,72.5C 29.8333,71.5 29.8333,70.5 32.5,69.5 Z M 36.5,69.5 C 39.1667,70.5 39.1667,71.5 36.5,72.5C 36.5,72.1667 36.5,71.8333 36.5,71.5C 36.5,70.8333 36.5,70.1667 36.5,69.5 Z"/></g>
<g><path style="opacity:1" fill="#9e6a48" d="M 32.5,66.5 C 32.5,67.5 32.5,68.5 32.5,69.5C 29.8333,70.5 29.8333,71.5 32.5,72.5C 34.1951,73.8264 35.5284,73.4931 36.5,71.5C 36.5,71.8333 36.5,72.1667 36.5,72.5C 36.5,73.5 36.5,74.5 36.5,75.5C 34.1667,75.5 31.8333,75.5 29.5,75.5C 29.5,71.8333 29.5,68.1667 29.5,64.5C 31.1788,64.2852 32.1788,64.9519 32.5,66.5 Z"/></g>
<g><path style="opacity:0.345" fill="#767339" d="M 32.5,66.5 C 33.8333,66.5 35.1667,66.5 36.5,66.5C 36.5,67.5 36.5,68.5 36.5,69.5C 36.5,70.1667 36.5,70.8333 36.5,71.5C 35.5284,73.4931 34.1951,73.8264 32.5,72.5C 32.5,71.5 32.5,70.5 32.5,69.5C 32.5,68.5 32.5,67.5 32.5,66.5 Z"/></g>
<g><path style="opacity:1" fill="#8b502c" d="M 109.5,63.5 C 109.5,65.5 109.5,67.5 109.5,69.5C 110.5,69.5 111.5,69.5 112.5,69.5C 112.5,70.5 112.5,71.5 112.5,72.5C 115.5,72.5 118.5,72.5 121.5,72.5C 121.5,73.5 121.5,74.5 121.5,75.5C 115.491,75.3338 109.491,75.5005 103.5,76C 98.1138,79.8187 94.1138,78.6521 91.5,72.5C 94.5,72.5 97.5,72.5 100.5,72.5C 100.5,71.5 100.5,70.5 100.5,69.5C 101.752,68.0322 103.752,67.0322 106.5,66.5C 106.5,65.5 106.5,64.5 106.5,63.5C 107.5,63.5 108.5,63.5 109.5,63.5 Z"/></g>
<g><path style="opacity:1" fill="#c6865c" d="M 142.5,112.5 C 141.5,112.5 140.5,112.5 139.5,112.5C 139.5,111.5 139.5,110.5 139.5,109.5C 138.5,109.5 137.5,109.5 136.5,109.5C 136.5,107.5 136.5,105.5 136.5,103.5C 135.5,103.5 134.5,103.5 133.5,103.5C 133.5,101.5 133.5,99.5 133.5,97.5C 132.5,97.5 131.5,97.5 130.5,97.5C 130.715,95.8212 130.048,94.8212 128.5,94.5C 127.432,93.5655 126.099,93.2322 124.5,93.5C 124.5,98.8333 124.5,104.167 124.5,109.5C 123.5,109.5 122.5,109.5 121.5,109.5C 121.5,110.5 121.5,111.5 121.5,112.5C 115.5,112.5 109.5,112.5 103.5,112.5C 103.5,110.5 103.5,108.5 103.5,106.5C 102.5,106.5 101.5,106.5 100.5,106.5C 100.5,108.5 100.5,110.5 100.5,112.5C 96.1667,112.5 91.8333,112.5 87.5,112.5C 87.6567,111.127 87.49,109.793 87,108.5C 86.6667,108.833 86.3333,109.167 86,109.5C 85.3448,107.372 84.5114,105.372 83.5,103.5C 82.8869,100.991 82.2202,98.4908 81.5,96C 79.4372,95.7932 77.2705,95.9599 75,96.5C 71.0958,94.4911 69.9291,91.4911 71.5,87.5C 72.404,86.791 72.7373,85.791 72.5,84.5C 73.5,84.5 74.5,84.5 75.5,84.5C 80.5,84.5 85.5,84.5 90.5,84.5C 90.5,83.5 90.5,82.5 90.5,81.5C 91.8333,81.5 93.1667,81.5 94.5,81.5C 94.5,82.5 94.5,83.5 94.5,84.5C 97.5,84.5 100.5,84.5 103.5,84.5C 103.281,83.325 103.614,82.325 104.5,81.5C 105.795,82.0983 107.128,82.5983 108.5,83C 106.323,84.1861 105.323,86.0194 105.5,88.5C 106.833,88.5 108.167,88.5 109.5,88.5C 109.5,87.5 109.5,86.5 109.5,85.5C 111.5,85.5 113.5,85.5 115.5,85.5C 115.5,84.1667 115.5,82.8333 115.5,81.5C 113.5,81.5 111.5,81.5 109.5,81.5C 109.5,80.5 109.5,79.5 109.5,78.5C 115.5,78.5 121.5,78.5 127.5,78.5C 127.5,79.5 127.5,80.5 127.5,81.5C 130.5,81.5 133.5,81.5 136.5,81.5C 136.5,82.5 136.5,83.5 136.5,84.5C 137.5,84.5 138.5,84.5 139.5,84.5C 139.5,86.5 139.5,88.5 139.5,90.5C 138.5,90.5 137.5,90.5 136.5,90.5C 136.5,91.5 136.5,92.5 136.5,93.5C 139.518,93.3354 142.518,93.502 145.5,94C 147.919,95.5088 148.919,97.6755 148.5,100.5C 149.5,100.5 150.5,100.5 151.5,100.5C 151.961,104.509 151.128,108.176 149,111.5C 146.959,112.423 144.792,112.756 142.5,112.5 Z"/></g>
<g><path style="opacity:1" fill="#9e6a47" d="M 36.5,75.5 C 37.5,75.5 38.5,75.5 39.5,75.5C 39.5,79.1667 39.5,82.8333 39.5,86.5C 41.7028,86.3964 43.7028,85.7298 45.5,84.5C 45.5,85.8333 45.5,87.1667 45.5,88.5C 44.209,88.2627 43.209,88.596 42.5,89.5C 41.8501,89.1961 41.1835,88.8627 40.5,88.5C 39.5481,90.0453 39.2148,91.712 39.5,93.5C 38.8423,92.6016 38.1757,91.6016 37.5,90.5C 37.0496,93.2024 36.5496,96.2024 36,99.5C 34.8545,100.684 33.6879,100.684 32.5,99.5C 32.5,97.8333 32.5,96.1667 32.5,94.5C 31.5,94.5 30.5,94.5 29.5,94.5C 29.5,93.5 29.5,92.5 29.5,91.5C 28.5,91.5 27.5,91.5 26.5,91.5C 26.5,90.5 26.5,89.5 26.5,88.5C 25.5,88.5 24.5,88.5 23.5,88.5C 23.5,87.1667 23.5,85.8333 23.5,84.5C 24.5,84.5 25.5,84.5 26.5,84.5C 26.5,85.5 26.5,86.5 26.5,87.5C 28.8333,87.5 31.1667,87.5 33.5,87.5C 33.5,86.5 33.5,85.5 33.5,84.5C 34.5,84.5 35.5,84.5 36.5,84.5C 36.5,83.5 36.5,82.5 36.5,81.5C 34.1667,81.5 31.8333,81.5 29.5,81.5C 29.5,80.5 29.5,79.5 29.5,78.5C 31.8333,78.5 34.1667,78.5 36.5,78.5C 36.5,77.5 36.5,76.5 36.5,75.5 Z"/></g>
<g><path style="opacity:1" fill="#9e6644" d="M 90.5,72.5 C 90.8333,72.5 91.1667,72.5 91.5,72.5C 94.1138,78.6521 98.1138,79.8187 103.5,76C 109.491,75.5005 115.491,75.3338 121.5,75.5C 125.5,75.5 129.5,75.5 133.5,75.5C 133.5,76.5 133.5,77.5 133.5,78.5C 135.924,78.1924 138.257,78.5258 140.5,79.5C 140.291,80.086 139.957,80.586 139.5,81C 140.793,81.49 142.127,81.6567 143.5,81.5C 143.5,84.5 143.5,87.5 143.5,90.5C 144.5,90.5 145.5,90.5 146.5,90.5C 146.5,91.5 146.5,92.5 146.5,93.5C 147.5,93.5 148.5,93.5 149.5,93.5C 149.5,94.5 149.5,95.5 149.5,96.5C 150.5,96.5 151.5,96.5 152.5,96.5C 152.5,97.5 152.5,98.5 152.5,99.5C 153.5,99.5 154.5,99.5 155.5,99.5C 155.5,100.5 155.5,101.5 155.5,102.5C 156.5,102.5 157.5,102.5 158.5,102.5C 158.5,104.5 158.5,106.5 158.5,108.5C 159.5,108.5 160.5,108.5 161.5,108.5C 161.5,110.5 161.5,112.5 161.5,114.5C 162.5,114.5 163.5,114.5 164.5,114.5C 164.5,115.5 164.5,116.5 164.5,117.5C 165.5,117.5 166.5,117.5 167.5,117.5C 167.5,125.167 167.5,132.833 167.5,140.5C 166.5,140.5 165.5,140.5 164.5,140.5C 164.5,142.5 164.5,144.5 164.5,146.5C 163.5,146.5 162.5,146.5 161.5,146.5C 161.5,147.5 161.5,148.5 161.5,149.5C 160.5,149.5 159.5,149.5 158.5,149.5C 158.5,150.5 158.5,151.5 158.5,152.5C 156.5,152.5 154.5,152.5 152.5,152.5C 152.5,153.5 152.5,154.5 152.5,155.5C 151.5,155.5 150.5,155.5 149.5,155.5C 150.724,152.049 153.057,149.716 156.5,148.5C 157.386,147.675 157.719,146.675 157.5,145.5C 158.5,145.5 159.5,145.5 160.5,145.5C 160.36,143.876 161.027,142.71 162.5,142C 161.346,141.086 161.513,140.253 163,139.5C 163.925,132.34 163.425,125.34 161.5,118.5C 159.167,118.5 156.833,118.5 154.5,118.5C 154.5,120.5 154.5,122.5 154.5,124.5C 153.5,124.5 152.5,124.5 151.5,124.5C 151.5,123.5 151.5,122.5 151.5,121.5C 150.5,121.5 149.5,121.5 148.5,121.5C 148.5,120.5 148.5,119.5 148.5,118.5C 147.5,118.5 146.5,118.5 145.5,118.5C 145.5,117.5 145.5,116.5 145.5,115.5C 144.5,115.5 143.5,115.5 142.5,115.5C 142.5,114.5 142.5,113.5 142.5,112.5C 144.792,112.756 146.959,112.423 149,111.5C 151.128,108.176 151.961,104.509 151.5,100.5C 150.5,100.5 149.5,100.5 148.5,100.5C 148.919,97.6755 147.919,95.5088 145.5,94C 142.518,93.502 139.518,93.3354 136.5,93.5C 136.5,92.5 136.5,91.5 136.5,90.5C 137.5,90.5 138.5,90.5 139.5,90.5C 139.5,88.5 139.5,86.5 139.5,84.5C 138.5,84.5 137.5,84.5 136.5,84.5C 136.5,83.5 136.5,82.5 136.5,81.5C 133.5,81.5 130.5,81.5 127.5,81.5C 127.5,80.5 127.5,79.5 127.5,78.5C 121.5,78.5 115.5,78.5 109.5,78.5C 109.5,79.5 109.5,80.5 109.5,81.5C 111.5,81.5 113.5,81.5 115.5,81.5C 115.5,82.8333 115.5,84.1667 115.5,85.5C 113.5,85.5 111.5,85.5 109.5,85.5C 109.5,86.5 109.5,87.5 109.5,88.5C 108.167,88.5 106.833,88.5 105.5,88.5C 105.323,86.0194 106.323,84.1861 108.5,83C 107.128,82.5983 105.795,82.0983 104.5,81.5C 103.614,82.325 103.281,83.325 103.5,84.5C 100.5,84.5 97.5,84.5 94.5,84.5C 94.5,83.5 94.5,82.5 94.5,81.5C 93.1667,81.5 91.8333,81.5 90.5,81.5C 90.5,82.5 90.5,83.5 90.5,84.5C 85.5,84.5 80.5,84.5 75.5,84.5C 75.5,83.5 75.5,82.5 75.5,81.5C 78.5,81.5 81.5,81.5 84.5,81.5C 84.5,80.5 84.5,79.5 84.5,78.5C 86.5,78.5 88.5,78.5 90.5,78.5C 90.5,76.5 90.5,74.5 90.5,72.5 Z"/></g>
<g><path style="opacity:1" fill="#677a46" d="M 42.5,89.5 C 42.5,90.8333 42.5,92.1667 42.5,93.5C 44.1667,93.5 45.8333,93.5 47.5,93.5C 47.5,92.5 47.5,91.5 47.5,90.5C 48.8333,90.5 50.1667,90.5 51.5,90.5C 51.5,91.8333 51.5,93.1667 51.5,94.5C 50.5,94.5 49.5,94.5 48.5,94.5C 48.5,95.5 48.5,96.5 48.5,97.5C 47.5,97.5 46.5,97.5 45.5,97.5C 43.8525,95.6736 41.8525,94.3403 39.5,93.5C 39.2148,91.712 39.5481,90.0453 40.5,88.5C 41.1835,88.8627 41.8501,89.1961 42.5,89.5 Z"/></g>
<g><path style="opacity:1" fill="#c4845b" d="M 71.5,87.5 C 69.9291,91.4911 71.0958,94.4911 75,96.5C 77.2705,95.9599 79.4372,95.7932 81.5,96C 82.2202,98.4908 82.8869,100.991 83.5,103.5C 82.8333,103.5 82.1667,103.5 81.5,103.5C 79.9519,103.821 79.2852,104.821 79.5,106.5C 78.1266,106.343 76.7932,106.51 75.5,107C 76.4061,108.699 76.7394,110.533 76.5,112.5C 75.1667,112.5 73.8333,112.5 72.5,112.5C 72.4208,113.93 72.7542,115.264 73.5,116.5C 72.6798,118.111 71.3464,118.778 69.5,118.5C 69.5,119.5 69.5,120.5 69.5,121.5C 68.5,121.5 67.5,121.5 66.5,121.5C 66.5,123.5 66.5,125.5 66.5,127.5C 65.5,127.5 64.5,127.5 63.5,127.5C 63.5,129.5 63.5,131.5 63.5,133.5C 62.5,133.5 61.5,133.5 60.5,133.5C 60.5,131.5 60.5,129.5 60.5,127.5C 59.5,127.5 58.5,127.5 57.5,127.5C 57.5,125.5 57.5,123.5 57.5,121.5C 56.5,121.5 55.5,121.5 54.5,121.5C 54.702,119.05 54.3686,116.717 53.5,114.5C 53.6941,112.088 55.0274,111.088 57.5,111.5C 57.5,109.5 57.5,107.5 57.5,105.5C 58.5,105.5 59.5,105.5 60.5,105.5C 60.5,103.5 60.5,101.5 60.5,99.5C 61.5,99.5 62.5,99.5 63.5,99.5C 63.5,98.5 63.5,97.5 63.5,96.5C 64.5,96.5 65.5,96.5 66.5,96.5C 66.5,95.5 66.5,94.5 66.5,93.5C 67.5,93.5 68.5,93.5 69.5,93.5C 69.0254,90.9179 69.6921,88.9179 71.5,87.5 Z"/></g>
<g><path style="opacity:1" fill="#c7875d" d="M 39.5,93.5 C 41.6917,96.4135 42.6917,99.7468 42.5,103.5C 43.5,103.5 44.5,103.5 45.5,103.5C 45.5,106.5 45.5,109.5 45.5,112.5C 46.5,112.5 47.5,112.5 48.5,112.5C 48.5,114.5 48.5,116.5 48.5,118.5C 49.5,118.5 50.5,118.5 51.5,118.5C 51.5,119.5 51.5,120.5 51.5,121.5C 52.5,121.5 53.5,121.5 54.5,121.5C 54.5,126.5 54.5,131.5 54.5,136.5C 50.4862,136.666 46.4862,136.499 42.5,136C 40.3023,132.723 39.6357,132.89 40.5,136.5C 38.6122,134.012 37.9455,131.012 38.5,127.5C 37.5,127.5 36.5,127.5 35.5,127.5C 35.5,122.5 35.5,117.5 35.5,112.5C 34.5,112.5 33.5,112.5 32.5,112.5C 32.5,108.167 32.5,103.833 32.5,99.5C 33.6879,100.684 34.8545,100.684 36,99.5C 36.5496,96.2024 37.0496,93.2024 37.5,90.5C 38.1757,91.6016 38.8423,92.6016 39.5,93.5 Z"/></g>
<g><path style="opacity:1" fill="#9a6847" d="M 39.5,93.5 C 41.8525,94.3403 43.8525,95.6736 45.5,97.5C 45.5,99.1667 45.5,100.833 45.5,102.5C 46.5,102.5 47.5,102.5 48.5,102.5C 48.5,105.5 48.5,108.5 48.5,111.5C 49.5,111.5 50.5,111.5 51.5,111.5C 51.2852,113.179 51.9519,114.179 53.5,114.5C 54.3686,116.717 54.702,119.05 54.5,121.5C 53.5,121.5 52.5,121.5 51.5,121.5C 51.5,120.5 51.5,119.5 51.5,118.5C 50.5,118.5 49.5,118.5 48.5,118.5C 48.5,116.5 48.5,114.5 48.5,112.5C 47.5,112.5 46.5,112.5 45.5,112.5C 45.5,109.5 45.5,106.5 45.5,103.5C 44.5,103.5 43.5,103.5 42.5,103.5C 42.6917,99.7468 41.6917,96.4135 39.5,93.5 Z"/></g>
<g><path style="opacity:1" fill="#a26844" d="M 128.5,94.5 C 127.505,106.322 127.172,118.322 127.5,130.5C 127.5,131.5 127.5,132.5 127.5,133.5C 125.5,133.5 123.5,133.5 121.5,133.5C 121.5,129.5 121.5,125.5 121.5,121.5C 120.5,121.5 119.5,121.5 118.5,121.5C 118.5,120.5 118.5,119.5 118.5,118.5C 117.5,118.5 116.5,118.5 115.5,118.5C 115.5,117.5 115.5,116.5 115.5,115.5C 112.5,115.5 109.5,115.5 106.5,115.5C 106.5,116.5 106.5,117.5 106.5,118.5C 105.5,118.5 104.5,118.5 103.5,118.5C 103.5,121.5 103.5,124.5 103.5,127.5C 102.167,127.5 100.833,127.5 99.5,127.5C 99.6796,123.318 99.013,119.318 97.5,115.5C 94.1667,115.5 90.8333,115.5 87.5,115.5C 86.5,115.5 85.5,115.5 84.5,115.5C 84.5,113.5 84.5,111.5 84.5,109.5C 83.5,109.5 82.5,109.5 81.5,109.5C 81.5,107.5 81.5,105.5 81.5,103.5C 82.1667,103.5 82.8333,103.5 83.5,103.5C 84.5114,105.372 85.3448,107.372 86,109.5C 86.3333,109.167 86.6667,108.833 87,108.5C 87.49,109.793 87.6567,111.127 87.5,112.5C 91.8333,112.5 96.1667,112.5 100.5,112.5C 100.5,110.5 100.5,108.5 100.5,106.5C 101.5,106.5 102.5,106.5 103.5,106.5C 103.5,108.5 103.5,110.5 103.5,112.5C 109.5,112.5 115.5,112.5 121.5,112.5C 121.5,111.5 121.5,110.5 121.5,109.5C 122.5,109.5 123.5,109.5 124.5,109.5C 124.5,104.167 124.5,98.8333 124.5,93.5C 126.099,93.2322 127.432,93.5655 128.5,94.5 Z"/></g>
<g><path style="opacity:1" fill="#c7875e" d="M 87.5,115.5 C 90.8333,115.5 94.1667,115.5 97.5,115.5C 99.013,119.318 99.6796,123.318 99.5,127.5C 100.833,127.5 102.167,127.5 103.5,127.5C 103.5,124.5 103.5,121.5 103.5,118.5C 104.5,118.5 105.5,118.5 106.5,118.5C 106.5,117.5 106.5,116.5 106.5,115.5C 109.5,115.5 112.5,115.5 115.5,115.5C 115.5,116.5 115.5,117.5 115.5,118.5C 116.5,118.5 117.5,118.5 118.5,118.5C 118.5,119.5 118.5,120.5 118.5,121.5C 119.5,121.5 120.5,121.5 121.5,121.5C 121.5,125.5 121.5,129.5 121.5,133.5C 121.5,134.5 121.5,135.5 121.5,136.5C 120.5,136.5 119.5,136.5 118.5,136.5C 118.5,137.5 118.5,138.5 118.5,139.5C 117.5,139.5 116.5,139.5 115.5,139.5C 115.5,138.5 115.5,137.5 115.5,136.5C 113.5,136.5 111.5,136.5 109.5,136.5C 109.5,137.5 109.5,138.5 109.5,139.5C 107.5,139.5 105.5,139.5 103.5,139.5C 103.5,138.5 103.5,137.5 103.5,136.5C 102.5,136.5 101.5,136.5 100.5,136.5C 100.5,137.5 100.5,138.5 100.5,139.5C 99.1667,139.5 97.8333,139.5 96.5,139.5C 96.5,138.5 96.5,137.5 96.5,136.5C 94.5,136.5 92.5,136.5 90.5,136.5C 90.5,135.5 90.5,134.5 90.5,133.5C 89.5,133.5 88.5,133.5 87.5,133.5C 87.5,132.5 87.5,131.5 87.5,130.5C 87.5,125.5 87.5,120.5 87.5,115.5 Z"/></g>
<g><path style="opacity:1" fill="#9b6340" d="M 54.5,121.5 C 55.5,121.5 56.5,121.5 57.5,121.5C 57.5,123.5 57.5,125.5 57.5,127.5C 58.5,127.5 59.5,127.5 60.5,127.5C 60.5,129.5 60.5,131.5 60.5,133.5C 60.8076,135.924 60.4742,138.257 59.5,140.5C 58.914,140.291 58.414,139.957 58,139.5C 57.51,140.793 57.3433,142.127 57.5,143.5C 53.4862,143.666 49.4862,143.499 45.5,143C 43.2059,141.22 41.5392,139.053 40.5,136.5C 39.6357,132.89 40.3023,132.723 42.5,136C 46.4862,136.499 50.4862,136.666 54.5,136.5C 54.5,131.5 54.5,126.5 54.5,121.5 Z"/></g>
<g><path style="opacity:1" fill="#3e1907" d="M 127.5,130.5 C 128.5,130.5 129.5,130.5 130.5,130.5C 130.5,132.5 130.5,134.5 130.5,136.5C 130.5,139.5 130.5,142.5 130.5,145.5C 128.5,145.5 126.5,145.5 124.5,145.5C 124.5,144.5 124.5,143.5 124.5,142.5C 123.5,142.5 122.5,142.5 121.5,142.5C 121.5,141.5 121.5,140.5 121.5,139.5C 120.5,139.5 119.5,139.5 118.5,139.5C 118.5,138.5 118.5,137.5 118.5,136.5C 119.5,136.5 120.5,136.5 121.5,136.5C 121.5,135.5 121.5,134.5 121.5,133.5C 123.5,133.5 125.5,133.5 127.5,133.5C 127.5,132.5 127.5,131.5 127.5,130.5 Z"/></g>
<g><path style="opacity:1" fill="#51250e" d="M 146.5,142.5 C 146.167,143.167 145.833,143.833 145.5,144.5C 143.735,145.461 141.735,145.795 139.5,145.5C 139.5,144.5 139.5,143.5 139.5,142.5C 138.5,142.5 137.5,142.5 136.5,142.5C 136.5,141.5 136.5,140.5 136.5,139.5C 135.5,139.5 134.5,139.5 133.5,139.5C 133.5,138.5 133.5,137.5 133.5,136.5C 134.5,136.5 135.5,136.5 136.5,136.5C 136.5,134.5 136.5,132.5 136.5,130.5C 137.978,130.238 139.311,130.571 140.5,131.5C 140.291,132.086 139.957,132.586 139.5,133C 140.793,133.49 142.127,133.657 143.5,133.5C 143.5,134.5 143.5,135.5 143.5,136.5C 144.5,136.5 145.5,136.5 146.5,136.5C 146.5,138.5 146.5,140.5 146.5,142.5 Z"/></g>
<g><path style="opacity:1" fill="#a26642" d="M 145.5,144.5 C 148.021,146.03 149.021,148.364 148.5,151.5C 147.5,151.5 146.5,151.5 145.5,151.5C 145.5,150.5 145.5,149.5 145.5,148.5C 143.216,147.971 141.216,146.971 139.5,145.5C 141.735,145.795 143.735,145.461 145.5,144.5 Z"/></g>
<g><path style="opacity:1" fill="#673311" d="M 118.5,139.5 C 119.5,139.5 120.5,139.5 121.5,139.5C 121.5,140.5 121.5,141.5 121.5,142.5C 122.5,142.5 123.5,142.5 124.5,142.5C 124.5,143.5 124.5,144.5 124.5,145.5C 122.5,145.5 120.5,145.5 118.5,145.5C 118.5,146.5 118.5,147.5 118.5,148.5C 117.5,148.5 116.5,148.5 115.5,148.5C 115.5,150.833 115.5,153.167 115.5,155.5C 116.5,155.5 117.5,155.5 118.5,155.5C 118.205,157.735 118.539,159.735 119.5,161.5C 118.167,162.5 118.167,163.5 119.5,164.5C 117.2,165.534 116.534,164.867 117.5,162.5C 116.833,162.167 116.167,161.833 115.5,161.5C 110.404,163.001 105.237,164.001 100,164.5C 98.2859,163.075 96.9525,163.408 96,165.5C 95.4825,160.641 93.9825,156.141 91.5,152C 92.0911,149.761 92.7578,147.594 93.5,145.5C 94.5,145.5 95.5,145.5 96.5,145.5C 96.1192,147.942 96.7859,148.609 98.5,147.5C 102.721,150.703 105.721,154.703 107.5,159.5C 108.5,159.5 109.5,159.5 110.5,159.5C 110.37,155.132 110.703,150.798 111.5,146.5C 111.304,144.714 110.471,143.381 109,142.5C 107.951,143.517 106.784,143.684 105.5,143C 107.027,141.968 108.36,140.801 109.5,139.5C 109.5,138.5 109.5,137.5 109.5,136.5C 111.5,136.5 113.5,136.5 115.5,136.5C 115.5,137.5 115.5,138.5 115.5,139.5C 116.5,139.5 117.5,139.5 118.5,139.5 Z"/></g>
<g><path style="opacity:1" fill="#ba7e59" d="M 130.5,136.5 C 131.5,136.5 132.5,136.5 133.5,136.5C 133.5,137.5 133.5,138.5 133.5,139.5C 134.5,139.5 135.5,139.5 136.5,139.5C 136.5,140.5 136.5,141.5 136.5,142.5C 137.5,142.5 138.5,142.5 139.5,142.5C 139.5,143.5 139.5,144.5 139.5,145.5C 136.753,145.187 134.086,145.52 131.5,146.5C 131.167,147.167 130.833,147.833 130.5,148.5C 132.778,149.215 134.111,150.382 134.5,152C 132.26,152.977 129.927,153.477 127.5,153.5C 127.088,155.973 128.088,157.306 130.5,157.5C 130.5,157.833 130.5,158.167 130.5,158.5C 130.821,160.048 131.821,160.715 133.5,160.5C 133.5,161.833 133.5,163.167 133.5,164.5C 131.5,164.5 129.5,164.5 127.5,164.5C 127.5,163.5 127.5,162.5 127.5,161.5C 126.5,161.5 125.5,161.5 124.5,161.5C 124.5,160.5 124.5,159.5 124.5,158.5C 123.5,158.5 122.5,158.5 121.5,158.5C 121.715,160.179 121.048,161.179 119.5,161.5C 118.539,159.735 118.205,157.735 118.5,155.5C 117.5,155.5 116.5,155.5 115.5,155.5C 115.5,153.167 115.5,150.833 115.5,148.5C 116.5,148.5 117.5,148.5 118.5,148.5C 118.5,147.5 118.5,146.5 118.5,145.5C 120.5,145.5 122.5,145.5 124.5,145.5C 126.5,145.5 128.5,145.5 130.5,145.5C 130.5,142.5 130.5,139.5 130.5,136.5 Z"/></g>
<g><path style="opacity:1" fill="#c7865d" d="M 149.5,155.5 C 148.292,154.766 146.959,154.433 145.5,154.5C 145.5,155.5 145.5,156.5 145.5,157.5C 140.5,157.5 135.5,157.5 130.5,157.5C 128.088,157.306 127.088,155.973 127.5,153.5C 129.927,153.477 132.26,152.977 134.5,152C 134.111,150.382 132.778,149.215 130.5,148.5C 130.833,147.833 131.167,147.167 131.5,146.5C 134.086,145.52 136.753,145.187 139.5,145.5C 141.216,146.971 143.216,147.971 145.5,148.5C 145.5,149.5 145.5,150.5 145.5,151.5C 146.5,151.5 147.5,151.5 148.5,151.5C 149.021,148.364 148.021,146.03 145.5,144.5C 145.833,143.833 146.167,143.167 146.5,142.5C 147.719,140.072 149.219,137.739 151,135.5C 151.494,133.866 151.66,132.199 151.5,130.5C 152.5,130.5 153.5,130.5 154.5,130.5C 154.5,128.5 154.5,126.5 154.5,124.5C 154.5,122.5 154.5,120.5 154.5,118.5C 156.833,118.5 159.167,118.5 161.5,118.5C 163.425,125.34 163.925,132.34 163,139.5C 161.513,140.253 161.346,141.086 162.5,142C 161.027,142.71 160.36,143.876 160.5,145.5C 159.5,145.5 158.5,145.5 157.5,145.5C 157.719,146.675 157.386,147.675 156.5,148.5C 153.057,149.716 150.724,152.049 149.5,155.5 Z"/></g>
<g><path style="opacity:1" fill="#6a3512" d="M 87.5,130.5 C 87.5,131.5 87.5,132.5 87.5,133.5C 88.5,133.5 89.5,133.5 90.5,133.5C 90.5,134.5 90.5,135.5 90.5,136.5C 92.5,136.5 94.5,136.5 96.5,136.5C 96.5,137.5 96.5,138.5 96.5,139.5C 97.8333,139.5 99.1667,139.5 100.5,139.5C 100.5,138.5 100.5,137.5 100.5,136.5C 101.5,136.5 102.5,136.5 103.5,136.5C 103.5,137.5 103.5,138.5 103.5,139.5C 105.5,139.5 107.5,139.5 109.5,139.5C 108.36,140.801 107.027,141.968 105.5,143C 106.784,143.684 107.951,143.517 109,142.5C 110.471,143.381 111.304,144.714 111.5,146.5C 110.703,150.798 110.37,155.132 110.5,159.5C 109.5,159.5 108.5,159.5 107.5,159.5C 105.721,154.703 102.721,150.703 98.5,147.5C 96.7859,148.609 96.1192,147.942 96.5,145.5C 95.5,145.5 94.5,145.5 93.5,145.5C 92.7578,147.594 92.0911,149.761 91.5,152C 93.9825,156.141 95.4825,160.641 96,165.5C 96.9525,163.408 98.2859,163.075 100,164.5C 105.237,164.001 110.404,163.001 115.5,161.5C 116.167,161.833 116.833,162.167 117.5,162.5C 116.534,164.867 117.2,165.534 119.5,164.5C 120.93,164.579 122.264,164.246 123.5,163.5C 124.429,164.689 124.762,166.022 124.5,167.5C 126.5,168.167 128.5,168.833 130.5,169.5C 130.192,171.924 130.526,174.257 131.5,176.5C 132.086,176.291 132.586,175.957 133,175.5C 133.498,178.817 133.665,182.15 133.5,185.5C 132.5,185.5 131.5,185.5 130.5,185.5C 130.5,184.5 130.5,183.5 130.5,182.5C 129.5,182.5 128.5,182.5 127.5,182.5C 127.5,184.5 127.5,186.5 127.5,188.5C 126.5,188.5 125.5,188.5 124.5,188.5C 124.5,187.5 124.5,186.5 124.5,185.5C 122.5,185.5 120.5,185.5 118.5,185.5C 118.5,184.5 118.5,183.5 118.5,182.5C 116.5,182.5 114.5,182.5 112.5,182.5C 112.5,181.5 112.5,180.5 112.5,179.5C 109.221,178.969 107.887,176.969 108.5,173.5C 104.833,173.5 101.167,173.5 97.5,173.5C 97.5,177.5 97.5,181.5 97.5,185.5C 96.5,185.5 95.5,185.5 94.5,185.5C 94.5,186.5 94.5,187.5 94.5,188.5C 92.1667,188.5 89.8333,188.5 87.5,188.5C 87.5,187.5 87.5,186.5 87.5,185.5C 86.5,185.5 85.5,185.5 84.5,185.5C 84.3573,187.262 84.6906,188.929 85.5,190.5C 84.3112,191.429 82.9778,191.762 81.5,191.5C 81.5,190.5 81.5,189.5 81.5,188.5C 80.5,188.5 79.5,188.5 78.5,188.5C 78.5,187.5 78.5,186.5 78.5,185.5C 77.5,185.5 76.5,185.5 75.5,185.5C 75.719,186.675 75.3857,187.675 74.5,188.5C 73.3049,186.703 71.6382,185.703 69.5,185.5C 69.5,181.167 69.5,176.833 69.5,172.5C 70.5,172.5 71.5,172.5 72.5,172.5C 72.5,169.5 72.5,166.5 72.5,163.5C 73.5,163.5 74.5,163.5 75.5,163.5C 75.5,161.5 75.5,159.5 75.5,157.5C 76.5,157.5 77.5,157.5 78.5,157.5C 78.5,156.5 78.5,155.5 78.5,154.5C 79.5,154.5 80.5,154.5 81.5,154.5C 81.5,151.5 81.5,148.5 81.5,145.5C 82.5,145.5 83.5,145.5 84.5,145.5C 84.5,143.833 84.5,142.167 84.5,140.5C 83.5,140.5 82.5,140.5 81.5,140.5C 81.5,139.167 81.5,137.833 81.5,136.5C 82.5,136.5 83.5,136.5 84.5,136.5C 84.5,134.5 84.5,132.5 84.5,130.5C 85.5,130.5 86.5,130.5 87.5,130.5 Z"/></g>
<g><path style="opacity:1" fill="#9b6648" d="M 149.5,155.5 C 149.5,156.5 149.5,157.5 149.5,158.5C 148.5,158.5 147.5,158.5 146.5,158.5C 146.5,159.5 146.5,160.5 146.5,161.5C 143.167,161.5 139.833,161.5 136.5,161.5C 136.5,160.5 136.5,159.5 136.5,158.5C 134.5,158.5 132.5,158.5 130.5,158.5C 130.5,158.167 130.5,157.833 130.5,157.5C 135.5,157.5 140.5,157.5 145.5,157.5C 145.5,156.5 145.5,155.5 145.5,154.5C 146.959,154.433 148.292,154.766 149.5,155.5 Z"/></g>
<g><path style="opacity:1" fill="#3d160b" d="M 130.5,158.5 C 132.5,158.5 134.5,158.5 136.5,158.5C 136.5,159.5 136.5,160.5 136.5,161.5C 136.5,164.167 136.5,166.833 136.5,169.5C 137.822,169.33 138.989,169.663 140,170.5C 140.499,176.491 140.666,182.491 140.5,188.5C 139.833,188.5 139.167,188.5 138.5,188.5C 138.829,182.794 138.495,177.128 137.5,171.5C 135.532,169.546 134.198,167.212 133.5,164.5C 133.5,163.167 133.5,161.833 133.5,160.5C 131.821,160.715 130.821,160.048 130.5,158.5 Z"/></g>
<g><path style="opacity:1" fill="#54280f" d="M 133.5,164.5 C 134.198,167.212 135.532,169.546 137.5,171.5C 138.495,177.128 138.829,182.794 138.5,188.5C 136.952,188.821 136.285,189.821 136.5,191.5C 134.058,191.354 133.391,192.187 134.5,194C 130.179,194.499 125.846,194.666 121.5,194.5C 119.958,193.837 118.291,193.17 116.5,192.5C 114.703,191.305 113.703,189.638 113.5,187.5C 111.678,187.169 110.011,186.502 108.5,185.5C 107.5,185.5 106.5,185.5 105.5,185.5C 105.799,183.396 105.466,181.396 104.5,179.5C 103.516,182.428 103.183,185.428 103.5,188.5C 102.5,188.5 101.5,188.5 100.5,188.5C 98.3862,189.784 97.3862,191.784 97.5,194.5C 93.5633,194.207 89.73,194.54 86,195.5C 82.7154,193.863 79.2154,193.196 75.5,193.5C 75.1788,191.952 74.1788,191.285 72.5,191.5C 72.5,190.5 72.5,189.5 72.5,188.5C 71.5,188.5 70.5,188.5 69.5,188.5C 69.5,187.5 69.5,186.5 69.5,185.5C 71.6382,185.703 73.3049,186.703 74.5,188.5C 75.3857,187.675 75.719,186.675 75.5,185.5C 76.5,185.5 77.5,185.5 78.5,185.5C 78.5,186.5 78.5,187.5 78.5,188.5C 79.5,188.5 80.5,188.5 81.5,188.5C 81.5,189.5 81.5,190.5 81.5,191.5C 82.9778,191.762 84.3112,191.429 85.5,190.5C 84.6906,188.929 84.3573,187.262 84.5,185.5C 85.5,185.5 86.5,185.5 87.5,185.5C 87.5,186.5 87.5,187.5 87.5,188.5C 89.8333,188.5 92.1667,188.5 94.5,188.5C 94.5,187.5 94.5,186.5 94.5,185.5C 95.5,185.5 96.5,185.5 97.5,185.5C 97.5,181.5 97.5,177.5 97.5,173.5C 101.167,173.5 104.833,173.5 108.5,173.5C 107.887,176.969 109.221,178.969 112.5,179.5C 112.5,180.5 112.5,181.5 112.5,182.5C 114.5,182.5 116.5,182.5 118.5,182.5C 118.5,183.5 118.5,184.5 118.5,185.5C 120.5,185.5 122.5,185.5 124.5,185.5C 124.5,186.5 124.5,187.5 124.5,188.5C 125.5,188.5 126.5,188.5 127.5,188.5C 127.5,186.5 127.5,184.5 127.5,182.5C 128.5,182.5 129.5,182.5 130.5,182.5C 130.5,183.5 130.5,184.5 130.5,185.5C 131.5,185.5 132.5,185.5 133.5,185.5C 133.665,182.15 133.498,178.817 133,175.5C 132.586,175.957 132.086,176.291 131.5,176.5C 130.526,174.257 130.192,171.924 130.5,169.5C 128.5,168.833 126.5,168.167 124.5,167.5C 124.762,166.022 124.429,164.689 123.5,163.5C 122.264,164.246 120.93,164.579 119.5,164.5C 118.167,163.5 118.167,162.5 119.5,161.5C 121.048,161.179 121.715,160.179 121.5,158.5C 122.5,158.5 123.5,158.5 124.5,158.5C 124.5,159.5 124.5,160.5 124.5,161.5C 125.5,161.5 126.5,161.5 127.5,161.5C 127.5,162.5 127.5,163.5 127.5,164.5C 129.5,164.5 131.5,164.5 133.5,164.5 Z"/></g>
<g><path style="opacity:1" fill="#3c1608" d="M 108.5,185.5 C 110.011,186.502 111.678,187.169 113.5,187.5C 113.703,189.638 114.703,191.305 116.5,192.5C 118.291,193.17 119.958,193.837 121.5,194.5C 119.167,194.5 116.833,194.5 114.5,194.5C 114.5,193.5 114.5,192.5 114.5,191.5C 113.5,191.5 112.5,191.5 111.5,191.5C 111.5,190.5 111.5,189.5 111.5,188.5C 110.5,188.5 109.5,188.5 108.5,188.5C 108.5,187.5 108.5,186.5 108.5,185.5 Z"/></g>
<g><path style="opacity:1" fill="#3d1c0a" d="M 100.5,188.5 C 100.5,190.5 100.5,192.5 100.5,194.5C 101.5,194.5 102.5,194.5 103.5,194.5C 103.5,197.5 103.5,200.5 103.5,203.5C 103.779,206.118 104.446,208.618 105.5,211C 104.742,212.364 105.242,213.531 107,214.5C 107.767,222.215 107.6,229.882 106.5,237.5C 104.914,236.587 103.414,236.587 102,237.5C 101.216,232.113 101.382,226.78 102.5,221.5C 101.986,218.356 101.153,215.356 100,212.5C 99.0943,214.744 98.5943,217.077 98.5,219.5C 98.5795,227.151 98.5795,234.818 98.5,242.5C 97.8333,236.167 97.1667,229.833 96.5,223.5C 94.997,224.59 94.6637,225.757 95.5,227C 94.4734,227.513 93.4734,228.013 92.5,228.5C 92.6662,222.158 92.4995,215.825 92,209.5C 90.2516,205.083 88.4183,200.75 86.5,196.5C 84.901,196.232 83.5676,196.566 82.5,197.5C 81.596,196.791 81.2627,195.791 81.5,194.5C 79.2646,194.795 77.2646,194.461 75.5,193.5C 79.2154,193.196 82.7154,193.863 86,195.5C 89.73,194.54 93.5633,194.207 97.5,194.5C 97.3862,191.784 98.3862,189.784 100.5,188.5 Z"/></g>
<g><path style="opacity:0.667" fill="#b499a3" d="M 24.5,204.5 C 24.369,203.761 24.5357,203.094 25,202.5C 25.6917,203.437 25.525,204.103 24.5,204.5 Z"/></g>
<g><path style="opacity:0.675" fill="#d4b1bf" d="M 39.5,202.5 C 43.2711,202.875 47.2711,202.875 51.5,202.5C 51.8841,204.665 51.2174,206.332 49.5,207.5C 48.1667,206.167 46.8333,206.167 45.5,207.5C 44.4593,205.009 43.6259,205.009 43,207.5C 41.6914,205.109 40.6914,205.109 40,207.5C 39.5065,205.866 39.3398,204.199 39.5,202.5 Z"/></g>
<g><path style="opacity:0.247" fill="#d9bccb" d="M 52.5,203.5 C 60.3475,202.862 68.5142,202.529 77,202.5C 78.8333,202.667 80.6667,202.833 82.5,203C 83.5536,204.388 83.7203,205.888 83,207.5C 79.9179,206.917 76.5846,206.917 73,207.5C 71.4192,205.153 70.0859,205.153 69,207.5C 64.9116,207.255 60.9116,207.255 57,207.5C 55.6914,205.109 54.6914,205.109 54,207.5C 53.79,205.942 53.29,204.609 52.5,203.5 Z"/></g>
<g><path style="opacity:0.188" fill="#bba6ad" d="M 24.5,204.5 C 24.3605,206.337 23.6939,206.67 22.5,205.5C 22.9569,204.702 23.6236,204.369 24.5,204.5 Z"/></g>
<g><path style="opacity:0.467" fill="#bf9ea8" d="M 26.5,202.5 C 27.8333,202.5 29.1667,202.5 30.5,202.5C 30.8841,204.665 30.2174,206.332 28.5,207.5C 26.7826,206.332 26.1159,204.665 26.5,202.5 Z"/></g>
<g><path style="opacity:0.51" fill="#c8a5af" d="M 32.5,202.5 C 34.3888,203.38 36.3888,203.38 38.5,202.5C 38.8841,204.665 38.2174,206.332 36.5,207.5C 34.6503,206.758 33.9836,205.758 34.5,204.5C 33.2011,205.09 32.3678,206.09 32,207.5C 31.6155,205.803 31.7822,204.137 32.5,202.5 Z"/></g>
<g><path style="opacity:1" fill="#2f120d" d="M 103.5,203.5 C 104.5,203.5 105.5,203.5 106.5,203.5C 106.5,206.5 106.5,209.5 106.5,212.5C 107.5,212.5 108.5,212.5 109.5,212.5C 109.5,220.833 109.5,229.167 109.5,237.5C 108.5,237.5 107.5,237.5 106.5,237.5C 107.6,229.882 107.767,222.215 107,214.5C 105.242,213.531 104.742,212.364 105.5,211C 104.446,208.618 103.779,206.118 103.5,203.5 Z"/></g>
<g><path style="opacity:1" fill="#3d1c0b" d="M 138.5,188.5 C 138.334,195.508 138.5,202.508 139,209.5C 139.308,210.308 139.808,210.975 140.5,211.5C 141.18,220.392 141.846,229.226 142.5,238C 141.798,240.056 142.465,241.889 144.5,243.5C 145.325,244.386 146.325,244.719 147.5,244.5C 147.5,245.833 147.5,247.167 147.5,248.5C 144.269,250.582 140.602,251.915 136.5,252.5C 133.03,251.926 130.03,250.592 127.5,248.5C 127.5,249.5 127.5,250.5 127.5,251.5C 127.5,251.833 127.5,252.167 127.5,252.5C 127.167,252.5 126.833,252.5 126.5,252.5C 124.792,249.078 125.292,246.078 128,243.5C 128.167,240.833 128.333,238.167 128.5,235.5C 126.324,224.33 124.991,212.997 124.5,201.5C 120.485,201.181 119.485,198.848 121.5,194.5C 125.846,194.666 130.179,194.499 134.5,194C 133.391,192.187 134.058,191.354 136.5,191.5C 136.285,189.821 136.952,188.821 138.5,188.5 Z"/></g>
<g><path style="opacity:1" fill="#3c1c0c" d="M 106.5,237.5 C 106.5,242.5 106.5,247.5 106.5,252.5C 105.167,252.5 103.833,252.5 102.5,252.5C 102.715,250.821 102.048,249.821 100.5,249.5C 93.7273,249.946 87.3939,248.613 81.5,245.5C 80.4163,245.685 79.4163,246.018 78.5,246.5C 78.5,245.167 78.5,243.833 78.5,242.5C 79.791,242.737 80.791,242.404 81.5,241.5C 82.2216,241.918 82.7216,242.584 83,243.5C 84.3088,241.024 86.1421,239.024 88.5,237.5C 89.6266,234.26 90.96,231.26 92.5,228.5C 93.4734,228.013 94.4734,227.513 95.5,227C 94.6637,225.757 94.997,224.59 96.5,223.5C 97.1667,229.833 97.8333,236.167 98.5,242.5C 98.5795,234.818 98.5795,227.151 98.5,219.5C 98.5943,217.077 99.0943,214.744 100,212.5C 101.153,215.356 101.986,218.356 102.5,221.5C 101.382,226.78 101.216,232.113 102,237.5C 103.414,236.587 104.914,236.587 106.5,237.5 Z"/></g>
<g><path style="opacity:1" fill="#2b130b" d="M 82.5,197.5 C 83.5676,196.566 84.901,196.232 86.5,196.5C 88.4183,200.75 90.2516,205.083 92,209.5C 92.4995,215.825 92.6662,222.158 92.5,228.5C 90.96,231.26 89.6266,234.26 88.5,237.5C 86.1421,239.024 84.3088,241.024 83,243.5C 82.7216,242.584 82.2216,241.918 81.5,241.5C 81.8212,239.952 82.8212,239.285 84.5,239.5C 84.5,238.5 84.5,237.5 84.5,236.5C 85.5,236.5 86.5,236.5 87.5,236.5C 87.5,234.5 87.5,232.5 87.5,230.5C 88.5,230.5 89.5,230.5 90.5,230.5C 90.5,223.833 90.5,217.167 90.5,210.5C 89.5,210.5 88.5,210.5 87.5,210.5C 87.5,207.167 87.5,203.833 87.5,200.5C 86.5,200.5 85.5,200.5 84.5,200.5C 84.7148,198.821 84.0481,197.821 82.5,197.5 Z"/></g>
<g><path style="opacity:1" fill="#1e0701" d="M 124.5,201.5 C 124.991,212.997 126.324,224.33 128.5,235.5C 128.333,238.167 128.167,240.833 128,243.5C 125.292,246.078 124.792,249.078 126.5,252.5C 124.598,249.663 123.931,246.329 124.5,242.5C 125.5,242.5 126.5,242.5 127.5,242.5C 127.5,237.833 127.5,233.167 127.5,228.5C 126.5,228.5 125.5,228.5 124.5,228.5C 124.5,219.5 124.5,210.5 124.5,201.5 Z"/></g>
<g><path style="opacity:1" fill="#27110a" d="M 138.5,188.5 C 139.167,188.5 139.833,188.5 140.5,188.5C 140.5,195.5 140.5,202.5 140.5,209.5C 141.5,209.5 142.5,209.5 143.5,209.5C 143.5,218.5 143.5,227.5 143.5,236.5C 144.5,236.5 145.5,236.5 146.5,236.5C 147.858,240.712 148.858,245.045 149.5,249.5C 148.833,249.167 148.167,248.833 147.5,248.5C 147.5,247.167 147.5,245.833 147.5,244.5C 146.325,244.719 145.325,244.386 144.5,243.5C 142.465,241.889 141.798,240.056 142.5,238C 141.846,229.226 141.18,220.392 140.5,211.5C 139.808,210.975 139.308,210.308 139,209.5C 138.5,202.508 138.334,195.508 138.5,188.5 Z"/></g>
<g><path style="opacity:1" fill="#341320" d="M 147.5,248.5 C 148.167,248.833 148.833,249.167 149.5,249.5C 149.5,252.5 149.5,255.5 149.5,258.5C 148.833,258.5 148.167,258.5 147.5,258.5C 147.5,255.833 147.5,253.167 147.5,250.5C 144.744,252.293 141.577,253.293 138,253.5C 134.335,253.519 130.835,252.852 127.5,251.5C 127.5,250.5 127.5,249.5 127.5,248.5C 130.03,250.592 133.03,251.926 136.5,252.5C 140.602,251.915 144.269,250.582 147.5,248.5 Z"/></g>
<g><path style="opacity:1" fill="#34122e" d="M 100.5,249.5 C 100.5,250.5 100.5,251.5 100.5,252.5C 99.5,252.5 98.5,252.5 97.5,252.5C 97.5,254.5 97.5,256.5 97.5,258.5C 90.1667,258.5 82.8333,258.5 75.5,258.5C 75.1796,255.102 75.513,251.768 76.5,248.5C 78.2141,249.609 78.8808,248.942 78.5,246.5C 79.4163,246.018 80.4163,245.685 81.5,245.5C 87.3939,248.613 93.7273,249.946 100.5,249.5 Z"/></g>
<g><path style="opacity:1" fill="#34122e" d="M 147.5,258.5 C 141.833,258.5 136.167,258.5 130.5,258.5C 130.5,257.5 130.5,256.5 130.5,255.5C 129.5,255.5 128.5,255.5 127.5,255.5C 127.5,254.5 127.5,253.5 127.5,252.5C 127.5,252.167 127.5,251.833 127.5,251.5C 130.835,252.852 134.335,253.519 138,253.5C 141.577,253.293 144.744,252.293 147.5,250.5C 147.5,253.167 147.5,255.833 147.5,258.5 Z"/></g>
</svg>
