<?xml version="1.0" encoding="UTF-8"?>
<svg version="1.1" xmlns="http://www.w3.org/2000/svg" width="195" height="259">
<path d="M0 0 C64.35 0 128.7 0 195 0 C195 85.47 195 170.94 195 259 C130.65 259 66.3 259 0 259 C0 173.53 0 88.06 0 0 Z " fill="#C6855C" transform="translate(0,0)"/>
<path d="M0 0 C24.09 0 48.18 0 73 0 C73 0.99 73 1.98 73 3 C72.01 3 71.02 3 70 3 C70 4.98 70 6.96 70 9 C69.01 9 68.02 9 67 9 C67 12.96 67 16.92 67 21 C66.01 21 65.02 21 64 21 C64 21.99 64 22.98 64 24 C64.99 24 65.98 24 67 24 C67 26.31 67 28.62 67 31 C66.01 31 65.02 31 64 31 C64 35.95 64 40.9 64 46 C62.02 46 60.04 46 58 46 C58 46.99 58 47.98 58 49 C56.02 49 54.04 49 52 49 C52 49.99 52 50.98 52 52 C51.01 52 50.02 52 49 52 C49 52.99 49 53.98 49 55 C51.97 55 54.94 55 58 55 C58 55.99 58 56.98 58 58 C61.96 58 65.92 58 70 58 C70 58.99 70 59.98 70 61 C69.01 61 68.02 61 67 61 C67 61.99 67 62.98 67 64 C68.98 64 70.96 64 73 64 C73 63.01 73 62.02 73 61 C73.99 61 74.98 61 76 61 C76 63.97 76 66.94 76 70 C76.99 70 77.98 70 79 70 C79 69.01 79 68.02 79 67 C79.99 67 80.98 67 82 67 C82 67.99 82 68.98 82 70 C83.98 70 85.96 70 88 70 C88 70.99 88 71.98 88 73 C88.99 73 89.98 73 91 73 C91 74.98 91 76.96 91 79 C89.02 79 87.04 79 85 79 C85 79.99 85 80.98 85 82 C82.03 82 79.06 82 76 82 C76 82.99 76 83.98 76 85 C75.01 85 74.02 85 73 85 C73 85.99 73 86.98 73 88 C72.01 88 71.02 88 70 88 C70 89.98 70 91.96 70 94 C69.01 94 68.02 94 67 94 C67 95.32 67 96.64 67 98 C66.01 98 65.02 98 64 98 C64 98.99 64 99.98 64 101 C63.01 101 62.02 101 61 101 C61 102.98 61 104.96 61 107 C60.01 107 59.02 107 58 107 C58 108.98 58 110.96 58 113 C57.01 113 56.02 113 55 113 C55 113.99 55 114.98 55 116 C54.01 116 53.02 116 52 116 C52 115.01 52 114.02 52 113 C51.01 113 50.02 113 49 113 C49 110.03 49 107.06 49 104 C48.01 104 47.02 104 46 104 C46 101.69 46 99.38 46 97 C46.99 97 47.98 97 49 97 C49 96.34 49 95.68 49 95 C49.99 95 50.98 95 52 95 C52 93.68 52 92.36 52 91 C50.68 91 49.36 91 48 91 C48 91.99 48 92.98 48 94 C46.35 94 44.7 94 43 94 C43 92.02 43 90.04 43 88 C43.99 88 44.98 88 46 88 C46 82.06 46 76.12 46 70 C45.01 70 44.02 70 43 70 C43 69.01 43 68.02 43 67 C42.01 67 41.02 67 40 67 C40 66.01 40 65.02 40 64 C39.01 64 38.02 64 37 64 C37 63.01 37 62.02 37 61 C35.68 61 34.36 61 33 61 C33 60.01 33 59.02 33 58 C32.34 58 31.68 58 31 58 C31 58.99 31 59.98 31 61 C29.68 61 28.36 61 27 61 C27 63.97 27 66.94 27 70 C26.01 70 25.02 70 24 70 C24 75.94 24 81.88 24 88 C25.32 88.33 26.64 88.66 28 89 C28 89.66 28 90.32 28 91 C28.99 91 29.98 91 31 91 C31 91.99 31 92.98 31 94 C31.99 94 32.98 94 34 94 C34 100.27 34 106.54 34 113 C34.99 113 35.98 113 37 113 C37 117.95 37 122.9 37 128 C37.99 128 38.98 128 40 128 C40 130.97 40 133.94 40 137 C40.99 137 41.98 137 43 137 C43 137.99 43 138.98 43 140 C43.99 140 44.98 140 46 140 C46 140.99 46 141.98 46 143 C49.96 143 53.92 143 58 143 C58 142.01 58 141.02 58 140 C58.99 140 59.98 140 61 140 C61 138.02 61 136.04 61 134 C61.99 134 62.98 134 64 134 C64 132.02 64 130.04 64 128 C64.99 128 65.98 128 67 128 C67 126.02 67 124.04 67 122 C67.99 122 68.98 122 70 122 C70 121.01 70 120.02 70 119 C70.99 119 71.98 119 73 119 C73 117.02 73 115.04 73 113 C73.99 113 74.98 113 76 113 C76 111.02 76 109.04 76 107 C76.99 107 77.98 107 79 107 C79 106.01 79 105.02 79 104 C79.99 104 80.98 104 82 104 C82 105.98 82 107.96 82 110 C82.99 110 83.98 110 85 110 C85 111.98 85 113.96 85 116 C85.99 116 86.98 116 88 116 C88 120.95 88 125.9 88 131 C87.01 131 86.02 131 85 131 C85 132.98 85 134.96 85 137 C84.01 137 83.02 137 82 137 C82 137.99 82 138.98 82 140 C82.99 140 83.98 140 85 140 C85 141.98 85 143.96 85 146 C84.01 146 83.02 146 82 146 C82 148.97 82 151.94 82 155 C81.01 155 80.02 155 79 155 C79 155.99 79 156.98 79 158 C78.01 158 77.02 158 76 158 C76 160.31 76 162.62 76 165 C75.01 165 74.02 165 73 165 C73 167.97 73 170.94 73 174 C72.01 174 71.02 174 70 174 C70 178.95 70 183.9 70 189 C70.99 189 71.98 189 73 189 C73 189.99 73 190.98 73 192 C73.99 192 74.98 192 76 192 C76 192.99 76 193.98 76 195 C77.98 195 79.96 195 82 195 C82 195.99 82 196.98 82 198 C82.99 198 83.98 198 85 198 C85 198.99 85 199.98 85 201 C85.99 201 86.98 201 88 201 C88 203.97 88 206.94 88 210 C88.99 210 89.98 210 91 210 C91 217.26 91 224.52 91 232 C90.01 232 89.02 232 88 232 C88 233.98 88 235.96 88 238 C87.01 238 86.02 238 85 238 C85 238.99 85 239.98 85 241 C84.01 241 83.02 241 82 241 C82 241.99 82 242.98 82 244 C81.01 244 80.02 244 79 244 C79 245.98 79 247.96 79 250 C78.01 250 77.02 250 76 250 C76 252.97 76 255.94 76 259 C50.92 259 25.84 259 0 259 C0 173.53 0 88.06 0 0 Z " fill="#FEFDFE" transform="translate(0,0)"/>
<path d="M0 0 C26.07 0 52.14 0 79 0 C79 85.47 79 170.94 79 259 C63.82 259 48.64 259 33 259 C33 254.05 33 249.1 33 244 C32.01 244 31.02 244 30 244 C30 242.02 30 240.04 30 238 C29.01 238 28.02 238 27 238 C27 228.76 27 219.52 27 210 C26.01 210 25.02 210 24 210 C24 197.13 24 184.26 24 171 C23.01 171 22.02 171 21 171 C21 167.7 21 164.4 21 161 C23.97 161 26.94 161 30 161 C30 160.01 30 159.02 30 158 C30.99 158 31.98 158 33 158 C33 157.01 33 156.02 33 155 C33.99 155 34.98 155 36 155 C36 154.01 36 153.02 36 152 C37.98 152 39.96 152 42 152 C42 151.01 42 150.02 42 149 C43.32 149 44.64 149 46 149 C46 148.01 46 147.02 46 146 C46.99 146 47.98 146 49 146 C49 144.02 49 142.04 49 140 C49.66 140 50.32 140 51 140 C51 133.07 51 126.14 51 119 C50.01 119 49.02 119 48 119 C48 118.01 48 117.02 48 116 C47.01 116 46.02 116 45 116 C45 114.02 45 112.04 45 110 C44.01 110 43.02 110 42 110 C42 108.02 42 106.04 42 104 C41.01 104 40.02 104 39 104 C39 103.01 39 102.02 39 101 C38.01 101 37.02 101 36 101 C36 100.01 36 99.02 36 98 C35.01 98 34.02 98 33 98 C33 97.01 33 96.02 33 95 C32.01 95 31.02 95 30 95 C30 94.01 30 93.02 30 92 C29.01 92 28.02 92 27 92 C27 88.7 27 85.4 27 82 C26.01 82 25.02 82 24 82 C24 81.01 24 80.02 24 79 C22.02 79 20.04 79 18 79 C18 78.01 18 77.02 18 76 C14.04 76 10.08 76 6 76 C6 75.01 6 74.02 6 73 C3.03 73 0.06 73 -3 73 C-3 72.01 -3 71.02 -3 70 C-2.01 70 -1.02 70 0 70 C0 69.01 0 68.02 0 67 C-0.99 67 -1.98 67 -3 67 C-3 66.01 -3 65.02 -3 64 C-2.01 64 -1.02 64 0 64 C0 63.01 0 62.02 0 61 C0.99 61 1.98 61 3 61 C3 61.99 3 62.98 3 64 C4.98 64 6.96 64 9 64 C9 63.01 9 62.02 9 61 C8.01 61 7.02 61 6 61 C6 59.02 6 57.04 6 55 C6.99 55 7.98 55 9 55 C9 55.99 9 56.98 9 58 C11.97 58 14.94 58 18 58 C18 57.01 18 56.02 18 55 C20.97 55 23.94 55 27 55 C27 54.01 27 53.02 27 52 C27.99 52 28.98 52 30 52 C30 51.01 30 50.02 30 49 C29.01 49 28.02 49 27 49 C27 48.01 27 47.02 27 46 C24.03 46 21.06 46 18 46 C18 45.01 18 44.02 18 43 C16.02 43 14.04 43 12 43 C12 42.01 12 41.02 12 40 C12.99 40 13.98 40 15 40 C15 37.69 15 35.38 15 33 C14.01 33 13.02 33 12 33 C12 32.01 12 31.02 12 30 C12.99 30 13.98 30 15 30 C15 29.34 15 28.68 15 28 C14.01 28 13.02 28 12 28 C12 26.68 12 25.36 12 24 C11.01 24 10.02 24 9 24 C9 20.04 9 16.08 9 12 C8.01 12 7.02 12 6 12 C6 10.02 6 8.04 6 6 C5.01 6 4.02 6 3 6 C3 5.01 3 4.02 3 3 C2.01 3 1.02 3 0 3 C0 2.01 0 1.02 0 0 Z " fill="#FEFEFE" transform="translate(116,0)"/>
<path d="M0 0 C0.99 0 1.98 0 3 0 C3 0.99 3 1.98 3 3 C3.99 3 4.98 3 6 3 C6 3.99 6 4.98 6 6 C7.98 6 9.96 6 12 6 C12 6.99 12 7.98 12 9 C13.32 9 14.64 9 16 9 C16 8.01 16 7.02 16 6 C16.66 6 17.32 6 18 6 C18 6.99 18 7.98 18 9 C20.31 9 22.62 9 25 9 C25 8.01 25 7.02 25 6 C26.98 6 28.96 6 31 6 C31 6.99 31 7.98 31 9 C31.99 9 32.98 9 34 9 C34 8.01 34 7.02 34 6 C34.99 6 35.98 6 37 6 C37 5.01 37 4.02 37 3 C38.98 3 40.96 3 43 3 C43 2.01 43 1.02 43 0 C43.99 0 44.98 0 46 0 C46 4.95 46 9.9 46 15 C42.04 15 38.08 15 34 15 C34 15.99 34 16.98 34 18 C33.01 18 32.02 18 31 18 C31 20.31 31 22.62 31 25 C31.99 25 32.98 25 34 25 C34 26.98 34 28.96 34 31 C34.99 31 35.98 31 37 31 C37 30.01 37 29.02 37 28 C37.99 28 38.98 28 40 28 C40 28.99 40 29.98 40 31 C40.99 31 41.98 31 43 31 C43 31.99 43 32.98 43 34 C44.98 34 46.96 34 49 34 C49 32.68 49 31.36 49 30 C48.01 30 47.02 30 46 30 C46 29.34 46 28.68 46 28 C47.98 28 49.96 28 52 28 C52 31.96 52 35.92 52 40 C52.99 40 53.98 40 55 40 C55 52.87 55 65.74 55 79 C55.99 79 56.98 79 58 79 C58 88.24 58 97.48 58 107 C58.99 107 59.98 107 61 107 C61 108.98 61 110.96 61 113 C61.99 113 62.98 113 64 113 C64 117.95 64 122.9 64 128 C39.91 128 15.82 128 -9 128 C-9 125.03 -9 122.06 -9 119 C-8.01 119 -7.02 119 -6 119 C-6 117.02 -6 115.04 -6 113 C-5.01 113 -4.02 113 -3 113 C-3 112.01 -3 111.02 -3 110 C-2.01 110 -1.02 110 0 110 C0 109.01 0 108.02 0 107 C0.99 107 1.98 107 3 107 C3 105.02 3 103.04 3 101 C3.99 101 4.98 101 6 101 C6 93.74 6 86.48 6 79 C5.01 79 4.02 79 3 79 C3 76.03 3 73.06 3 70 C2.01 70 1.02 70 0 70 C0 69.01 0 68.02 0 67 C-0.99 67 -1.98 67 -3 67 C-3 66.01 -3 65.02 -3 64 C-4.98 64 -6.96 64 -9 64 C-9 63.01 -9 62.02 -9 61 C-9.99 61 -10.98 61 -12 61 C-12 60.01 -12 59.02 -12 58 C-12.99 58 -13.98 58 -15 58 C-15 53.05 -15 48.1 -15 43 C-14.01 43 -13.02 43 -12 43 C-12 40.03 -12 37.06 -12 34 C-11.01 34 -10.02 34 -9 34 C-9 31.69 -9 29.38 -9 27 C-8.01 27 -7.02 27 -6 27 C-6 26.01 -6 25.02 -6 24 C-5.01 24 -4.02 24 -3 24 C-3 21.03 -3 18.06 -3 15 C-2.01 15 -1.02 15 0 15 C0 13.02 0 11.04 0 9 C-0.99 9 -1.98 9 -3 9 C-3 8.01 -3 7.02 -3 6 C-2.01 6 -1.02 6 0 6 C0 4.02 0 2.04 0 0 Z " fill="#422210" transform="translate(85,131)"/>
<path d="M0 0 C14.19 0 28.38 0 43 0 C43 0.99 43 1.98 43 3 C43.99 3 44.98 3 46 3 C46 3.99 46 4.98 46 6 C46.99 6 47.98 6 49 6 C49 7.98 49 9.96 49 12 C49.99 12 50.98 12 52 12 C52 15.96 52 19.92 52 24 C52.99 24 53.98 24 55 24 C55 25.32 55 26.64 55 28 C55.99 28 56.98 28 58 28 C58 28.66 58 29.32 58 30 C57.01 30 56.02 30 55 30 C55 30.99 55 31.98 55 33 C55.99 33 56.98 33 58 33 C58 35.31 58 37.62 58 40 C57.01 40 56.02 40 55 40 C55 40.99 55 41.98 55 43 C56.98 43 58.96 43 61 43 C61 43.99 61 44.98 61 46 C63.97 46 66.94 46 70 46 C70 46.99 70 47.98 70 49 C70.99 49 71.98 49 73 49 C73 49.99 73 50.98 73 52 C72.01 52 71.02 52 70 52 C70 52.99 70 53.98 70 55 C67.03 55 64.06 55 61 55 C61 55.99 61 56.98 61 58 C58.03 58 55.06 58 52 58 C52 57.01 52 56.02 52 55 C51.01 55 50.02 55 49 55 C49 56.98 49 58.96 49 61 C49.99 61 50.98 61 52 61 C52 61.99 52 62.98 52 64 C50.02 64 48.04 64 46 64 C46 63.01 46 62.02 46 61 C45.01 61 44.02 61 43 61 C43 61.99 43 62.98 43 64 C42.01 64 41.02 64 40 64 C40 64.99 40 65.98 40 67 C40.99 67 41.98 67 43 67 C43 67.99 43 68.98 43 70 C42.01 70 41.02 70 40 70 C40 70.99 40 71.98 40 73 C42.97 73 45.94 73 49 73 C49 73.99 49 74.98 49 76 C52.96 76 56.92 76 61 76 C61 76.99 61 77.98 61 79 C62.98 79 64.96 79 67 79 C67 79.99 67 80.98 67 82 C67.99 82 68.98 82 70 82 C70 85.3 70 88.6 70 92 C70.99 92 71.98 92 73 92 C73 92.66 73 93.32 73 94 C70.03 94 67.06 94 64 94 C64 93.01 64 92.02 64 91 C64.99 91 65.98 91 67 91 C67 89.02 67 87.04 67 85 C66.01 85 65.02 85 64 85 C64 84.01 64 83.02 64 82 C61.03 82 58.06 82 55 82 C55 81.01 55 80.02 55 79 C48.73 79 42.46 79 36 79 C36 79.99 36 80.98 36 82 C34.35 82 32.7 82 31 82 C31 82.99 31 83.98 31 85 C28.03 85 25.06 85 22 85 C22 84.01 22 83.02 22 82 C21.01 82 20.02 82 19 82 C19 82.99 19 83.98 19 85 C19.66 85 20.32 85 21 85 C21 85.99 21 86.98 21 88 C20.01 88 19.02 88 18 88 C18 87.01 18 86.02 18 85 C13.38 85 8.76 85 4 85 C4 84.34 4 83.68 4 83 C6.64 83 9.28 83 12 83 C12 81.68 12 80.36 12 79 C13.98 79 15.96 79 18 79 C18 77.02 18 75.04 18 73 C17.01 73 16.02 73 15 73 C15 72.01 15 71.02 15 70 C13.02 70 11.04 70 9 70 C9 69.01 9 68.02 9 67 C8.01 67 7.02 67 6 67 C6 67.99 6 68.98 6 70 C5.01 70 4.02 70 3 70 C3 67.03 3 64.06 3 61 C2.01 61 1.02 61 0 61 C0 61.99 0 62.98 0 64 C-1.98 64 -3.96 64 -6 64 C-6 63.01 -6 62.02 -6 61 C-5.01 61 -4.02 61 -3 61 C-3 60.01 -3 59.02 -3 58 C-6.96 58 -10.92 58 -15 58 C-15 57.01 -15 56.02 -15 55 C-17.97 55 -20.94 55 -24 55 C-24 54.01 -24 53.02 -24 52 C-23.01 52 -22.02 52 -21 52 C-21 51.01 -21 50.02 -21 49 C-19.02 49 -17.04 49 -15 49 C-15 48.01 -15 47.02 -15 46 C-13.02 46 -11.04 46 -9 46 C-9 41.05 -9 36.1 -9 31 C-8.01 31 -7.02 31 -6 31 C-6 28.69 -6 26.38 -6 24 C-6.99 24 -7.98 24 -9 24 C-9 23.01 -9 22.02 -9 21 C-8.01 21 -7.02 21 -6 21 C-6 17.04 -6 13.08 -6 9 C-5.01 9 -4.02 9 -3 9 C-3 7.02 -3 5.04 -3 3 C-2.01 3 -1.02 3 0 3 C0 2.01 0 1.02 0 0 Z " fill="#C4845B" transform="translate(73,0)"/>
<path d="M0 0 C0.99 0 1.98 0 3 0 C3 0.99 3 1.98 3 3 C3.99 3 4.98 3 6 3 C6 3.99 6 4.98 6 6 C7.98 6 9.96 6 12 6 C12 6.99 12 7.98 12 9 C13.32 9 14.64 9 16 9 C16 8.01 16 7.02 16 6 C16.66 6 17.32 6 18 6 C18 6.99 18 7.98 18 9 C20.31 9 22.62 9 25 9 C25 8.01 25 7.02 25 6 C26.98 6 28.96 6 31 6 C31 6.99 31 7.98 31 9 C31.99 9 32.98 9 34 9 C34 8.01 34 7.02 34 6 C34.99 6 35.98 6 37 6 C37 5.01 37 4.02 37 3 C38.98 3 40.96 3 43 3 C43 2.01 43 1.02 43 0 C43.99 0 44.98 0 46 0 C46 4.95 46 9.9 46 15 C42.04 15 38.08 15 34 15 C34 15.99 34 16.98 34 18 C33.01 18 32.02 18 31 18 C31 20.31 31 22.62 31 25 C31.99 25 32.98 25 34 25 C34 27.64 34 30.28 34 33 C35.98 33 37.96 33 40 33 C40 33.99 40 34.98 40 36 C40.99 36 41.98 36 43 36 C43 36.99 43 37.98 43 39 C43.99 39 44.98 39 46 39 C46 41.31 46 43.62 46 46 C46.99 45.67 47.98 45.34 49 45 C49 48.3 49 51.6 49 55 C48.01 55 47.02 55 46 55 C46 54.01 46 53.02 46 52 C45.01 52 44.02 52 43 52 C43 53.98 43 55.96 43 58 C42.01 58 41.02 58 40 58 C40 57.01 40 56.02 40 55 C38.02 55 36.04 55 34 55 C34 54.01 34 53.02 34 52 C32.02 52 30.04 52 28 52 C28 51.01 28 50.02 28 49 C26.68 48.67 25.36 48.34 24 48 C24 46.35 24 44.7 24 43 C20.37 43 16.74 43 13 43 C13 42.01 13 41.02 13 40 C11.68 40 10.36 40 9 40 C9 40.99 9 41.98 9 43 C9.99 43 10.98 43 12 43 C12 46.96 12 50.92 12 55 C11.34 55 10.68 55 10 55 C10 55.99 10 56.98 10 58 C7.69 58 5.38 58 3 58 C3 57.01 3 56.02 3 55 C2.01 55.495 2.01 55.495 1 56 C1 57.65 1 59.3 1 61 C-0.32 61 -1.64 61 -3 61 C-3 60.01 -3 59.02 -3 58 C-3.99 58 -4.98 58 -6 58 C-6 57.01 -6 56.02 -6 55 C-6.99 55 -7.98 55 -9 55 C-9 55.99 -9 56.98 -9 58 C-9.66 58 -10.32 58 -11 58 C-11.33 58.99 -11.66 59.98 -12 61 C-12 60.01 -12 59.02 -12 58 C-12.99 58 -13.98 58 -15 58 C-15 53.05 -15 48.1 -15 43 C-14.01 43 -13.02 43 -12 43 C-12 40.03 -12 37.06 -12 34 C-11.01 34 -10.02 34 -9 34 C-9 31.69 -9 29.38 -9 27 C-8.01 27 -7.02 27 -6 27 C-6 26.01 -6 25.02 -6 24 C-5.01 24 -4.02 24 -3 24 C-3 21.03 -3 18.06 -3 15 C-2.01 15 -1.02 15 0 15 C0 13.02 0 11.04 0 9 C-0.99 9 -1.98 9 -3 9 C-3 8.01 -3 7.02 -3 6 C-2.01 6 -1.02 6 0 6 C0 4.02 0 2.04 0 0 Z " fill="#6C3613" transform="translate(85,131)"/>
<path d="M0 0 C0.66 0 1.32 0 2 0 C2 0.99 2 1.98 2 3 C3.32 3 4.64 3 6 3 C6 3.99 6 4.98 6 6 C6.99 6 7.98 6 9 6 C9 6.99 9 7.98 9 9 C9.99 9 10.98 9 12 9 C12 9.99 12 10.98 12 12 C12.99 12 13.98 12 15 12 C15 17.94 15 23.88 15 30 C14.01 30 13.02 30 12 30 C12 31.98 12 33.96 12 36 C13.65 36 15.3 36 17 36 C17 35.01 17 34.02 17 33 C18.32 33 19.64 33 21 33 C21 34.32 21 35.64 21 37 C20.01 37 19.02 37 18 37 C18 37.66 18 38.32 18 39 C17.01 39 16.02 39 15 39 C15 41.31 15 43.62 15 46 C15.99 46 16.98 46 18 46 C18 48.97 18 51.94 18 55 C18.99 55 19.98 55 21 55 C21 55.99 21 56.98 21 58 C21.99 58 22.98 58 24 58 C24 59.98 24 61.96 24 64 C24.99 64 25.98 64 27 64 C27 65.98 27 67.96 27 70 C27.99 70 28.98 70 30 70 C30 73.96 30 77.92 30 82 C29.01 82 28.02 82 27 82 C27 82.99 27 83.98 27 85 C23.04 85 19.08 85 15 85 C15 84.01 15 83.02 15 82 C14.01 82 13.02 82 12 82 C12 81.01 12 80.02 12 79 C11.01 79 10.02 79 9 79 C9 76.03 9 73.06 9 70 C8.01 70 7.02 70 6 70 C6 65.05 6 60.1 6 55 C5.01 55 4.02 55 3 55 C3 48.73 3 42.46 3 36 C2.01 36 1.02 36 0 36 C0 35.01 0 34.02 0 33 C-0.99 33 -1.98 33 -3 33 C-3.33 32.34 -3.66 31.68 -4 31 C-4.99 30.67 -5.98 30.34 -7 30 C-7 24.06 -7 18.12 -7 12 C-6.01 12 -5.02 12 -4 12 C-4 9.03 -4 6.06 -4 3 C-2.68 3 -1.36 3 0 3 C0 2.01 0 1.02 0 0 Z " fill="#C6855B" transform="translate(31,58)"/>
<path d="M0 0 C1.98 0 3.96 0 6 0 C6 0.99 6 1.98 6 3 C6.99 3 7.98 3 9 3 C9 3.99 9 4.98 9 6 C9.99 6 10.98 6 12 6 C12 7.98 12 9.96 12 12 C12.99 12 13.98 12 15 12 C15 15.96 15 19.92 15 24 C15.99 24 16.98 24 18 24 C18 25.32 18 26.64 18 28 C18.99 28 19.98 28 21 28 C21 28.66 21 29.32 21 30 C20.01 30 19.02 30 18 30 C18 30.99 18 31.98 18 33 C18.99 33 19.98 33 21 33 C21 35.31 21 37.62 21 40 C20.01 40 19.02 40 18 40 C18 40.99 18 41.98 18 43 C19.98 43 21.96 43 24 43 C24 43.99 24 44.98 24 46 C26.97 46 29.94 46 33 46 C33 46.99 33 47.98 33 49 C33.99 49 34.98 49 36 49 C36 49.99 36 50.98 36 52 C35.01 52 34.02 52 33 52 C33 52.99 33 53.98 33 55 C30.03 55 27.06 55 24 55 C24 55.99 24 56.98 24 58 C21.03 58 18.06 58 15 58 C15 57.01 15 56.02 15 55 C14.01 55 13.02 55 12 55 C12 56.98 12 58.96 12 61 C12.99 61 13.98 61 15 61 C15 61.99 15 62.98 15 64 C13.02 64 11.04 64 9 64 C9 63.01 9 62.02 9 61 C8.01 61 7.02 61 6 61 C6 61.99 6 62.98 6 64 C5.01 64 4.02 64 3 64 C3 60.04 3 56.08 3 52 C2.01 52 1.02 52 0 52 C0 50.02 0 48.04 0 46 C0.99 46 1.98 46 3 46 C3 45.01 3 44.02 3 43 C2.01 43 1.02 43 0 43 C0 42.01 0 41.02 0 40 C-1.32 40 -2.64 40 -4 40 C-4 40.99 -4 41.98 -4 43 C-6.64 43 -9.28 43 -12 43 C-12 42.01 -12 41.02 -12 40 C-11.01 40 -10.02 40 -9 40 C-9.10613836 37.54775306 -9.10613836 37.54775306 -10 35 C-12.47636012 33.62533375 -12.47636012 33.62533375 -15 33 C-15 31.35 -15 29.7 -15 28 C-12.03 28 -9.06 28 -6 28 C-6 26.68 -6 25.36 -6 24 C-3.03 24 -0.06 24 3 24 C3 22.02 3 20.04 3 18 C1.68 18 0.36 18 -1 18 C-1 18.99 -1 19.98 -1 21 C-1.66 21 -2.32 21 -3 21 C-3 20.01 -3 19.02 -3 18 C-5.97 18 -8.94 18 -12 18 C-12 17.01 -12 16.02 -12 15 C-13.32 15 -14.64 15 -16 15 C-16 14.01 -16 13.02 -16 12 C-12.25764681 9.55010899 -8.55774581 9.76913857 -4.25 9.875 C-3.55261719 9.88402344 -2.85523437 9.89304687 -2.13671875 9.90234375 C-0.42433042 9.92580112 1.28788004 9.96166896 3 10 C3 7.69 3 5.38 3 3 C2.01 3 1.02 3 0 3 C0 2.01 0 1.02 0 0 Z " fill="#361431" transform="translate(110,0)"/>
<path d="M0 0 C0.99 0 1.98 0 3 0 C3 1.98 3 3.96 3 6 C3.99 6 4.98 6 6 6 C6 6.99 6 7.98 6 9 C6.99 9 7.98 9 9 9 C9 9.99 9 10.98 9 12 C9.99 12 10.98 12 12 12 C12 12.99 12 13.98 12 15 C13.98 15 15.96 15 18 15 C18 16.98 18 18.96 18 21 C18.99 21 19.98 21 21 21 C21 29.91 21 38.82 21 48 C21.99 48 22.98 48 24 48 C24 53.28 24 58.56 24 64 C23.01 64 22.02 64 21 64 C21 66.97 21 69.94 21 73 C21.99 73 22.98 73 24 73 C24 73.99 24 74.98 24 76 C24.99 76 25.98 76 27 76 C27 76.99 27 77.98 27 79 C15.78 79 4.56 79 -7 79 C-7 77.02 -7 75.04 -7 73 C-6.01 73 -5.02 73 -4 73 C-4 72.01 -4 71.02 -4 70 C-2.68 70 -1.36 70 0 70 C0 70.99 0 71.98 0 73 C0.66 73 1.32 73 2 73 C2 68.05 2 63.1 2 58 C3.32 58 4.64 58 6 58 C6 49.75 6 41.5 6 33 C4.68 33 3.36 33 2 33 C2 30.03 2 27.06 2 24 C1.01 24 0.02 24 -1 24 C-1 21.03 -1 18.06 -1 15 C-1.99 15 -2.98 15 -4 15 C-4 13.02 -4 11.04 -4 9 C-2.68 9 -1.36 9 0 9 C0 6.03 0 3.06 0 0 Z " fill="#FAFAFA" transform="translate(104,180)"/>
<path d="M0 0 C0.99 0 1.98 0 3 0 C3 0.99 3 1.98 3 3 C3.99 3 4.98 3 6 3 C6 4.98 6 6.96 6 9 C6.99 9 7.98 9 9 9 C9 10.98 9 12.96 9 15 C9.99 15 10.98 15 12 15 C12 15.99 12 16.98 12 18 C12.99 18 13.98 18 15 18 C15 24.93 15 31.86 15 39 C14.34 39 13.68 39 13 39 C13 40.98 13 42.96 13 45 C12.01 45 11.02 45 10 45 C10 45.99 10 46.98 10 48 C8.68 48 7.36 48 6 48 C6 48.99 6 49.98 6 51 C4.02 51 2.04 51 0 51 C0 51.99 0 52.98 0 54 C-0.99 54 -1.98 54 -3 54 C-3 54.99 -3 55.98 -3 57 C-3.99 57 -4.98 57 -6 57 C-6 57.99 -6 58.98 -6 60 C-8.97 60 -11.94 60 -15 60 C-15 59.34 -15 58.68 -15 58 C-16.98 58 -18.96 58 -21 58 C-21 58.66 -21 59.32 -21 60 C-20.01 60 -19.02 60 -18 60 C-18 61.32 -18 62.64 -18 64 C-19.98 64 -21.96 64 -24 64 C-24 63.01 -24 62.02 -24 61 C-24.99 61 -25.98 61 -27 61 C-27 60.01 -27 59.02 -27 58 C-27.99 58 -28.98 58 -30 58 C-30 58.99 -30 59.98 -30 61 C-30.99 61 -31.98 61 -33 61 C-33 59.02 -33 57.04 -33 55 C-33.99 55 -34.98 55 -36 55 C-36 52.69 -36 50.38 -36 48 C-35.01 48 -34.02 48 -33 48 C-33 47.01 -33 46.02 -33 45 C-29.04 45 -25.08 45 -21 45 C-21 42.03 -21 39.06 -21 36 C-19.02 36 -17.04 36 -15 36 C-15 34.02 -15 32.04 -15 30 C-14.01 30 -13.02 30 -12 30 C-12 30.99 -12 31.98 -12 33 C-11.01 33 -10.02 33 -9 33 C-9 33.99 -9 34.98 -9 36 C-8.01 36 -7.02 36 -6 36 C-6 37.98 -6 39.96 -6 42 C-5.01 42 -4.02 42 -3 42 C-3 40.02 -3 38.04 -3 36 C-2.01 36 -1.02 36 0 36 C0 34.02 0 32.04 0 30 C0.99 30 1.98 30 3 30 C3 28.02 3 26.04 3 24 C2.01 24 1.02 24 0 24 C0 23.01 0 22.02 0 21 C-0.99 21 -1.98 21 -3 21 C-3 20.01 -3 19.02 -3 18 C-3.99 18 -4.98 18 -6 18 C-6 16.68 -6 15.36 -6 14 C-6.66 14 -7.32 14 -8 14 C-8 13.34 -8 12.68 -8 12 C-6.35 12 -4.7 12 -3 12 C-3 11.01 -3 10.02 -3 9 C-2.01 9 -1.02 9 0 9 C0 6.03 0 3.06 0 0 Z " fill="#C4845B" transform="translate(152,101)"/>
<path d="M0 0 C0.99 0 1.98 0 3 0 C3 12.87 3 25.74 3 39 C3.99 39 4.98 39 6 39 C6 48.24 6 57.48 6 67 C6.99 67 7.98 67 9 67 C9 68.98 9 70.96 9 73 C9.99 73 10.98 73 12 73 C12 77.95 12 82.9 12 88 C6.06 88 0.12 88 -6 88 C-6 87.01 -6 86.02 -6 85 C-6.99 85 -7.98 85 -9 85 C-9 84.01 -9 83.02 -9 82 C-9.99 82 -10.98 82 -12 82 C-12 79.03 -12 76.06 -12 73 C-11.01 73 -10.02 73 -9 73 C-9 67.72 -9 62.44 -9 57 C-9.99 57 -10.98 57 -12 57 C-12 48.09 -12 39.18 -12 30 C-12.99 30 -13.98 30 -15 30 C-15 28.02 -15 26.04 -15 24 C-11.04 24 -7.08 24 -3 24 C-3 23.01 -3 22.02 -3 21 C-2.01 21 -1.02 21 0 21 C0 20.01 0 19.02 0 18 C0.66 18 1.32 18 2 18 C2 12.39 2 6.78 2 1 C1.34 0.67 0.68 0.34 0 0 Z " fill="#3B1A09" transform="translate(137,171)"/>
<path d="M0 0 C1.98 0 3.96 0 6 0 C6 0.99 6 1.98 6 3 C5.01 3 4.02 3 3 3 C3 4.98 3 6.96 3 9 C3.99 9 4.98 9 6 9 C6 10.98 6 12.96 6 15 C6.99 15 7.98 15 9 15 C9 15.99 9 16.98 9 18 C9.99 18 10.98 18 12 18 C12 21 12 21 10.5 22.6875 C10.005 23.120625 9.51 23.55375 9 24 C10.98 24 12.96 24 15 24 C15 25.32 15 26.64 15 28 C18.69754402 26.76748533 19.62232923 24.99126323 22 22 C22.66 22 23.32 22 24 22 C24 22.99 24 23.98 24 25 C23.34 25 22.68 25 22 25 C21.505 27.475 21.505 27.475 21 30 C19.02 30 17.04 30 15 30 C15 30.99 15 31.98 15 33 C14.01 33 13.02 33 12 33 C12 33.99 12 34.98 12 36 C12.99 36 13.98 36 15 36 C15 38.97 15 41.94 15 45 C14.01 45 13.02 45 12 45 C12 46.32 12 47.64 12 49 C10.02 49 8.04 49 6 49 C6 49.99 6 50.98 6 52 C5.01 52 4.02 52 3 52 C3 53.98 3 55.96 3 58 C3.99 58 4.98 58 6 58 C6 59.98 6 61.96 6 64 C6.99 64 7.98 64 9 64 C9 64.99 9 65.98 9 67 C8.01 67 7.02 67 6 67 C6 67.99 6 68.98 6 70 C5.01 70 4.02 70 3 70 C3 67.03 3 64.06 3 61 C2.01 61 1.02 61 0 61 C0 61.99 0 62.98 0 64 C-1.98 64 -3.96 64 -6 64 C-6 63.01 -6 62.02 -6 61 C-5.01 61 -4.02 61 -3 61 C-3 60.01 -3 59.02 -3 58 C-6.96 58 -10.92 58 -15 58 C-15 57.01 -15 56.02 -15 55 C-17.97 55 -20.94 55 -24 55 C-24 54.01 -24 53.02 -24 52 C-23.01 52 -22.02 52 -21 52 C-21 51.01 -21 50.02 -21 49 C-19.02 49 -17.04 49 -15 49 C-15 48.01 -15 47.02 -15 46 C-13.02 46 -11.04 46 -9 46 C-9 41.05 -9 36.1 -9 31 C-8.01 31 -7.02 31 -6 31 C-6 28.69 -6 26.38 -6 24 C-6.99 24 -7.98 24 -9 24 C-9 23.01 -9 22.02 -9 21 C-8.01 21 -7.02 21 -6 21 C-6 17.04 -6 13.08 -6 9 C-5.01 9 -4.02 9 -3 9 C-3 7.02 -3 5.04 -3 3 C-2.01 3 -1.02 3 0 3 C0 2.01 0 1.02 0 0 Z " fill="#6F3E50" transform="translate(73,0)"/>
<path d="M0 0 C10.23 0 20.46 0 31 0 C31 0.99 31 1.98 31 3 C31.99 3 32.98 3 34 3 C34 5.31 34 7.62 34 10 C32.96359375 10.06058594 31.9271875 10.12117187 30.859375 10.18359375 C29.48957127 10.26803371 28.11978025 10.35267997 26.75 10.4375 C25.72712891 10.49647461 25.72712891 10.49647461 24.68359375 10.55664062 C21.35551959 10.76666472 18.19744598 11.01934002 15 12 C15 12.99 15 13.98 15 15 C16.32 15 17.64 15 19 15 C19 15.99 19 16.98 19 18 C21.97 18 24.94 18 28 18 C28 18.99 28 19.98 28 21 C28.66 21 29.32 21 30 21 C30 20.01 30 19.02 30 18 C31.32 18 32.64 18 34 18 C34 19.98 34 21.96 34 24 C31.03 24 28.06 24 25 24 C25 25.32 25 26.64 25 28 C22.03 28 19.06 28 16 28 C16 29.65 16 31.3 16 33 C17.98 33.33 19.96 33.66 22 34 C22 35.98 22 37.96 22 40 C21.01 40 20.02 40 19 40 C19 40.99 19 41.98 19 43 C21.64 43 24.28 43 27 43 C27.33 42.01 27.66 41.02 28 40 C28 41.98 28 43.96 28 46 C26.68 46 25.36 46 24 46 C24 46.99 24 47.98 24 49 C22.35 49 20.7 49 19 49 C18.67 46.03 18.34 43.06 18 40 C16.515 39.505 16.515 39.505 15 39 C15 38.34 15 37.68 15 37 C13.515 36.505 13.515 36.505 12 36 C12 35.34 12 34.68 12 34 C10.02 34 8.04 34 6 34 C7.485 33.505 7.485 33.505 9 33 C9 32.01 9 31.02 9 30 C10.98 30 12.96 30 15 30 C15.33 28.35 15.66 26.7 16 25 C16.66 25 17.32 25 18 25 C18 24.01 18 23.02 18 22 C17.34 22 16.68 22 16 22 C15.67 22.99 15.34 23.98 15 25 C14.34 25 13.68 25 13 25 C12.67 25.99 12.34 26.98 12 28 C11.01 28 10.02 28 9 28 C9 26.68 9 25.36 9 24 C7.02 24 5.04 24 3 24 C3.33 23.01 3.66 22.02 4 21 C4.66 21 5.32 21 6 21 C6 20.01 6 19.02 6 18 C5.01 18 4.02 18 3 18 C3 17.01 3 16.02 3 15 C2.01 15 1.02 15 0 15 C0 13.02 0 11.04 0 9 C-0.99 9 -1.98 9 -3 9 C-3 7.02 -3 5.04 -3 3 C-2.01 3 -1.02 3 0 3 C0 2.01 0 1.02 0 0 Z " fill="#9B914F" transform="translate(79,0)"/>
<path d="M0 0 C0.99 0 1.98 0 3 0 C3 0.99 3 1.98 3 3 C3.99 3 4.98 3 6 3 C6 3.99 6 4.98 6 6 C7.98 6 9.96 6 12 6 C12 4.68 12 3.36 12 2 C11.01 2 10.02 2 9 2 C9 1.34 9 0.68 9 0 C10.98 0 12.96 0 15 0 C15 4.29 15 8.58 15 13 C15.66 13 16.32 13 17 13 C17 18.61 17 24.22 17 30 C16.34 30 15.68 30 15 30 C15 30.99 15 31.98 15 33 C14.01 33 13.02 33 12 33 C12 33.99 12 34.98 12 36 C6.06 36 0.12 36 -6 36 C-6 35.01 -6 34.02 -6 33 C-6.99 33 -7.98 33 -9 33 C-9 32.01 -9 31.02 -9 30 C-9.99 30 -10.98 30 -12 30 C-12 29.01 -12 28.02 -12 27 C-12.99 27 -13.98 27 -15 27 C-15 25.02 -15 23.04 -15 21 C-15.99 21 -16.98 21 -18 21 C-18 23.97 -18 26.94 -18 30 C-19.32 30 -20.64 30 -22 30 C-22.66 31.98 -23.32 33.96 -24 36 C-28.62 36 -33.24 36 -38 36 C-38 36.66 -38 37.32 -38 38 C-37.34 38 -36.68 38 -36 38 C-36.33 39.32 -36.66 40.64 -37 42 C-37 41.01 -37 40.02 -37 39 C-37.99 39 -38.98 39 -40 39 C-40 38.01 -40 37.02 -40 36 C-41.98 36 -43.96 36 -46 36 C-46 35.01 -46 34.02 -46 33 C-46.66 33 -47.32 33 -48 33 C-48 32.01 -48 31.02 -48 30 C-47.34 30 -46.68 30 -46 30 C-46 29.01 -46 28.02 -46 27 C-45.01 27 -44.02 27 -43 27 C-43 27.99 -43 28.98 -43 30 C-42.01 30 -41.02 30 -40 30 C-40 30.99 -40 31.98 -40 33 C-38.68 33 -37.36 33 -36 33 C-36.33 31.02 -36.66 29.04 -37 27 C-36.01 27 -35.02 27 -34 27 C-34 27.99 -34 28.98 -34 30 C-31.69 30 -29.38 30 -27 30 C-27 29.01 -27 28.02 -27 27 C-26.34 27 -25.68 27 -25 27 C-25 23.04 -25 19.08 -25 15 C-25.99 15 -26.98 15 -28 15 C-28 14.01 -28 13.02 -28 12 C-26.68 12 -25.36 12 -24 12 C-24 12.99 -24 13.98 -24 15 C-20.37 15 -16.74 15 -13 15 C-12.505 17.475 -12.505 17.475 -12 20 C-11.01 20.33 -10.02 20.66 -9 21 C-9 21.99 -9 22.98 -9 24 C-7.02 24 -5.04 24 -3 24 C-3 24.99 -3 25.98 -3 27 C-1.02 27 0.96 27 3 27 C3 27.99 3 28.98 3 30 C3.99 30 4.98 30 6 30 C6 28.02 6 26.04 6 24 C6.99 24 7.98 24 9 24 C9 24.99 9 25.98 9 27 C9.99 27 10.98 27 12 27 C11.505 22.545 11.505 22.545 11 18 C10.34 18 9.68 18 9 18 C9 15.69 9 13.38 9 11 C8.01 11 7.02 11 6 11 C6 10.01 6 9.02 6 8 C5.01 8 4.02 8 3 8 C3 7.01 3 6.02 3 5 C1.02 5 -0.96 5 -3 5 C-3 4.34 -3 3.68 -3 3 C-2.01 3 -1.02 3 0 3 C0 2.01 0 1.02 0 0 Z " fill="#54290F" transform="translate(122,159)"/>
<path d="M0 0 C3.3 0 6.6 0 10 0 C10 0.99 10 1.98 10 3 C10.99 3 11.98 3 13 3 C13 5.97 13 8.94 13 12 C13.99 12 14.98 12 16 12 C16 9.03 16 6.06 16 3 C16.99 3 17.98 3 19 3 C19 2.01 19 1.02 19 0 C21.97 0 24.94 0 28 0 C28 0.99 28 1.98 28 3 C28.99 3 29.98 3 31 3 C31 3.99 31 4.98 31 6 C31.99 6 32.98 6 34 6 C34 10.95 34 15.9 34 21 C33.01 21 32.02 21 31 21 C31 21.99 31 22.98 31 24 C30.01 24 29.02 24 28 24 C28 23.01 28 22.02 28 21 C26.02 21 24.04 21 22 21 C22 21.99 22 22.98 22 24 C19.69 24 17.38 24 15 24 C15 23.01 15 22.02 15 21 C14.34 21 13.68 21 13 21 C13 21.99 13 22.98 13 24 C11.68 24 10.36 24 9 24 C9 23.01 9 22.02 9 21 C7.02 21 5.04 21 3 21 C3 20.01 3 19.02 3 18 C2.01 18 1.02 18 0 18 C0 12.06 0 6.12 0 0 Z " fill="#C8875D" transform="translate(88,116)"/>
<path d="M0 0 C0.99 0 1.98 0 3 0 C3 0.99 3 1.98 3 3 C3.99 3 4.98 3 6 3 C6 5.31 6 7.62 6 10 C6.99 10 7.98 10 9 10 C9 11.98 9 13.96 9 16 C9.99 16 10.98 16 12 16 C12 16.99 12 17.98 12 19 C12.99 19 13.98 19 15 19 C15 19.99 15 20.98 15 22 C15.99 22 16.98 22 18 22 C18 22.99 18 23.98 18 25 C18.99 25 19.98 25 21 25 C21 25.99 21 26.98 21 28 C21.99 28 22.98 28 24 28 C24 28.99 24 29.98 24 31 C24.99 31 25.98 31 27 31 C27 32.98 27 34.96 27 37 C26.01 37 25.02 37 24 37 C24 38.98 24 40.96 24 43 C23.01 43 22.02 43 21 43 C21 44.98 21 46.96 21 49 C20.01 49 19.02 49 18 49 C18 47.02 18 45.04 18 43 C17.01 43 16.02 43 15 43 C15 42.01 15 41.02 15 40 C14.01 40 13.02 40 12 40 C12 39.01 12 38.02 12 37 C11.01 37 10.02 37 9 37 C9 38.98 9 40.96 9 43 C7.02 43 5.04 43 3 43 C3 41.02 3 39.04 3 37 C2.01 37 1.02 37 0 37 C0 24.79 0 12.58 0 0 Z " fill="#FEFEFE" transform="translate(128,94)"/>
<path d="M0 0 C1.65 0 3.3 0 5 0 C5 0.99 5 1.98 5 3 C6.32 3 7.64 3 9 3 C9 3.99 9 4.98 9 6 C8.01 6 7.02 6 6 6 C6 6.99 6 7.98 6 9 C8.97 9 11.94 9 15 9 C15 9.99 15 10.98 15 12 C18.96 12 22.92 12 27 12 C27 12.99 27 13.98 27 15 C28.98 15 30.96 15 33 15 C33 15.99 33 16.98 33 18 C33.99 18 34.98 18 36 18 C36 21.3 36 24.6 36 28 C36.99 28 37.98 28 39 28 C39 28.66 39 29.32 39 30 C36.03 30 33.06 30 30 30 C30 29.01 30 28.02 30 27 C30.99 27 31.98 27 33 27 C33 25.02 33 23.04 33 21 C32.01 21 31.02 21 30 21 C30 20.01 30 19.02 30 18 C27.03 18 24.06 18 21 18 C21 17.01 21 16.02 21 15 C14.73 15 8.46 15 2 15 C2 15.99 2 16.98 2 18 C0.35 18 -1.3 18 -3 18 C-3 18.99 -3 19.98 -3 21 C-5.97 21 -8.94 21 -12 21 C-12 20.01 -12 19.02 -12 18 C-12.99 18 -13.98 18 -15 18 C-15 18.99 -15 19.98 -15 21 C-14.34 21 -13.68 21 -13 21 C-13 21.99 -13 22.98 -13 24 C-13.99 24 -14.98 24 -16 24 C-16 23.01 -16 22.02 -16 21 C-20.62 21 -25.24 21 -30 21 C-30 20.34 -30 19.68 -30 19 C-27.36 19 -24.72 19 -22 19 C-22 17.68 -22 16.36 -22 15 C-19.69 15 -17.38 15 -15 15 C-15 13.02 -15 11.04 -15 9 C-12.03 9 -9.06 9 -6 9 C-6 8.01 -6 7.02 -6 6 C-5.01 6 -4.02 6 -3 6 C-3 5.01 -3 4.02 -3 3 C-2.01 3 -1.02 3 0 3 C0 2.01 0 1.02 0 0 Z " fill="#A06945" transform="translate(107,64)"/>
<path d="M0 0 C1.98 0 3.96 0 6 0 C6 0.99 6 1.98 6 3 C6.99 3 7.98 3 9 3 C9 3.99 9 4.98 9 6 C9.99 6 10.98 6 12 6 C12 7.98 12 9.96 12 12 C12.99 12 13.98 12 15 12 C15 15.96 15 19.92 15 24 C15.99 24 16.98 24 18 24 C18 25.32 18 26.64 18 28 C18.99 28 19.98 28 21 28 C21 28.66 21 29.32 21 30 C20.01 30 19.02 30 18 30 C18 30.99 18 31.98 18 33 C18.99 33 19.98 33 21 33 C21 35.31 21 37.62 21 40 C20.01 40 19.02 40 18 40 C18 39.01 18 38.02 18 37 C17.01 37 16.02 37 15 37 C15 35.68 15 34.36 15 33 C13.02 33 11.04 33 9 33 C9 32.34 9 31.68 9 31 C8.01 31 7.02 31 6 31 C6 29.68 6 28.36 6 27 C4.68 27 3.36 27 2 27 C2 26.34 2 25.68 2 25 C-0.64 25 -3.28 25 -6 25 C-6 24.67 -6 24.34 -6 24 C-3.03 24 -0.06 24 3 24 C3 22.02 3 20.04 3 18 C1.68 18 0.36 18 -1 18 C-1 18.99 -1 19.98 -1 21 C-1.66 21 -2.32 21 -3 21 C-3 20.01 -3 19.02 -3 18 C-5.97 18 -8.94 18 -12 18 C-12 17.01 -12 16.02 -12 15 C-13.32 15 -14.64 15 -16 15 C-16 14.01 -16 13.02 -16 12 C-12.25764681 9.55010899 -8.55774581 9.76913857 -4.25 9.875 C-3.55261719 9.88402344 -2.85523437 9.89304687 -2.13671875 9.90234375 C-0.42433042 9.92580112 1.28788004 9.96166896 3 10 C3 7.69 3 5.38 3 3 C2.01 3 1.02 3 0 3 C0 2.01 0 1.02 0 0 Z " fill="#5F4E3D" transform="translate(110,0)"/>
<path d="M0 0 C0.66 0 1.32 0 2 0 C3.125 5.625 3.125 5.625 2 9 C3.32 9 4.64 9 6 9 C6 11.97 6 14.94 6 18 C6.99 18 7.98 18 9 18 C9 21.96 9 25.92 9 30 C9.66 30 10.32 30 11 30 C11 32.31 11 34.62 11 37 C10.01 37 9.02 37 8 37 C8 36.01 8 35.02 8 34 C7.34 34 6.68 34 6 34 C6 36.64 6 39.28 6 42 C4.515 42.495 4.515 42.495 3 43 C3 40.69 3 38.38 3 36 C2.01 36 1.02 36 0 36 C0 35.01 0 34.02 0 33 C-0.99 33 -1.98 33 -3 33 C-3.33 32.34 -3.66 31.68 -4 31 C-4.99 30.67 -5.98 30.34 -7 30 C-7 24.06 -7 18.12 -7 12 C-6.01 12 -5.02 12 -4 12 C-4 9.03 -4 6.06 -4 3 C-2.68 3 -1.36 3 0 3 C0 2.01 0 1.02 0 0 Z " fill="#9F6C44" transform="translate(31,58)"/>
<path d="M0 0 C0.99 0 1.98 0 3 0 C3 13.2 3 26.4 3 40 C1.02 40 -0.96 40 -3 40 C-3 36.04 -3 32.08 -3 28 C-3.99 28 -4.98 28 -6 28 C-6 27.01 -6 26.02 -6 25 C-6.99 25 -7.98 25 -9 25 C-9 24.01 -9 23.02 -9 22 C-11.97 22 -14.94 22 -18 22 C-18 22.99 -18 23.98 -18 25 C-18.99 25 -19.98 25 -21 25 C-21 27.97 -21 30.94 -21 34 C-21.99 34 -22.98 34 -24 34 C-24 31.03 -24 28.06 -24 25 C-24.99 25 -25.98 25 -27 25 C-27 24.01 -27 23.02 -27 22 C-28.04800781 22.01740234 -28.04800781 22.01740234 -29.1171875 22.03515625 C-30.02726562 22.04417969 -30.93734375 22.05320312 -31.875 22.0625 C-33.23238281 22.07990234 -33.23238281 22.07990234 -34.6171875 22.09765625 C-37 22 -37 22 -39 21 C-39 19.35 -39 17.7 -39 16 C-38.34 16 -37.68 16 -37 16 C-37 16.99 -37 17.98 -37 19 C-32.71 19 -28.42 19 -24 19 C-24 17.02 -24 15.04 -24 13 C-23.01 13 -22.02 13 -21 13 C-21 14.98 -21 16.96 -21 19 C-15.06 19 -9.12 19 -3 19 C-3 18.01 -3 17.02 -3 16 C-2.01 16 -1.02 16 0 16 C0 10.72 0 5.44 0 0 Z " fill="#9F6642" transform="translate(125,94)"/>
<path d="M0 0 C0.99 0 1.98 0 3 0 C3 0.99 3 1.98 3 3 C4.98 3 6.96 3 9 3 C9 6.96 9 10.92 9 15 C9.99 15 10.98 15 12 15 C12 15.99 12 16.98 12 18 C11.01 18 10.02 18 9 18 C9 19.98 9 21.96 9 24 C9.99 24 10.98 24 12 24 C12 25.98 12 27.96 12 30 C12.99 30 13.98 30 15 30 C15 30.99 15 31.98 15 33 C14.01 33 13.02 33 12 33 C12 33.99 12 34.98 12 36 C11.01 36 10.02 36 9 36 C9 33.03 9 30.06 9 27 C8.01 27 7.02 27 6 27 C6 27.99 6 28.98 6 30 C4.02 30 2.04 30 0 30 C0 29.01 0 28.02 0 27 C0.99 27 1.98 27 3 27 C3 26.01 3 25.02 3 24 C-0.96 24 -4.92 24 -9 24 C-9 23.01 -9 22.02 -9 21 C-6.03 21 -3.06 21 0 21 C0 14.07 0 7.14 0 0 Z " fill="#351331" transform="translate(67,34)"/>
<path d="M0 0 C0.99 0 1.98 0 3 0 C3 0.99 3 1.98 3 3 C3.99 3 4.98 3 6 3 C6 4.98 6 6.96 6 9 C6.99 9 7.98 9 9 9 C9 10.98 9 12.96 9 15 C9.99 15 10.98 15 12 15 C12 15.99 12 16.98 12 18 C12.99 18 13.98 18 15 18 C15 24.93 15 31.86 15 39 C14.34 39 13.68 39 13 39 C13 33.06 13 27.12 13 21 C12.01 21 11.02 21 10 21 C10 20.01 10 19.02 10 18 C7.69 18 5.38 18 3 18 C3 19.98 3 21.96 3 24 C2.01 24 1.02 24 0 24 C0 23.01 0 22.02 0 21 C-0.99 21 -1.98 21 -3 21 C-3 20.01 -3 19.02 -3 18 C-3.99 18 -4.98 18 -6 18 C-6 16.68 -6 15.36 -6 14 C-6.66 14 -7.32 14 -8 14 C-8 13.34 -8 12.68 -8 12 C-6.35 12 -4.7 12 -3 12 C-3 11.01 -3 10.02 -3 9 C-2.01 9 -1.02 9 0 9 C0 6.03 0 3.06 0 0 Z " fill="#A06742" transform="translate(152,101)"/>
<path d="M0 0 C10.23 0 20.46 0 31 0 C31 0.99 31 1.98 31 3 C31.99 3 32.98 3 34 3 C34 4.98 34 6.96 34 9 C28.72 9 23.44 9 18 9 C18 8.01 18 7.02 18 6 C17.01 6 16.02 6 15 6 C15 5.01 15 4.02 15 3 C14.01 3 13.02 3 12 3 C12 3.99 12 4.98 12 6 C9.03 6 6.06 6 3 6 C3 6.99 3 7.98 3 9 C1.02 9 -0.96 9 -3 9 C-3 7.02 -3 5.04 -3 3 C-2.01 3 -1.02 3 0 3 C0 2.01 0 1.02 0 0 Z " fill="#FCFCFB" transform="translate(79,0)"/>
<path d="M0 0 C2.64 0 5.28 0 8 0 C8 0.66 8 1.32 8 2 C9.32 2 10.64 2 12 2 C12 3.32 12 4.64 12 6 C12.99 6 13.98 6 15 6 C15 6.66 15 7.32 15 8 C16.98 8 18.96 8 21 8 C21 9.32 21 10.64 21 12 C19.02 12 17.04 12 15 12 C15 12.99 15 13.98 15 15 C14.01 15 13.02 15 12 15 C12 13.02 12 11.04 12 9 C11.01 9 10.02 9 9 9 C8.67 8.01 8.34 7.02 8 6 C7.34 5.67 6.68 5.34 6 5 C6 4.34 6 3.68 6 3 C5.01 3 4.02 3 3 3 C3 3.99 3 4.98 3 6 C3.66 6 4.32 6 5 6 C5 8.64 5 11.28 5 14 C4.01 14.495 4.01 14.495 3 15 C2.67 15.99 2.34 16.98 2 18 C-0.64 18 -3.28 18 -6 18 C-6 17.01 -6 16.02 -6 15 C-5.01 15 -4.02 15 -3 15 C-3.10613836 12.54775306 -3.10613836 12.54775306 -4 10 C-6.47636012 8.62533375 -6.47636012 8.62533375 -9 8 C-9 6.35 -9 4.7 -9 3 C-6.03 3 -3.06 3 0 3 C0 2.01 0 1.02 0 0 Z " fill="#361230" transform="translate(104,25)"/>
<path d="M0 0 C0.33 0.99 0.66 1.98 1 3 C3.97 3 6.94 3 10 3 C10 3.66 10 4.32 10 5 C15.445 5.495 15.445 5.495 21 6 C21 6.99 21 7.98 21 9 C20.01 9 19.02 9 18 9 C18 10.98 18 12.96 18 15 C11.07 15 4.14 15 -3 15 C-3 12.03 -3 9.06 -3 6 C-2.01 6 -1.02 6 0 6 C0 4.02 0 2.04 0 0 Z " fill="#371632" transform="translate(79,244)"/>
<path d="M0 0 C0.99 0 1.98 0 3 0 C3 0.99 3 1.98 3 3 C3.99 3 4.98 3 6 3 C6 3.99 6 4.98 6 6 C11.28 6 16.56 6 22 6 C22 6.33 22 6.66 22 7 C20.96359375 7.06058594 19.9271875 7.12117187 18.859375 7.18359375 C17.48957127 7.26803371 16.11978025 7.35267997 14.75 7.4375 C13.72712891 7.49647461 13.72712891 7.49647461 12.68359375 7.55664062 C9.35551959 7.76666472 6.19744598 8.01934002 3 9 C3 10.98 3 12.96 3 15 C1.02 15 -0.96 15 -3 15 C-3 15.99 -3 16.98 -3 18 C-3.99 18 -4.98 18 -6 18 C-6 17.01 -6 16.02 -6 15 C-6.99 15 -7.98 15 -9 15 C-9 14.01 -9 13.02 -9 12 C-9.99 12 -10.98 12 -12 12 C-12 10.02 -12 8.04 -12 6 C-11.01 6 -10.02 6 -9 6 C-9 5.01 -9 4.02 -9 3 C-6.03 3 -3.06 3 0 3 C0 2.01 0 1.02 0 0 Z " fill="#695248" transform="translate(91,3)"/>
<path d="M0 0 C0.99 0 1.98 0 3 0 C3 0.99 3 1.98 3 3 C3.99 3 4.98 3 6 3 C6 3.99 6 4.98 6 6 C6.99 6 7.98 6 9 6 C9 6.99 9 7.98 9 9 C9.99 9 10.98 9 12 9 C12 14.94 12 20.88 12 27 C11.01 27 10.02 27 9 27 C9 28.98 9 30.96 9 33 C10.65 33 12.3 33 14 33 C14 32.01 14 31.02 14 30 C15.32 30 16.64 30 18 30 C18 31.32 18 32.64 18 34 C14.42355152 35.2380014 11.66305234 34.74926071 8 34 C8 31.69 8 29.38 8 27 C7.34 27 6.68 27 6 27 C6 23.04 6 19.08 6 15 C5.01 15 4.02 15 3 15 C1.875 9.375 1.875 9.375 3 6 C1.68 6 0.36 6 -1 6 C-0.67 4.02 -0.34 2.04 0 0 Z " fill="#CC8D66" transform="translate(34,61)"/>
<path d="M0 0 C1.65 0 3.3 0 5 0 C5 0.99 5 1.98 5 3 C6.32 3 7.64 3 9 3 C9 3.99 9 4.98 9 6 C8.01 6 7.02 6 6 6 C6 7.32 6 8.64 6 10 C8.64 10 11.28 10 14 10 C14 10.66 14 11.32 14 12 C5.585 12.495 5.585 12.495 -3 13 C-3.33 13.66 -3.66 14.32 -4 15 C-6.64 15 -9.28 15 -12 15 C-12 14.01 -12 13.02 -12 12 C-12.99 12 -13.98 12 -15 12 C-15 11.01 -15 10.02 -15 9 C-12.03 9 -9.06 9 -6 9 C-6 8.01 -6 7.02 -6 6 C-5.01 6 -4.02 6 -3 6 C-3 5.01 -3 4.02 -3 3 C-2.01 3 -1.02 3 0 3 C0 2.01 0 1.02 0 0 Z " fill="#8D532E" transform="translate(107,64)"/>
<path d="M0 0 C0.99 0 1.98 0 3 0 C3 2.97 3 5.94 3 9 C4.32 9 5.64 9 7 9 C7 9.99 7 10.98 7 12 C4.69 12 2.38 12 0 12 C0 12.99 0 13.98 0 15 C2.97 15 5.94 15 9 15 C9 15.99 9 16.98 9 18 C7.02 18 5.04 18 3 18 C3 18.99 3 19.98 3 21 C5.31 21 7.62 21 10 21 C9.67 22.32 9.34 23.64 9 25 C8.34 25 7.68 25 7 25 C7 25.66 7 26.32 7 27 C5.02 27 3.04 27 1 27 C1 26.01 1 25.02 1 24 C0.01 24 -0.98 24 -2 24 C-2.33 24.99 -2.66 25.98 -3 27 C-3 21.06 -3 15.12 -3 9 C-2.01 9 -1.02 9 0 9 C0 6.03 0 3.06 0 0 Z " fill="#C6855A" transform="translate(27,61)"/>
<path d="M0 0 C1.32 0.33 2.64 0.66 4 1 C3.67 2.65 3.34 4.3 3 6 C4.98 6 6.96 6 9 6 C9 8.97 9 11.94 9 15 C8.01 15 7.02 15 6 15 C6 16.32 6 17.64 6 19 C3.03 19 0.06 19 -3 19 C-3 14.05 -3 9.1 -3 4 C-2.01 4 -1.02 4 0 4 C0 2.68 0 1.36 0 0 Z " fill="#875042" transform="translate(79,30)"/>
<path d="M0 0 C0.99 0 1.98 0 3 0 C3 2 3 2 1.5 3.625 C1.005 4.07875 0.51 4.5325 0 5 C1.98 5 3.96 5 6 5 C6 6.32 6 7.64 6 9 C9.69754402 7.76748533 10.62232923 5.99126323 13 3 C13.66 3 14.32 3 15 3 C15 3.99 15 4.98 15 6 C14.34 6 13.68 6 13 6 C12.67 7.65 12.34 9.3 12 11 C10.02 11 8.04 11 6 11 C6 11.99 6 12.98 6 14 C5.01 14 4.02 14 3 14 C3 14.99 3 15.98 3 17 C2.01 17 1.02 17 0 17 C0 15.35 0 13.7 0 12 C-2.97 11.67 -5.94 11.34 -9 11 C-9 10.01 -9 9.02 -9 8 C-9.99 8 -10.98 8 -12 8 C-12 7.01 -12 6.02 -12 5 C-9.03 5 -6.06 5 -3 5 C-3 4.01 -3 3.02 -3 2 C-2.01 2 -1.02 2 0 2 C0 1.34 0 0.68 0 0 Z " fill="#381831" transform="translate(82,19)"/>
<path d="M0 0 C0.99 0 1.98 0 3 0 C3 0.66 3 1.32 3 2 C3.99 2.33 4.98 2.66 6 3 C6 3.99 6 4.98 6 6 C6.99 6 7.98 6 9 6 C9 15.9 9 25.8 9 36 C8.01 36 7.02 36 6 36 C6 32.04 6 28.08 6 24 C5.01 24 4.02 24 3 24 C3 22.02 3 20.04 3 18 C3.99 18 4.98 18 6 18 C6 17.01 6 16.02 6 15 C5.01 15 4.02 15 3 15 C3 14.01 3 13.02 3 12 C2.01 11.67 1.02 11.34 0 11 C0.66 11 1.32 11 2 11 C2 8.36 2 5.72 2 3 C1.34 3 0.68 3 0 3 C0 2.01 0 1.02 0 0 Z " fill="#612F47" transform="translate(107,28)"/>
<path d="M0 0 C0.99 0 1.98 0 3 0 C3 1.98 3 3.96 3 6 C3.99 6 4.98 6 6 6 C6 9.96 6 13.92 6 18 C5.01 18 4.02 18 3 18 C3 18.99 3 19.98 3 21 C-0.96 21 -4.92 21 -9 21 C-9 20.01 -9 19.02 -9 18 C-9.99 18 -10.98 18 -12 18 C-12 17.01 -12 16.02 -12 15 C-8.04 15 -4.08 15 0 15 C0 10.05 0 5.1 0 0 Z " fill="#9E6540" transform="translate(55,122)"/>
<path d="M0 0 C1.65 0 3.3 0 5 0 C5 0.66 5 1.32 5 2 C5.99 2 6.98 2 8 2 C8.33 1.34 8.66 0.68 9 0 C9 0.99 9 1.98 9 3 C6.03 3 3.06 3 0 3 C0 4.65 0 6.3 0 8 C2.97 8.495 2.97 8.495 6 9 C6 10.98 6 12.96 6 15 C5.01 15 4.02 15 3 15 C3 15.99 3 16.98 3 18 C5.64 18 8.28 18 11 18 C11.33 17.01 11.66 16.02 12 15 C12 16.98 12 18.96 12 21 C10.68 21 9.36 21 8 21 C8 21.99 8 22.98 8 24 C6.35 24 4.7 24 3 24 C2.67 21.03 2.34 18.06 2 15 C1.01 14.67 0.02 14.34 -1 14 C-1 13.34 -1 12.68 -1 12 C-1.99 11.67 -2.98 11.34 -4 11 C-4 10.34 -4 9.68 -4 9 C-5.98 9 -7.96 9 -10 9 C-9.01 8.67 -8.02 8.34 -7 8 C-7 7.01 -7 6.02 -7 5 C-5.02 5 -3.04 5 -1 5 C-0.67 3.35 -0.34 1.7 0 0 Z " fill="#9C6240" transform="translate(95,25)"/>
<path d="M0 0 C0.99 0 1.98 0 3 0 C3 1.32 3 2.64 3 4 C4.32 4 5.64 4 7 4 C7 3.01 7 2.02 7 1 C7.66 1 8.32 1 9 1 C9 2.98 9 4.96 9 7 C9.99 7 10.98 7 12 7 C12 7.99 12 8.98 12 10 C11.34 10 10.68 10 10 10 C10 10.99 10 11.98 10 13 C10.66 13 11.32 13 12 13 C12 14.98 12 16.96 12 19 C11.01 19 10.02 19 9 19 C9 17.02 9 15.04 9 13 C8.01 13 7.02 13 6 13 C6 13.99 6 14.98 6 16 C5.01 16 4.02 16 3 16 C3 15.01 3 14.02 3 13 C2.01 13 1.02 13 0 13 C0 12.01 0 11.02 0 10 C-0.99 10 -1.98 10 -3 10 C-3 8.68 -3 7.36 -3 6 C-2.01 6 -1.02 6 0 6 C0 4.02 0 2.04 0 0 Z " fill="#D37A38" transform="translate(18,39)"/>
<path d="M0 0 C0.99 0 1.98 0 3 0 C3 0.99 3 1.98 3 3 C3.99 3 4.98 3 6 3 C6 4.32 6 5.64 6 7 C6.99 7 7.98 7 9 7 C9 7.66 9 8.32 9 9 C8.01 9 7.02 9 6 9 C6 9.99 6 10.98 6 12 C6.99 12 7.98 12 9 12 C9 14.31 9 16.62 9 19 C8.01 19 7.02 19 6 19 C6 18.01 6 17.02 6 16 C5.01 16 4.02 16 3 16 C3 14.68 3 13.36 3 12 C1.02 12 -0.96 12 -3 12 C-3 11.34 -3 10.68 -3 10 C-3.99 10 -4.98 10 -6 10 C-6 8.68 -6 7.36 -6 6 C-5.01 6 -4.02 6 -3 6 C-3 5.01 -3 4.02 -3 3 C-2.01 3 -1.02 3 0 3 C0 2.01 0 1.02 0 0 Z " fill="#7B7D44" transform="translate(122,21)"/>
<path d="M0 0 C0.99 0 1.98 0 3 0 C3 0.99 3 1.98 3 3 C6.96 3 10.92 3 15 3 C15 2.01 15 1.02 15 0 C16.65 0 18.3 0 20 0 C20 2.97 20 5.94 20 9 C14.39 9 8.78 9 3 9 C3 8.01 3 7.02 3 6 C2.01 6 1.02 6 0 6 C0 5.01 0 4.02 0 3 C-0.66 2.67 -1.32 2.34 -2 2 C-1.34 2 -0.68 2 0 2 C0 1.34 0 0.68 0 0 Z " fill="#341230" transform="translate(128,250)"/>
<path d="M0 0 C0.69738281 0.00902344 1.39476563 0.01804687 2.11328125 0.02734375 C3.82566958 0.05080112 5.53788004 0.08666896 7.25 0.125 C7.4296875 4.921875 7.4296875 4.921875 5.8125 6.75 C5.296875 7.20375 4.78125 7.6575 4.25 8.125 C3.92 9.115 3.59 10.105 3.25 11.125 C2.59 11.125 1.93 11.125 1.25 11.125 C1.25 10.135 1.25 9.145 1.25 8.125 C-1.72 8.125 -4.69 8.125 -7.75 8.125 C-7.75 7.135 -7.75 6.145 -7.75 5.125 C-9.07 5.125 -10.39 5.125 -11.75 5.125 C-11.75 4.135 -11.75 3.145 -11.75 2.125 C-8.00764681 -0.32489101 -4.30774581 -0.10586143 0 0 Z " fill="#35112F" transform="translate(105.75,9.875)"/>
<path d="M0 0 C1.98 0 3.96 0 6 0 C6 0.99 6 1.98 6 3 C5.01 3 4.02 3 3 3 C2.67 4.98 2.34 6.96 2 9 C1.34 9 0.68 9 0 9 C0 9.99 0 10.98 0 12 C0.99 12 1.98 12 3 12 C3 12.99 3 13.98 3 15 C1.02 15 -0.96 15 -3 15 C-3 15.99 -3 16.98 -3 18 C-2.01 18 -1.02 18 0 18 C0 18.99 0 19.98 0 21 C-2.64 21.66 -5.28 22.32 -8 23 C-8.33 22.34 -8.66 21.68 -9 21 C-8.01 21 -7.02 21 -6 21 C-6 17.04 -6 13.08 -6 9 C-5.01 9 -4.02 9 -3 9 C-3 7.02 -3 5.04 -3 3 C-2.01 3 -1.02 3 0 3 C0 2.01 0 1.02 0 0 Z " fill="#8A746B" transform="translate(73,0)"/>
<path d="M0 0 C0.33 0.99 0.66 1.98 1 3 C1.99 3 2.98 3 4 3 C4 4.98 4 6.96 4 9 C4.99 9 5.98 9 7 9 C7 9.99 7 10.98 7 12 C7.99 12.33 8.98 12.66 10 13 C9.01 13 8.02 13 7 13 C7 13.66 7 14.32 7 15 C6.01 15 5.02 15 4 15 C4 15.99 4 16.98 4 18 C1.03 18 -1.94 18 -5 18 C-5 17.01 -5 16.02 -5 15 C-4.01 15 -3.02 15 -2 15 C-2 14.01 -2 13.02 -2 12 C-2.99 12 -3.98 12 -5 12 C-5 11.01 -5 10.02 -5 9 C-3.02 9 -1.04 9 1 9 C1 8.01 1 7.02 1 6 C0.01 6 -0.98 6 -2 6 C-2 5.01 -2 4.02 -2 3 C-1.34 3 -0.68 3 0 3 C0 2.01 0 1.02 0 0 Z " fill="#604E3F" transform="translate(75,6)"/>
<path d="M0 0 C0.99 0 1.98 0 3 0 C3 4.95 3 9.9 3 15 C1.02 15 -0.96 15 -3 15 C-3 14.01 -3 13.02 -3 12 C-3.99 12 -4.98 12 -6 12 C-6 11.01 -6 10.02 -6 9 C-6.99 9 -7.98 9 -9 9 C-9 8.01 -9 7.02 -9 6 C-8.01 6 -7.02 6 -6 6 C-6 5.01 -6 4.02 -6 3 C-4.02 3 -2.04 3 0 3 C0 2.01 0 1.02 0 0 Z " fill="#3A1807" transform="translate(128,131)"/>
<path d="M0 0 C0.99 0 1.98 0 3 0 C3 0.99 3 1.98 3 3 C3.99 3 4.98 3 6 3 C6 2.01 6 1.02 6 0 C8.97 0 11.94 0 15 0 C15 1.98 15 3.96 15 6 C13.02 6 11.04 6 9 6 C9 6.99 9 7.98 9 9 C6.03 9 3.06 9 0 9 C0 8.01 0 7.02 0 6 C-0.99 6 -1.98 6 -3 6 C-3 5.01 -3 4.02 -3 3 C-2.01 3 -1.02 3 0 3 C0 2.01 0 1.02 0 0 Z " fill="#AD754C" transform="translate(125,49)"/>
<path d="M0 0 C0.99 0 1.98 0 3 0 C3 0.99 3 1.98 3 3 C3.99 3 4.98 3 6 3 C6 3.99 6 4.98 6 6 C6.99 6 7.98 6 9 6 C9 8.97 9 11.94 9 15 C7.02 15 5.04 15 3 15 C3 14.01 3 13.02 3 12 C2.01 12 1.02 12 0 12 C0 11.01 0 10.02 0 9 C-0.99 9 -1.98 9 -3 9 C-3 8.01 -3 7.02 -3 6 C-2.01 6 -1.02 6 0 6 C0 4.02 0 2.04 0 0 Z " fill="#53250E" transform="translate(137,131)"/>
<path d="M0 0 C2.31 0 4.62 0 7 0 C7 0.99 7 1.98 7 3 C7.66 3 8.32 3 9 3 C9 2.01 9 1.02 9 0 C10.32 0 11.64 0 13 0 C13 1.98 13 3.96 13 6 C12.04287109 6.07347656 12.04287109 6.07347656 11.06640625 6.1484375 C10.24011719 6.22320313 9.41382812 6.29796875 8.5625 6.375 C7.73878906 6.44460937 6.91507813 6.51421875 6.06640625 6.5859375 C5.04353516 6.79089844 5.04353516 6.79089844 4 7 C3.67 7.66 3.34 8.32 3 9 C2.01 9 1.02 9 0 9 C0 8.34 0 7.68 0 7 C-0.99 7 -1.98 7 -3 7 C-3 5.68 -3 4.36 -3 3 C-2.01 3 -1.02 3 0 3 C0 2.01 0 1.02 0 0 Z " fill="#BD8444" transform="translate(100,18)"/>
<path d="M0 0 C1.98 0 3.96 0 6 0 C6 0.99 6 1.98 6 3 C6.99 3 7.98 3 9 3 C9 3.99 9 4.98 9 6 C9.99 6 10.98 6 12 6 C12 7.98 12 9.96 12 12 C12.99 12.33 13.98 12.66 15 13 C14.01 13 13.02 13 12 13 C12 13.66 12 14.32 12 15 C10.02 15 8.04 15 6 15 C6 14.01 6 13.02 6 12 C6.99 12 7.98 12 9 12 C9 11.01 9 10.02 9 9 C7.02 9 5.04 9 3 9 C3 7.02 3 5.04 3 3 C2.01 3 1.02 3 0 3 C0 2.01 0 1.02 0 0 Z " fill="#846F62" transform="translate(110,0)"/>
<path d="M0 0 C3.3 0 6.6 0 10 0 C10 1.32 10 2.64 10 4 C10.99 4 11.98 4 13 4 C13 4.66 13 5.32 13 6 C14.98 6 16.96 6 19 6 C19 7.32 19 8.64 19 10 C17.02 10 15.04 10 13 10 C13 10.99 13 11.98 13 13 C12.01 13 11.02 13 10 13 C10 11.02 10 9.04 10 7 C9.01 7 8.02 7 7 7 C6.67 6.01 6.34 5.02 6 4 C5.34 3.67 4.68 3.34 4 3 C4 2.34 4 1.68 4 1 C3.01 1 2.02 1 1 1 C0.67 1.66 0.34 2.32 0 3 C0 2.01 0 1.02 0 0 Z " fill="#532D44" transform="translate(106,27)"/>
<path d="M0 0 C1.98 0 3.96 0 6 0 C6 0.99 6 1.98 6 3 C8.97 3 11.94 3 15 3 C15 3.99 15 4.98 15 6 C15.99 6 16.98 6 18 6 C18 6.99 18 7.98 18 9 C17.01 9 16.02 9 15 9 C15 9.99 15 10.98 15 12 C14.01 12 13.02 12 12 12 C12 10.02 12 8.04 12 6 C9.03 6 6.06 6 3 6 C3 5.01 3 4.02 3 3 C2.01 3 1.02 3 0 3 C0 2.01 0 1.02 0 0 Z " fill="#65290A" transform="translate(128,43)"/>
<path d="M0 0 C0.99 0 1.98 0 3 0 C3 2.97 3 5.94 3 9 C4.32 9 5.64 9 7 9 C7 9.99 7 10.98 7 12 C4.69 12 2.38 12 0 12 C-1.0541518 15.16245541 -1.31275672 17.86948218 -1.5625 21.1875 C-1.64628906 22.27417969 -1.73007812 23.36085938 -1.81640625 24.48046875 C-1.87699219 25.31191406 -1.93757813 26.14335938 -2 27 C-2.33 27 -2.66 27 -3 27 C-3 21.06 -3 15.12 -3 9 C-2.01 9 -1.02 9 0 9 C0 6.03 0 3.06 0 0 Z " fill="#D5A78A" transform="translate(27,61)"/>
<path d="M0 0 C1.98 0 3.96 0 6 0 C6 1.98 6 3.96 6 6 C5.01 6 4.02 6 3 6 C3 6.99 3 7.98 3 9 C2.01 9 1.02 9 0 9 C0 9.99 0 10.98 0 12 C-0.99 12 -1.98 12 -3 12 C-3 9.03 -3 6.06 -3 3 C-2.01 3 -1.02 3 0 3 C0 2.01 0 1.02 0 0 Z " fill="#729547" transform="translate(37,46)"/>
<path d="M0 0 C0.66 0 1.32 0 2 0 C2 1.98 2 3.96 2 6 C2.99 6 3.98 6 5 6 C5 6.99 5 7.98 5 9 C4.34 9 3.68 9 3 9 C3 9.99 3 10.98 3 12 C3.66 12 4.32 12 5 12 C5 13.98 5 15.96 5 18 C4.01 18 3.02 18 2 18 C2 16.02 2 14.04 2 12 C1.01 12 0.02 12 -1 12 C-1 10.02 -1 8.04 -1 6 C-1.99 6 -2.98 6 -4 6 C-4 5.01 -4 4.02 -4 3 C-2.68 3 -1.36 3 0 3 C0 2.01 0 1.02 0 0 Z " fill="#898848" transform="translate(25,40)"/>
<path d="M0 0 C0.99 0 1.98 0 3 0 C3 0.99 3 1.98 3 3 C2.34 3 1.68 3 1 3 C1 3.99 1 4.98 1 6 C2.98 6 4.96 6 7 6 C7 7.98 7 9.96 7 12 C7.66 12 8.32 12 9 12 C9 12.99 9 13.98 9 15 C8.01 15 7.02 15 6 15 C6 14.34 6 13.68 6 13 C5.34 13 4.68 13 4 13 C4 11.68 4 10.36 4 9 C1.69 9 -0.62 9 -3 9 C-3 7.02 -3 5.04 -3 3 C-2.01 3 -1.02 3 0 3 C0 2.01 0 1.02 0 0 Z " fill="#592B0B" transform="translate(94,146)"/>
<path d="M0 0 C0.99 0 1.98 0 3 0 C3 0.99 3 1.98 3 3 C3.66 3 4.32 3 5 3 C5.33 2.01 5.66 1.02 6 0 C6 1.32 6 2.64 6 4 C5.01 4 4.02 4 3 4 C3 4.99 3 5.98 3 7 C5.64 7 8.28 7 11 7 C11.33 6.01 11.66 5.02 12 4 C12 5.98 12 7.96 12 10 C10.68 10 9.36 10 8 10 C8 10.99 8 11.98 8 13 C6.35 13 4.7 13 3 13 C2.67 10.03 2.34 7.06 2 4 C1.34 4 0.68 4 0 4 C0 2.68 0 1.36 0 0 Z " fill="#7B411B" transform="translate(95,36)"/>
<path d="M0 0 C0.33 0 0.66 0 1 0 C1 1.98 1 3.96 1 6 C1.99 6 2.98 6 4 6 C4 9.96 4 13.92 4 18 C4.66 18 5.32 18 6 18 C6 18.99 6 19.98 6 21 C5.01 21 4.02 21 3 21 C3 20.01 3 19.02 3 18 C2.01 18 1.02 18 0 18 C0 15.03 0 12.06 0 9 C-0.99 8.67 -1.98 8.34 -3 8 C-2.01 8 -1.02 8 0 8 C0 5.36 0 2.72 0 0 Z " fill="#A26844" transform="translate(88,37)"/>
<path d="M0 0 C0.99 0 1.98 0 3 0 C3 0.99 3 1.98 3 3 C3.99 3 4.98 3 6 3 C6 3.99 6 4.98 6 6 C6.99 6 7.98 6 9 6 C9 6.99 9 7.98 9 9 C8.01 9 7.02 9 6 9 C6 9.99 6 10.98 6 12 C4.68 12 3.36 12 2 12 C2.33 10.02 2.66 8.04 3 6 C1.68 6 0.36 6 -1 6 C-0.67 4.02 -0.34 2.04 0 0 Z " fill="#D19E7D" transform="translate(34,61)"/>
<path d="M0 0 C1.98 0 3.96 0 6 0 C6 1.98 6 3.96 6 6 C0.06 6 -5.88 6 -12 6 C-12 5.67 -12 5.34 -12 5 C-10.02 5 -8.04 5 -6 5 C-6 4.34 -6 3.68 -6 3 C-4.02 3 -2.04 3 0 3 C0 2.01 0 1.02 0 0 Z " fill="#9A6646" transform="translate(61,49)"/>
<path d="M0 0 C1.98 0 3.96 0 6 0 C6 0.66 6 1.32 6 2 C6.99 2.33 7.98 2.66 9 3 C7.02 3 5.04 3 3 3 C3 3.99 3 4.98 3 6 C1.02 6 -0.96 6 -3 6 C-3 6.66 -3 7.32 -3 8 C-4.98 8 -6.96 8 -9 8 C-9 7.34 -9 6.68 -9 6 C-8.01 6 -7.02 6 -6 6 C-6 5.01 -6 4.02 -6 3 C-4.02 3 -2.04 3 0 3 C0 2.01 0 1.02 0 0 Z " fill="#682E10" transform="translate(58,46)"/>
<path d="M0 0 C0.99 0 1.98 0 3 0 C3 2.64 3 5.28 3 8 C2.01 8 1.02 8 0 8 C0 9.32 0 10.64 0 12 C-1.98 12 -3.96 12 -6 12 C-6 10.02 -6 8.04 -6 6 C-4.02 6 -2.04 6 0 6 C0 4.02 0 2.04 0 0 Z " fill="#65311D" transform="translate(85,37)"/>
<path d="M0 0 C0.99 0 1.98 0 3 0 C3 0.66 3 1.32 3 2 C3.99 2.33 4.98 2.66 6 3 C6 6.96 6 10.92 6 15 C5.01 15 4.02 15 3 15 C3 14.01 3 13.02 3 12 C2.01 11.67 1.02 11.34 0 11 C0.66 11 1.32 11 2 11 C2 8.36 2 5.72 2 3 C1.34 3 0.68 3 0 3 C0 2.01 0 1.02 0 0 Z " fill="#884F30" transform="translate(107,28)"/>
<path d="M0 0 C0.99 0 1.98 0 3 0 C3 0.99 3 1.98 3 3 C3.99 3 4.98 3 6 3 C6 3.99 6 4.98 6 6 C5.01 6 4.02 6 3 6 C3 6.99 3 7.98 3 9 C2.01 9 1.02 9 0 9 C0 8.34 0 7.68 0 7 C-0.99 7 -1.98 7 -3 7 C-3 7.66 -3 8.32 -3 9 C-3.99 9 -4.98 9 -6 9 C-6 8.01 -6 7.02 -6 6 C-5.01 6 -4.02 6 -3 6 C-3 5.01 -3 4.02 -3 3 C-2.01 3 -1.02 3 0 3 C0 2.01 0 1.02 0 0 Z " fill="#E5826E" transform="translate(122,21)"/>
<path d="M0 0 C0.66 0 1.32 0 2 0 C3.125 5.625 3.125 5.625 2 9 C3.32 9 4.64 9 6 9 C5.67 10.98 5.34 12.96 5 15 C4.34 15 3.68 15 3 15 C3 14.01 3 13.02 3 12 C1.68 12 0.36 12 -1 12 C-1.02712066 10.56260487 -1.04645067 9.12506137 -1.0625 7.6875 C-1.07410156 6.88699219 -1.08570312 6.08648437 -1.09765625 5.26171875 C-1 3 -1 3 0 0 Z " fill="#7D7B3B" transform="translate(31,58)"/>
<path d="M0 0 C0.99 0 1.98 0 3 0 C3 0.99 3 1.98 3 3 C4.98 3 6.96 3 9 3 C9 3.99 9 4.98 9 6 C7.02 6 5.04 6 3 6 C3 7.98 3 9.96 3 12 C2.01 12 1.02 12 0 12 C0 8.04 0 4.08 0 0 Z " fill="#C38359" transform="translate(76,37)"/>
<path d="M0 0 C1.98 0 3.96 0 6 0 C6 0.99 6 1.98 6 3 C5.01 3 4.02 3 3 3 C2.67 4.98 2.34 6.96 2 9 C0.35 9 -1.3 9 -3 9 C-3 7.02 -3 5.04 -3 3 C-2.01 3 -1.02 3 0 3 C0 2.01 0 1.02 0 0 Z " fill="#AE8A77" transform="translate(73,0)"/>
<path d="M0 0 C0.99 0 1.98 0 3 0 C3 0.66 3 1.32 3 2 C3.99 2 4.98 2 6 2 C6 2.99 6 3.98 6 5 C6.99 5 7.98 5 9 5 C9 7.31 9 9.62 9 12 C8.01 12 7.02 12 6 12 C5.9071875 10.824375 5.9071875 10.824375 5.8125 9.625 C5.544375 8.75875 5.27625 7.8925 5 7 C2.52363988 5.62533375 2.52363988 5.62533375 0 5 C0 3.35 0 1.7 0 0 Z " fill="#4D2242" transform="translate(95,28)"/>
<path d="M0 0 C1.98 0 3.96 0 6 0 C6 1.32 6 2.64 6 4 C5.01 4 4.02 4 3 4 C3 4.99 3 5.98 3 7 C1.02 7 -0.96 7 -3 7 C-3 6.01 -3 5.02 -3 4 C-3.99 3.67 -4.98 3.34 -6 3 C-4.02 3 -2.04 3 0 3 C0 2.01 0 1.02 0 0 Z " fill="#613047" transform="translate(73,30)"/>
<path d="M0 0 C1.98 0 3.96 0 6 0 C6 1.98 6 3.96 6 6 C3.69 6 1.38 6 -1 6 C-1 5.34 -1 4.68 -1 4 C-3.64 4 -6.28 4 -9 4 C-9 3.67 -9 3.34 -9 3 C-6.03 3 -3.06 3 0 3 C0 2.01 0 1.02 0 0 Z " fill="#6D843E" transform="translate(113,21)"/>
<path d="M0 0 C0.99 0 1.98 0 3 0 C3 0.99 3 1.98 3 3 C3.99 3 4.98 3 6 3 C6 3.99 6 4.98 6 6 C5.01 6 4.02 6 3 6 C3 6.99 3 7.98 3 9 C2.01 9 1.02 9 0 9 C0 8.01 0 7.02 0 6 C-0.99 6 -1.98 6 -3 6 C-3 5.01 -3 4.02 -3 3 C-2.01 3 -1.02 3 0 3 C0 2.01 0 1.02 0 0 Z " fill="#DE7E67" transform="translate(85,12)"/>
<path d="M0 0 C1.98 0 3.96 0 6 0 C6 0.99 6 1.98 6 3 C6.99 3 7.98 3 9 3 C9 3.99 9 4.98 9 6 C8.01 6 7.02 6 6 6 C6 6.99 6 7.98 6 9 C5.01 9 4.02 9 3 9 C3 7.02 3 5.04 3 3 C2.01 3 1.02 3 0 3 C0 2.01 0 1.02 0 0 Z " fill="#B5907D" transform="translate(110,0)"/>
<path d="M0 0 C0 0.66 0 1.32 0 2 C1.32 2 2.64 2 4 2 C4 2.99 4 3.98 4 5 C3.01 5 2.02 5 1 5 C1 5.99 1 6.98 1 8 C0.01 8 -0.98 8 -2 8 C-2 6.02 -2 4.04 -2 2 C-4.97 2 -7.94 2 -11 2 C-11 1.67 -11 1.34 -11 1 C-9.54182203 0.83197949 -8.0834516 0.66562857 -6.625 0.5 C-5.81289062 0.4071875 -5.00078125 0.314375 -4.1640625 0.21875 C-2 0 -2 0 0 0 Z " fill="#6E3819" transform="translate(142,47)"/>
<path d="M0 0 C0.99 0 1.98 0 3 0 C3 0.66 3 1.32 3 2 C3.99 2 4.98 2 6 2 C6 4.31 6 6.62 6 9 C5.01 9 4.02 9 3 9 C3 8.01 3 7.02 3 6 C2.01 6 1.02 6 0 6 C0 4.02 0 2.04 0 0 Z " fill="#C18F4E" transform="translate(125,31)"/>
<path d="M0 0 C1.98 0 3.96 0 6 0 C6 3.96 6 7.92 6 12 C5.67 11.01 5.34 10.02 5 9 C4.34 9 3.68 9 3 9 C3 6.69 3 4.38 3 2 C2.01 2 1.02 2 0 2 C0 1.34 0 0.68 0 0 Z " fill="#371205" transform="translate(131,159)"/>
<path d="M0 0 C0.99 0 1.98 0 3 0 C3 0.99 3 1.98 3 3 C3.99 3 4.98 3 6 3 C6 4.98 6 6.96 6 9 C5.01 9 4.02 9 3 9 C3 8.01 3 7.02 3 6 C2.01 6 1.02 6 0 6 C0 4.02 0 2.04 0 0 Z " fill="#9F6743" transform="translate(49,113)"/>
<path d="M0 0 C3.96 0 7.92 0 12 0 C12 0.99 12 1.98 12 3 C8.04 3 4.08 3 0 3 C0 2.01 0 1.02 0 0 Z " fill="#6A3410" transform="translate(88,61)"/>
<path d="M0 0 C3.96 0 7.92 0 12 0 C12 0.99 12 1.98 12 3 C8.04 3 4.08 3 0 3 C0 2.01 0 1.02 0 0 Z " fill="#6A3615" transform="translate(58,55)"/>
<path d="M0 0 C0.33 0 0.66 0 1 0 C1 2.64 1 5.28 1 8 C1.66 8 2.32 8 3 8 C3 10.97 3 13.94 3 17 C2.01 17 1.02 17 0 17 C0 11.39 0 5.78 0 0 Z " fill="#542545" transform="translate(64,31)"/>
<path d="M0 0 C0 0.99 0 1.98 0 3 C0.99 3 1.98 3 3 3 C3 3.99 3 4.98 3 6 C1.02 6 -0.96 6 -3 6 C-3 5.01 -3 4.02 -3 3 C-3.99 3 -4.98 3 -6 3 C-6 2.34 -6 1.68 -6 1 C-4 0 -4 0 0 0 Z " fill="#54290C" transform="translate(122,140)"/>
<path d="M0 0 C0 0.66 0 1.32 0 2 C-0.99 2 -1.98 2 -3 2 C-3 2.99 -3 3.98 -3 5 C-5.31 5 -7.62 5 -10 5 C-10 4.01 -10 3.02 -10 2 C-6.5980513 -0.09350689 -3.94727588 -0.17942163 0 0 Z " fill="#532547" transform="translate(104,10)"/>
<path d="M0 0 C4.95 0 9.9 0 15 0 C15 0.99 15 1.98 15 3 C12.03 3 9.06 3 6 3 C6 2.34 6 1.68 6 1 C4.02 1 2.04 1 0 1 C0 0.67 0 0.34 0 0 Z " fill="#9F6541" transform="translate(131,158)"/>
<path d="M0 0 C0.99 0 1.98 0 3 0 C3 0.99 3 1.98 3 3 C3.99 3 4.98 3 6 3 C6 3.99 6 4.98 6 6 C3.36 6.66 0.72 7.32 -2 8 C-2.33 7.34 -2.66 6.68 -3 6 C-2.01 6 -1.02 6 0 6 C0 4.02 0 2.04 0 0 Z " fill="#887069" transform="translate(67,15)"/>
<path d="M0 0 C0.99 0 1.98 0 3 0 C3 1.65 3 3.3 3 5 C3.66 5 4.32 5 5 5 C5.33 4.34 5.66 3.68 6 3 C6 3.99 6 4.98 6 6 C5.01 6 4.02 6 3 6 C3 6.99 3 7.98 3 9 C2.01 9 1.02 9 0 9 C0 6.03 0 3.06 0 0 Z " fill="#8DA45B" transform="translate(34,49)"/>
<path d="M0 0 C0.99 0.33 1.98 0.66 3 1 C2.34 1 1.68 1 1 1 C0.46326107 6.36090593 0.46326107 6.36090593 2.5 11 C2.995 11.33 3.49 11.66 4 12 C2.68 12.33 1.36 12.66 0 13 C0 12.01 0 11.02 0 10 C-0.99 10 -1.98 10 -3 10 C-3 8.68 -3 7.36 -3 6 C-2.01 6 -1.02 6 0 6 C0 4.02 0 2.04 0 0 Z " fill="#E6A772" transform="translate(18,39)"/>
<path d="M0 0 C0.66 0 1.32 0 2 0 C2 1.98 2 3.96 2 6 C2.99 6 3.98 6 5 6 C5 6.99 5 7.98 5 9 C4.01 9 3.02 9 2 9 C2 9.99 2 10.98 2 12 C1.34 12 0.68 12 0 12 C0 8.04 0 4.08 0 0 Z " fill="#260425" transform="translate(77,58)"/>
<path d="M0 0 C1.98 0 3.96 0 6 0 C6.33 0.66 6.66 1.32 7 2 C6.01 2.33 5.02 2.66 4 3 C3.67 4.98 3.34 6.96 3 9 C2.34 9 1.68 9 1 9 C0.67 6.03 0.34 3.06 0 0 Z " fill="#87783D" transform="translate(42,95)"/>
<path d="M0 0 C1.65 0 3.3 0 5 0 C5 0.66 5 1.32 5 2 C5.99 2 6.98 2 8 2 C8.33 1.34 8.66 0.68 9 0 C9 0.99 9 1.98 9 3 C6.03 3 3.06 3 0 3 C0 4.65 0 6.3 0 8 C-0.33 7.34 -0.66 6.68 -1 6 C-1.99 5.67 -2.98 5.34 -4 5 C-3.01 5 -2.02 5 -1 5 C-0.67 3.35 -0.34 1.7 0 0 Z " fill="#645C35" transform="translate(95,25)"/>
<path d="M0 0 C1.32 0 2.64 0 4 0 C4 1.98 4 3.96 4 6 C2.02 6 0.04 6 -2 6 C-2 5.01 -2 4.02 -2 3 C-1.34 3 -0.68 3 0 3 C0 2.01 0 1.02 0 0 Z " fill="#A69D58" transform="translate(109,18)"/>
<path d="M0 0 C1.32 0 2.64 0 4 0 C4 0.99 4 1.98 4 3 C4.66 3 5.32 3 6 3 C6 3.99 6 4.98 6 6 C4.35 6.33 2.7 6.66 1 7 C0.67 4.69 0.34 2.38 0 0 Z " fill="#6C8441" transform="translate(94,15)"/>
<path d="M0 0 C0.99 0 1.98 0 3 0 C3.33 1.98 3.66 3.96 4 6 C1.69 6 -0.62 6 -3 6 C-3 5.01 -3 4.02 -3 3 C-2.01 3 -1.02 3 0 3 C0 2.01 0 1.02 0 0 Z " fill="#DE833E" transform="translate(91,3)"/>
<path d="M0 0 C0.66 0 1.32 0 2 0 C2 1.98 2 3.96 2 6 C2.99 6 3.98 6 5 6 C5 6.99 5 7.98 5 9 C3.35 9 1.7 9 0 9 C-1.125 3.375 -1.125 3.375 0 0 Z " fill="#C56727" transform="translate(25,40)"/>
<path d="M0 0 C0.33 0 0.66 0 1 0 C1 1.65 1 3.3 1 5 C2.65 5 4.3 5 6 5 C6 4.01 6 3.02 6 2 C7.32 2 8.64 2 10 2 C10 3.32 10 4.64 10 6 C6.42355152 7.2380014 3.66305234 6.74926071 0 6 C0 4.02 0 2.04 0 0 Z " fill="#A4B68E" transform="translate(42,89)"/>
<path d="M0 0 C2.97 0.495 2.97 0.495 6 1 C6 1.66 6 2.32 6 3 C7.32 3.33 8.64 3.66 10 4 C5.71 4 1.42 4 -3 4 C-2.01 3.67 -1.02 3.34 0 3 C0 2.01 0 1.02 0 0 Z " fill="#90583D" transform="translate(88,30)"/>
<path d="M0 0 C2.97 0 5.94 0 9 0 C9 0.99 9 1.98 9 3 C6.03 3 3.06 3 0 3 C0 2.01 0 1.02 0 0 Z " fill="#A46A46" transform="translate(122,149)"/>
<path d="M0 0 C1.98 0 3.96 0 6 0 C6 1.98 6 3.96 6 6 C5.01 6 4.02 6 3 6 C3 5.01 3 4.02 3 3 C2.01 3 1.02 3 0 3 C0 2.01 0 1.02 0 0 Z " fill="#9F6743" transform="translate(143,146)"/>
<path d="M0 0 C1.98 0 3.96 0 6 0 C6.33 1.32 6.66 2.64 7 4 C4.69 4 2.38 4 0 4 C0 2.68 0 1.36 0 0 Z " fill="#AC714C" transform="translate(97,91)"/>
<path d="M0 0 C0.33 0 0.66 0 1 0 C1.33 5.61 1.66 11.22 2 17 C0.68 17.33 -0.64 17.66 -2 18 C-2 16.68 -2 15.36 -2 14 C-1.34 14 -0.68 14 0 14 C0 9.38 0 4.76 0 0 Z " fill="#BB7E56" transform="translate(44,71)"/>
<path d="M0 0 C0.99 0 1.98 0 3 0 C3 2.97 3 5.94 3 9 C2.01 9 1.02 9 0 9 C0 6.03 0 3.06 0 0 Z " fill="#6E3F30" transform="translate(113,55)"/>
<path d="M0 0 C0.99 0 1.98 0 3 0 C3 1.98 3 3.96 3 6 C1.02 6 -0.96 6 -3 6 C-3 5.01 -3 4.02 -3 3 C-2.01 3 -1.02 3 0 3 C0 2.01 0 1.02 0 0 Z " fill="#CB895E" transform="translate(125,49)"/>
<path d="M0 0 C1.98 0 3.96 0 6 0 C6 1.98 6 3.96 6 6 C5.01 6 4.02 6 3 6 C3 5.01 3 4.02 3 3 C2.01 3 1.02 3 0 3 C0 2.01 0 1.02 0 0 Z " fill="#CA875D" transform="translate(61,49)"/>
<path d="M0 0 C0.99 0 1.98 0 3 0 C3 0.99 3 1.98 3 3 C3.99 3 4.98 3 6 3 C6 3.99 6 4.98 6 6 C5.01 6 4.02 6 3 6 C3 7.98 3 9.96 3 12 C2.67 12 2.34 12 2 12 C2 9.03 2 6.06 2 3 C1.34 3 0.68 3 0 3 C0 2.01 0 1.02 0 0 Z " fill="#A46A49" transform="translate(107,40)"/>
<path d="M0 0 C0.99 0 1.98 0 3 0 C3.1875 2.875 3.1875 2.875 3 6 C2.01 6.66 1.02 7.32 0 8 C-0.66 7.67 -1.32 7.34 -2 7 C-2.33 7.66 -2.66 8.32 -3 9 C-3 8.01 -3 7.02 -3 6 C-2.01 6 -1.02 6 0 6 C0 4.02 0 2.04 0 0 Z " fill="#7B4D30" transform="translate(85,131)"/>
<path d="M0 0 C2.64 0 5.28 0 8 0 C8 0.99 8 1.98 8 3 C5.03 3 2.06 3 -1 3 C-0.67 2.01 -0.34 1.02 0 0 Z " fill="#586637" transform="translate(83,21)"/>
<path d="M0 0 C1.32 0 2.64 0 4 0 C4 4.95 4 9.9 4 15 C3.67 15 3.34 15 3 15 C3 11.04 3 7.08 3 3 C2.01 3 1.02 3 0 3 C0 2.01 0 1.02 0 0 Z " fill="#602E0A" transform="translate(94,171)"/>
<path d="M0 0 C0.66 0 1.32 0 2 0 C2 0.99 2 1.98 2 3 C3.32 3 4.64 3 6 3 C6 3.99 6 4.98 6 6 C4.02 6 2.04 6 0 6 C0 4.02 0 2.04 0 0 Z " fill="#300F2D" transform="translate(110,64)"/>
<path d="M0 0 C0.99 0 1.98 0 3 0 C3 0.99 3 1.98 3 3 C3.66 3 4.32 3 5 3 C5.33 2.01 5.66 1.02 6 0 C6 1.32 6 2.64 6 4 C5.01 4 4.02 4 3 4 C3 5.98 3 7.96 3 10 C2.67 10 2.34 10 2 10 C2 8.02 2 6.04 2 4 C1.34 4 0.68 4 0 4 C0 2.68 0 1.36 0 0 Z " fill="#7E4C42" transform="translate(95,36)"/>
<path d="M0 0 C0.99 0 1.98 0 3 0 C3 2.64 3 5.28 3 8 C2.01 8 1.02 8 0 8 C0 5.36 0 2.72 0 0 Z " fill="#724152" transform="translate(113,34)"/>
<path d="M0 0 C0.33 0 0.66 0 1 0 C0.67 2.97 0.34 5.94 0 9 C-0.99 9 -1.98 9 -3 9 C-3 7.02 -3 5.04 -3 3 C-2.01 3 -1.02 3 0 3 C0 2.01 0 1.02 0 0 Z " fill="#94A058" transform="translate(82,6)"/>
<path d="M0 0 C6.75 -0.125 6.75 -0.125 9 1 C9 1.99 9 2.98 9 4 C7.35 3.67 5.7 3.34 4 3 C4 2.34 4 1.68 4 1 C3.01 1 2.02 1 1 1 C0.67 1.66 0.34 2.32 0 3 C0 2.01 0 1.02 0 0 Z " fill="#4D2339" transform="translate(106,27)"/>
<path d="M0 0 C2.31 0 4.62 0 7 0 C7 0.99 7 1.98 7 3 C4.69 3 2.38 3 0 3 C0 2.01 0 1.02 0 0 Z " fill="#A56B47" transform="translate(91,64)"/>
<path d="M0 0 C0.33 0 0.66 0 1 0 C1 3.96 1 7.92 1 12 C1.66 12 2.32 12 3 12 C3 12.99 3 13.98 3 15 C2.01 15 1.02 15 0 15 C0 10.05 0 5.1 0 0 Z " fill="#AF724D" transform="translate(91,43)"/>
<path d="M0 0 C0.99 0 1.98 0 3 0 C3 1.32 3 2.64 3 4 C2.01 4 1.02 4 0 4 C0 4.66 0 5.32 0 6 C-0.99 6 -1.98 6 -3 6 C-3 5.01 -3 4.02 -3 3 C-2.01 3 -1.02 3 0 3 C0 2.01 0 1.02 0 0 Z " fill="#CA8061" transform="translate(119,24)"/>
<path d="M0 0 C0.99 0 1.98 0 3 0 C3 0.99 3 1.98 3 3 C2.34 3 1.68 3 1 3 C0.67 3.99 0.34 4.98 0 6 C0 5.34 0 4.68 0 4 C-0.66 4 -1.32 4 -2 4 C-2 5.65 -2 7.3 -2 9 C-2.33 9 -2.66 9 -3 9 C-3 7.02 -3 5.04 -3 3 C-2.01 3 -1.02 3 0 3 C0 2.01 0 1.02 0 0 Z " fill="#5E2D0A" transform="translate(94,146)"/>
<path d="M0 0 C0.99 0 1.98 0 3 0 C3 0.99 3 1.98 3 3 C5.64 3 8.28 3 11 3 C11 3.33 11 3.66 11 4 C8.36 4 5.72 4 3 4 C2.67 4.66 2.34 5.32 2 6 C2 5.01 2 4.02 2 3 C1.34 3 0.68 3 0 3 C0 2.01 0 1.02 0 0 Z " fill="#BD7E56" transform="translate(92,82)"/>
<path d="M0 0 C0.99 0 1.98 0 3 0 C3 3.96 3 7.92 3 12 C2.01 11.67 1.02 11.34 0 11 C0.66 11 1.32 11 2 11 C2 8.36 2 5.72 2 3 C1.34 3 0.68 3 0 3 C0 2.01 0 1.02 0 0 Z " fill="#69392E" transform="translate(107,28)"/>
<path d="M0 0 C1.32 0.33 2.64 0.66 4 1 C3.67 2.65 3.34 4.3 3 6 C2.01 5.67 1.02 5.34 0 5 C0 3.35 0 1.7 0 0 Z " fill="#78463F" transform="translate(79,30)"/>
<path d="M0 0 C0.99 0 1.98 0 3 0 C3 3 3 3 1.6875 4.6875 C0 6 0 6 -3 6 C-3 5.01 -3 4.02 -3 3 C-2.01 3 -1.02 3 0 3 C0 2.01 0 1.02 0 0 Z " fill="#D76960" transform="translate(85,12)"/>
<path d="M0 0 C1.98 0 3.96 0 6 0 C6 0.99 6 1.98 6 3 C4.02 3 2.04 3 0 3 C0 2.01 0 1.02 0 0 Z " fill="#A06641" transform="translate(64,119)"/>
<path d="M0 0 C1.98 0 3.96 0 6 0 C6 0.99 6 1.98 6 3 C4.02 3 2.04 3 0 3 C0 2.01 0 1.02 0 0 Z " fill="#A36A46" transform="translate(110,82)"/>
<path d="M0 0 C1.98 0 3.96 0 6 0 C6 0.99 6 1.98 6 3 C4.02 3 2.04 3 0 3 C0 2.01 0 1.02 0 0 Z " fill="#673112" transform="translate(125,55)"/>
<path d="M0 0 C0.99 0 1.98 0 3 0 C3 1.98 3 3.96 3 6 C2.01 6 1.02 6 0 6 C0 4.02 0 2.04 0 0 Z " fill="#9C6644" transform="translate(76,52)"/>
<path d="M0 0 C0.99 0 1.98 0 3 0 C3 1.98 3 3.96 3 6 C2.01 6 1.02 6 0 6 C0 4.02 0 2.04 0 0 Z " fill="#56274B" transform="translate(67,49)"/>
<path d="M0 0 C1.98 0 3.96 0 6 0 C6 0.99 6 1.98 6 3 C4.02 3 2.04 3 0 3 C0 2.01 0 1.02 0 0 Z " fill="#512447" transform="translate(73,30)"/>
<path d="M0 0 C0.66 0 1.32 0 2 0 C2 0.99 2 1.98 2 3 C2.99 3 3.98 3 5 3 C5 3.99 5 4.98 5 6 C3.35 5.67 1.7 5.34 0 5 C0 3.35 0 1.7 0 0 Z " fill="#572947" transform="translate(95,28)"/>
<path d="M0 0 C0.99 0 1.98 0 3 0 C3 1.98 3 3.96 3 6 C2.01 6 1.02 6 0 6 C0 4.02 0 2.04 0 0 Z " fill="#B48F7B" transform="translate(67,9)"/>
<path d="M0 0 C0.99 0 1.98 0 3 0 C3 1.98 3 3.96 3 6 C2.01 6 1.02 6 0 6 C0 4.02 0 2.04 0 0 Z " fill="#A45A2A" transform="translate(21,49)"/>
<path d="M0 0 C1.98 0 3.96 0 6 0 C5.01 0.495 5.01 0.495 4 1 C3.67 1.99 3.34 2.98 3 4 C2.01 4 1.02 4 0 4 C0 2.68 0 1.36 0 0 Z " fill="#7C7947" transform="translate(88,24)"/>
</svg>
